{
.appVersion = "1260";
DisplayStrings = (
hagndgloves
);
classes = (
{
code = "A Aacute Adieresis Agrave Aring AE B C D E Eacute Ecircumflex Egrave F G H I Iacute Igrave J K L M N O Oacute Ocircumflex Odieresis Ograve Oslash P Q R S T U Uacute Udieresis Ugrave V W X Y Z\012";
name = Uppercase;
}
);
copyright = "Monokrom Skriftforlag AS";
customParameters = (
{
name = "Family Alignment Zones";
value = (
"{720, 15}",
"{700, 15}",
"{495, 20}",
"{0, -15}",
"{-210, -15}"
);
},
{
name = Axes;
value = (
{
Name = Weight;
Tag = wght;
},
{
Name = "Diagonal cuts";
Tag = DIAG;
},
{
Name = Slant;
Tag = slnt;
}
);
},
{
name = "Has WWS Names";
value = 1;
},
{
name = vendorID;
value = MNKR;
}
);
date = "2018-03-22 16:00:57 +0000";
designer = "Sindre Bremnes, Frode Helland";
familyName = Geologisk;
featurePrefixes = (
{
code = "languagesystem DFLT dflt;\012languagesystem latn dflt;";
name = Languagesystems;
}
);
features = (
{
code = "feature ccmp;\012feature sups;\012feature frac;\012feature case;";
name = aalt;
},
{
code = "lookup ccmp_Other_1 {\012	@CombiningTopAccents = [acutecomb circumflexcomb dieresiscomb dotaccentcomb gravecomb ringcomb];\012	sub [i j]' @CombiningTopAccents by [idotless jdotless];\012	@Markscomb = [dieresiscomb gravecomb acutecomb circumflexcomb ringcomb];\012	@MarkscombCase = [dieresiscomb.case gravecomb.case acutecomb.case circumflexcomb.case ringcomb.case];\012	sub @Markscomb @Markscomb' by @MarkscombCase;\012	sub @Uppercase @Markscomb' by @MarkscombCase;\012} ccmp_Other_1;\012\012lookup ccmp_Other_2 {\012	sub @Markscomb' @MarkscombCase by @MarkscombCase;\012	sub @MarkscombCase @Markscomb' by @MarkscombCase;\012} ccmp_Other_2;";
name = ccmp;
},
{
code = "sub [zero one two three four five six seven eight nine] by [zero.tnum one.tnum two.tnum three.tnum four.tnum five.tnum six.tnum seven.tnum eight.tnum nine.tnum];";
name = tnum;
},
{
code = "sub one by onesuperior;\012sub two by twosuperior;\012sub three by threesuperior;";
name = sups;
},
{

glyphs = (
{
color = 4;
glyphname = A;
lastChange = "2019-12-20 09:13:02 +0000";
layers = (
{
anchors = (
{
name = bottom;
position = "{375, 0}";
},
{
name = ogonek;
position = "{749, 0}";
},
{
name = top;
position = "{375, 700}";
}
);
layerId = "E991CF0C-7E17-4C48-B08A-36C8E595ED17";
paths = (
{
closed = 1;
nodes = (
"222 0 LINE",
"261 125 LINE",
"482 125 LINE",
"521 0 LINE",
"749 0 LINE",
"495 700 LINE",
"255 700 LINE",
"0 0 LINE"
);
},
{
closed = 1;
nodes = (
"372 492 LINE",
"438 292 LINE",
"304 292 LINE"
);
}
);
width = 749;
},
{
anchors = (
{
name = bottom;
position = "{325, 0}";
},
{
name = ogonek;
position = "{644, 0}";
},
{
name = top;
position = "{325, 700}";
}
);
layerId = "38FA562F-EF2C-4367-983C-F15B205514DC";
paths = (
{
closed = 1;
nodes = (
"81 0 LINE",
"157 192 LINE",
"499 192 LINE",
"579 0 LINE",
"644 0 LINE",
"350 700 LINE",
"300 700 LINE",
"18 0 LINE"
);
},
{
closed = 1;
nodes = (
"323 614 LINE",
"477 246 LINE",
"178 246 LINE"
);
}
);
width = 662;
},
{
anchors = (
{
name = bottom;
position = "{375, 0}";
},
{
name = ogonek;
position = "{749, 0}";
},
{
name = top;
position = "{375, 700}";
}
);
layerId = "805D0193-4943-450F-A7B0-5A59B60D8C7D";
paths = (
{
closed = 1;
nodes = (
"222 0 LINE",
"261 125 LINE",
"482 125 LINE",
"521 0 LINE",
"749 0 LINE",
"495 700 LINE",
"255 700 LINE",
"0 0 LINE"
);
},
{
closed = 1;
nodes = (
"372 492 LINE",
"438 292 LINE",
"304 292 LINE"
);
}
);
width = 749;
},
{
anchors = (
{
name = bottom;
position = "{325, 0}";
},
{
name = ogonek;
position = "{644, 0}";
},
{
name = top;
position = "{325, 700}";
}
);
layerId = "01407E7F-30D0-482B-A25C-5A532F071765";
paths = (
{
closed = 1;
nodes = (
"81 0 LINE",
"157 192 LINE",
"499 192 LINE",
"579 0 LINE",
"644 0 LINE",
"350 700 LINE",
"300 700 LINE",
"18 0 LINE"
);
},
{
closed = 1;
nodes = (
"323 614 LINE",
"477 246 LINE",
"178 246 LINE"
);
}
);
width = 662;
},
{
anchors = (
{
name = bottom;
position = "{274, 0}";
},
{
name = ogonek;
position = "{593, 0}";
},
{
name = top;
position = "{422, 700}";
}
);
background = {
anchors = (
{
name = bottom;
position = "{251, 0}";
},
{
name = ogonek;
position = "{570, 0}";
},
{
name = top;
position = "{399, 700}";
}
);
paths = (
{
closed = 1;
nodes = (
"7 0 LINE",
"123 192 LINE",
"465 192 LINE",
"505 0 LINE",
"570 0 LINE",
"424 700 LINE",
"374 700 LINE",
"-56 0 LINE"
);
},
{
closed = 1;
nodes = (
"379 614 LINE",
"455 246 LINE",
"156 246 LINE"
);
}
);
};
layerId = "7A9E6466-FE38-4215-AA78-C86323202F89";
paths = (
{
closed = 1;
nodes = (
"33 0 LINE",
"149 192 LINE",
"490 192 LINE",
"530 0 LINE",
"593 0 LINE",
"446 700 LINE",
"396 700 LINE",
"-33 0 LINE"
);
},
{
closed = 1;
nodes = (
"403 613 LINE",
"479 246 LINE",
"181 246 LINE"
);
}
);
width = 662;
},
{
anchors = (
{
name = bottom;
position = "{324, 0}";
},
{
name = ogonek;
position = "{698, 0}";
},
{
name = top;
position = "{472, 700}";
}
);
background = {
anchors = (
{
name = bottom;
position = "{301, 0}";
},
{
name = ogonek;
position = "{675, 0}";
},
{
name = top;
position = "{449, 700}";
}
);
paths = (
{
closed = 1;
nodes = (
"148 0 LINE",
"213 125 LINE",
"434 125 LINE",
"447 0 LINE",
"675 0 LINE",
"569 700 LINE",
"329 700 LINE",
"-74 0 LINE"
);
},
{
closed = 1;
nodes = (
"402 492 LINE",
"426 292 LINE",
"292 292 LINE"
);
}
);
};
layerId = "06050411-8C1E-4EA2-9807-ADB6E7423C7E";
paths = (
{
closed = 1;
nodes = (
"177 0 LINE",
"243 125 LINE",
"459 125 LINE",
"472 0 LINE",
"695 0 LINE",
"592 700 LINE",
"353 700 LINE",
"-55 0 LINE"
);
},
{
closed = 1;
nodes = (
"429 487 LINE",
"452 292 LINE",
"321 292 LINE"
);
}
);
width = 750;
},
{
anchors = (
{
name = bottom;
position = "{324, 0}";
},
{
name = ogonek;
position = "{698, 0}";
},
{
name = top;
position = "{472, 700}";
}
);
background = {
anchors = (
{
name = bottom;
position = "{301, 0}";
},
{
name = ogonek;
position = "{675, 0}";
},
{
name = top;
position = "{449, 700}";
}
);
paths = (
{
closed = 1;
nodes = (
"148 0 LINE",
"213 125 LINE",
"434 125 LINE",
"447 0 LINE",
"675 0 LINE",
"569 700 LINE",
"329 700 LINE",
"-74 0 LINE"
);
},
{
closed = 1;
nodes = (
"402 492 LINE",
"426 292 LINE",
"292 292 LINE"
);
}
);
};
layerId = "AA96BE86-BB68-49D4-94A1-31EA360FFFA2";
paths = (
{
closed = 1;
nodes = (
"177 0 LINE",
"243 125 LINE",
"459 125 LINE",
"472 0 LINE",
"695 0 LINE",
"592 700 LINE",
"353 700 LINE",
"-55 0 LINE"
);
},
{
closed = 1;
nodes = (
"429 487 LINE",
"452 292 LINE",
"321 292 LINE"
);
}
);
width = 750;
},
{
anchors = (
{
name = bottom;
position = "{274, 0}";
},
{
name = ogonek;
position = "{593, 0}";
},
{
name = top;
position = "{422, 700}";
}
);
background = {
anchors = (
{
name = bottom;
position = "{251, 0}";
},
{
name = ogonek;
position = "{570, 0}";
},
{
name = top;
position = "{399, 700}";
}
);
paths = (
{
closed = 1;
nodes = (
"7 0 LINE",
"123 192 LINE",
"465 192 LINE",
"505 0 LINE",
"570 0 LINE",
"424 700 LINE",
"374 700 LINE",
"-56 0 LINE"
);
},
{
closed = 1;
nodes = (
"379 614 LINE",
"455 246 LINE",
"156 246 LINE"
);
}
);
};
layerId = "11F4F77C-5A4A-42C7-A4D7-8096DDA1923A";
paths = (
{
closed = 1;
nodes = (
"33 0 LINE",
"149 192 LINE",
"490 192 LINE",
"530 0 LINE",
"593 0 LINE",
"446 700 LINE",
"396 700 LINE",
"-33 0 LINE"
);
},
{
closed = 1;
nodes = (
"403 613 LINE",
"479 246 LINE",
"181 246 LINE"
);
}
);
width = 662;
}
);
leftKerningGroup = A;
rightKerningGroup = A;
rightMetricsKey = "=|";
unicode = 0041;
},
{
color = 5;
glyphname = Aacute;
lastChange = "2019-12-20 09:13:02 +0000";
layers = (
{
components = (
{
name = A;
},
{
name = acutecomb.case;
transform = "{1, 0, 0, 1, 791, 0}";
}
);
layerId = "E991CF0C-7E17-4C48-B08A-36C8E595ED17";
width = 749;
},
{
components = (
{
name = A;
},
{
name = acutecomb.case;
transform = "{1, 0, 0, 1, 719, 0}";
}
);
layerId = "38FA562F-EF2C-4367-983C-F15B205514DC";
width = 662;
},
{
components = (
{
name = A;
},
{
name = acutecomb.case;
transform = "{1, 0, 0, 1, 791, 0}";
}
);
layerId = "805D0193-4943-450F-A7B0-5A59B60D8C7D";
width = 749;
},
{
components = (
{
name = A;
},
{
name = acutecomb.case;
transform = "{1, 0, 0, 1, 719, 0}";
}
);
layerId = "01407E7F-30D0-482B-A25C-5A532F071765";
width = 662;
},
{
background = {
anchors = (
{
name = bottom;
position = "{224, 0}";
},
{
name = ogonek;
position = "{543, 0}";
},
{
name = top;
position = "{373, 700}";
}
);
paths = (
{
closed = 1;
nodes = (
"-20 0 LINE",
"97 192 LINE",
"439 192 LINE",
"478 0 LINE",
"543 0 LINE",
"398 700 LINE",
"348 700 LINE",
"-83 0 LINE"
);
},
{
closed = 1;
nodes = (
"352 614 LINE",
"428 246 LINE",
"129 246 LINE"
);
},
{
closed = 1;
nodes = (
"415 796 LINE",
"548 952 LINE",
"488 952 LINE",
"361 796 LINE"
);
}
);
};
components = (
{
name = A;
},
{
name = acutecomb.case;
transform = "{1, 0, 0, 1, 814, 0}";
}
);
layerId = "7A9E6466-FE38-4215-AA78-C86323202F89";
width = 662;
},
{
background = {
anchors = (
{
name = bottom;
position = "{276, 0}";
},
{
name = ogonek;
position = "{650, 0}";
},
{
name = top;
position = "{425, 700}";
}
);
paths = (
{
closed = 1;
nodes = (
"123 0 LINE",
"189 125 LINE",
"410 125 LINE",
"422 0 LINE",
"650 0 LINE",
"545 700 LINE",
"305 700 LINE",
"-99 0 LINE"
);
},
{
closed = 1;
nodes = (
"378 492 LINE",
"401 292 LINE",
"267 292 LINE"
);
},
{
closed = 1;
nodes = (
"519 754 LINE",
"677 931 LINE",
"470 931 LINE",
"331 754 LINE"
);
}
);
};
components = (
{
name = A;
},
{
name = acutecomb.case;
transform = "{1, 0, 0, 1, 887, 0}";
}
);
layerId = "06050411-8C1E-4EA2-9807-ADB6E7423C7E";
width = 750;
},
{
background = {
anchors = (
{
name = bottom;
position = "{276, 0}";
},
{
name = ogonek;
position = "{650, 0}";
},
{
name = top;
position = "{425, 700}";
}
);
paths = (
{
closed = 1;
nodes = (
"123 0 LINE",
"189 125 LINE",
"410 125 LINE",
"422 0 LINE",
"650 0 LINE",
"545 700 LINE",
"305 700 LINE",
"-99 0 LINE"
);
},
{
closed = 1;
nodes = (
"378 492 LINE",
"401 292 LINE",
"267 292 LINE"
);
},
{
closed = 1;
nodes = (
"519 754 LINE",
"677 931 LINE",
"470 931 LINE",
"331 754 LINE"
);
}
);
};
components = (
{
name = A;
},
{
name = acutecomb.case;
transform = "{1, 0, 0, 1, 887, 0}";
}
);
layerId = "AA96BE86-BB68-49D4-94A1-31EA360FFFA2";
width = 750;
},
{
background = {
anchors = (
{
name = bottom;
position = "{224, 0}";
},
{
name = ogonek;
position = "{543, 0}";
},
{
name = top;
position = "{373, 700}";
}
);
paths = (
{
closed = 1;
nodes = (
"-20 0 LINE",
"97 192 LINE",
"439 192 LINE",
"478 0 LINE",
"543 0 LINE",
"398 700 LINE",
"348 700 LINE",
"-83 0 LINE"
);
},
{
closed = 1;
nodes = (
"352 614 LINE",
"428 246 LINE",
"129 246 LINE"
);
},
{
closed = 1;
nodes = (
"415 796 LINE",
"548 952 LINE",
"488 952 LINE",
"361 796 LINE"
);
}
);
};
components = (
{
name = A;
},
{
name = acutecomb.case;
transform = "{1, 0, 0, 1, 814, 0}";
}
);
layerId = "11F4F77C-5A4A-42C7-A4D7-8096DDA1923A";
width = 662;
}
);
leftKerningGroup = A;
rightKerningGroup = A;
unicode = 00C1;
},
{
color = 5;
glyphname = Abreve;
lastChange = "2019-12-20 09:13:02 +0000";
layers = (
{
components = (
{
name = A;
},
{
name = brevecomb.case;
transform = "{1, 0, 0, 1, 719, 0}";
}
);
layerId = "38FA562F-EF2C-4367-983C-F15B205514DC";
width = 662;
},
{
components = (
{
name = A;
},
{
name = brevecomb.case;
transform = "{1, 0, 0, 1, 791, 0}";
}
);
layerId = "E991CF0C-7E17-4C48-B08A-36C8E595ED17";
width = 749;
},
{
components = (
{
name = A;
},
{
name = brevecomb.case;
transform = "{1, 0, 0, 1, 791, 0}";
}
);
layerId = "805D0193-4943-450F-A7B0-5A59B60D8C7D";
width = 749;
},
{
components = (
{
name = A;
},
{
name = brevecomb.case;
transform = "{1, 0, 0, 1, 719, 0}";
}
);
layerId = "01407E7F-30D0-482B-A25C-5A532F071765";
width = 662;
},
{
background = {
anchors = (
{
name = bottom;
position = "{224, 0}";
},
{
name = ogonek;
position = "{543, 0}";
},
{
name = top;
position = "{416, 906}";
}
);
paths = (
{
closed = 1;
nodes = (
"-20 0 LINE",
"97 192 LINE",
"439 192 LINE",
"478 0 LINE",
"543 0 LINE",
"398 700 LINE",
"348 700 LINE",
"-83 0 LINE"
);
},
{
closed = 1;
nodes = (
"352 614 LINE",
"428 246 LINE",
"129 246 LINE"
);
},
{
closed = 1;
nodes = (
"493 791 OFFCURVE",
"578 864 OFFCURVE",
"593 952 CURVE",
"541 952 LINE",
"530 881 OFFCURVE",
"472 838 OFFCURVE",
"402 838 CURVE SMOOTH",
"326 838 OFFCURVE",
"292 888 OFFCURVE",
"308 952 CURVE",
"257 952 LINE",
"234 860 OFFCURVE",
"290 791 OFFCURVE",
"392 791 CURVE SMOOTH"
);
}
);
};
components = (
{
name = A;
},
{
name = brevecomb.case;
transform = "{1, 0, 0, 1, 814, 0}";
}
);
layerId = "7A9E6466-FE38-4215-AA78-C86323202F89";
width = 662;
},
{
background = {
anchors = (
{
name = bottom;
position = "{276, 0}";
},
{
name = ogonek;
position = "{650, 0}";
},
{
name = top;
position = "{469, 906}";
}
);
paths = (
{
closed = 1;
nodes = (
"123 0 LINE",
"189 125 LINE",
"410 125 LINE",
"422 0 LINE",
"650 0 LINE",
"545 700 LINE",
"305 700 LINE",
"-99 0 LINE"
);
},
{
closed = 1;
nodes = (
"378 492 LINE",
"401 292 LINE",
"267 292 LINE"
);
},
{
closed = 1;
nodes = (
"569 749 OFFCURVE",
"679 823 OFFCURVE",
"700 931 CURVE",
"532 931 LINE",
"527 898 OFFCURVE",
"500 878 OFFCURVE",
"463 878 CURVE SMOOTH",
"425 878 OFFCURVE",
"407 898 OFFCURVE",
"416 931 CURVE",
"248 931 LINE",
"223 821 OFFCURVE",
"297 749 OFFCURVE",
"435 749 CURVE SMOOTH"
);
}
);
};
components = (
{
name = A;
},
{
name = brevecomb.case;
transform = "{1, 0, 0, 1, 886, 0}";
}
);
layerId = "06050411-8C1E-4EA2-9807-ADB6E7423C7E";
width = 750;
},
{
background = {
anchors = (
{
name = bottom;
position = "{276, 0}";
},
{
name = ogonek;
position = "{650, 0}";
},
{
name = top;
position = "{469, 906}";
}
);
paths = (
{
closed = 1;
nodes = (
"123 0 LINE",
"189 125 LINE",
"410 125 LINE",
"422 0 LINE",
"650 0 LINE",
"545 700 LINE",
"305 700 LINE",
"-99 0 LINE"
);
},
{
closed = 1;
nodes = (
"378 492 LINE",
"401 292 LINE",
"267 292 LINE"
);
},
{
closed = 1;
nodes = (
"569 749 OFFCURVE",
"679 823 OFFCURVE",
"700 931 CURVE",
"532 931 LINE",
"527 898 OFFCURVE",
"500 878 OFFCURVE",
"463 878 CURVE SMOOTH",
"425 878 OFFCURVE",
"407 898 OFFCURVE",
"416 931 CURVE",
"248 931 LINE",
"223 821 OFFCURVE",
"297 749 OFFCURVE",
"435 749 CURVE SMOOTH"
);
}
);
};
components = (
{
name = A;
},
{
name = brevecomb.case;
transform = "{1, 0, 0, 1, 886, 0}";
}
);
layerId = "AA96BE86-BB68-49D4-94A1-31EA360FFFA2";
width = 750;
},
{
background = {
anchors = (
{
name = bottom;
position = "{224, 0}";
},
{
name = ogonek;
position = "{543, 0}";
},
{
name = top;
position = "{416, 906}";
}
);
paths = (
{
closed = 1;
nodes = (
"-20 0 LINE",
"97 192 LINE",
"439 192 LINE",
"478 0 LINE",
"543 0 LINE",
"398 700 LINE",
"348 700 LINE",
"-83 0 LINE"
);
},
{
closed = 1;
nodes = (
"352 614 LINE",
"428 246 LINE",
"129 246 LINE"
);
},
{
closed = 1;
nodes = (
"493 791 OFFCURVE",
"578 864 OFFCURVE",
"593 952 CURVE",
"541 952 LINE",
"530 881 OFFCURVE",
"472 838 OFFCURVE",
"402 838 CURVE SMOOTH",
"326 838 OFFCURVE",
"292 888 OFFCURVE",
"308 952 CURVE",
"257 952 LINE",
"234 860 OFFCURVE",
"290 791 OFFCURVE",
"392 791 CURVE SMOOTH"
);
}
);
};
components = (
{
name = A;
},
{
name = brevecomb.case;
transform = "{1, 0, 0, 1, 814, 0}";
}
);
layerId = "11F4F77C-5A4A-42C7-A4D7-8096DDA1923A";
width = 662;
}
);
leftKerningGroup = A;
rightKerningGroup = A;
unicode = 0102;
},
{
color = 5;
glyphname = Abreveacute;
lastChange = "2019-12-20 09:13:02 +0000";
layers = (
{
components = (
{
name = A;
},
{
name = brevecomb.case;
transform = "{1, 0, 0, 1, 719, 0}";
},
{
name = acutecomb.case;
transform = "{1, 0, 0, 1, 719, 206}";
}
);
layerId = "38FA562F-EF2C-4367-983C-F15B205514DC";
width = 662;
},
{
components = (
{
name = A;
},
{
name = brevecomb.case;
transform = "{1, 0, 0, 1, 791, 0}";
},
{
name = acutecomb.case;
transform = "{1, 0, 0, 1, 791, 206}";
}
);
layerId = "E991CF0C-7E17-4C48-B08A-36C8E595ED17";
width = 749;
},
{
components = (
{
name = A;
},
{
name = brevecomb.case;
transform = "{1, 0, 0, 1, 791, 0}";
},
{
name = acutecomb.case;
transform = "{1, 0, 0, 1, 791, 206}";
}
);
layerId = "805D0193-4943-450F-A7B0-5A59B60D8C7D";
width = 749;
},
{
components = (
{
name = A;
},
{
name = brevecomb.case;
transform = "{1, 0, 0, 1, 719, 0}";
},
{
name = acutecomb.case;
transform = "{1, 0, 0, 1, 719, 206}";
}
);
layerId = "01407E7F-30D0-482B-A25C-5A532F071765";
width = 662;
},
{
background = {
anchors = (
{
name = bottom;
position = "{202, 0}";
},
{
name = ogonek;
position = "{521, 0}";
},
{
name = top;
position = "{395, 906}";
}
);
paths = (
{
closed = 1;
nodes = (
"-42 0 LINE",
"75 192 LINE",
"417 192 LINE",
"456 0 LINE",
"521 0 LINE",
"376 700 LINE",
"326 700 LINE",
"-105 0 LINE"
);
},
{
closed = 1;
nodes = (
"330 614 LINE",
"406 246 LINE",
"107 246 LINE"
);
},
{
closed = 1;
nodes = (
"471 791 OFFCURVE",
"557 864 OFFCURVE",
"571 952 CURVE",
"519 952 LINE",
"508 881 OFFCURVE",
"450 838 OFFCURVE",
"380 838 CURVE SMOOTH",
"304 838 OFFCURVE",
"270 888 OFFCURVE",
"286 952 CURVE",
"235 952 LINE",
"212 860 OFFCURVE",
"268 791 OFFCURVE",
"370 791 CURVE SMOOTH"
);
},
{
closed = 1;
nodes = (
"437 1002 LINE",
"570 1158 LINE",
"510 1158 LINE",
"383 1002 LINE"
);
}
);
};
components = (
{
name = A;
},
{
name = brevecomb.case;
transform = "{1, 0, 0, 1, 814, 0}";
},
{
name = acutecomb.case;
transform = "{1, 0, 0, 1, 859, 206}";
}
);
layerId = "7A9E6466-FE38-4215-AA78-C86323202F89";
width = 662;
},
{
background = {
anchors = (
{
name = bottom;
position = "{254, 0}";
},
{
name = ogonek;
position = "{628, 0}";
},
{
name = top;
position = "{447, 906}";
}
);
paths = (
{
closed = 1;
nodes = (
"101 0 LINE",
"167 125 LINE",
"388 125 LINE",
"400 0 LINE",
"628 0 LINE",
"523 700 LINE",
"283 700 LINE",
"-121 0 LINE"
);
},
{
closed = 1;
nodes = (
"356 492 LINE",
"379 292 LINE",
"245 292 LINE"
);
},
{
closed = 1;
nodes = (
"547 749 OFFCURVE",
"657 823 OFFCURVE",
"678 931 CURVE",
"510 931 LINE",
"505 898 OFFCURVE",
"478 878 OFFCURVE",
"441 878 CURVE SMOOTH",
"403 878 OFFCURVE",
"385 898 OFFCURVE",
"394 931 CURVE",
"226 931 LINE",
"201 821 OFFCURVE",
"275 749 OFFCURVE",
"413 749 CURVE SMOOTH"
);
},
{
closed = 1;
nodes = (
"541 960 LINE",
"699 1137 LINE",
"492 1137 LINE",
"353 960 LINE"
);
}
);
};
components = (
{
name = A;
},
{
name = brevecomb.case;
transform = "{1, 0, 0, 1, 886, 0}";
},
{
name = acutecomb.case;
transform = "{1, 0, 0, 1, 930, 206}";
}
);
layerId = "06050411-8C1E-4EA2-9807-ADB6E7423C7E";
width = 750;
},
{
background = {
anchors = (
{
name = bottom;
position = "{254, 0}";
},
{
name = ogonek;
position = "{628, 0}";
},
{
name = top;
position = "{447, 906}";
}
);
paths = (
{
closed = 1;
nodes = (
"101 0 LINE",
"167 125 LINE",
"388 125 LINE",
"400 0 LINE",
"628 0 LINE",
"523 700 LINE",
"283 700 LINE",
"-121 0 LINE"
);
},
{
closed = 1;
nodes = (
"356 492 LINE",
"379 292 LINE",
"245 292 LINE"
);
},
{
closed = 1;
nodes = (
"547 749 OFFCURVE",
"657 823 OFFCURVE",
"678 931 CURVE",
"510 931 LINE",
"505 898 OFFCURVE",
"478 878 OFFCURVE",
"441 878 CURVE SMOOTH",
"403 878 OFFCURVE",
"385 898 OFFCURVE",
"394 931 CURVE",
"226 931 LINE",
"201 821 OFFCURVE",
"275 749 OFFCURVE",
"413 749 CURVE SMOOTH"
);
},
{
closed = 1;
nodes = (
"541 960 LINE",
"699 1137 LINE",
"492 1137 LINE",
"353 960 LINE"
);
}
);
};
components = (
{
name = A;
},
{
name = brevecomb.case;
transform = "{1, 0, 0, 1, 886, 0}";
},
{
name = acutecomb.case;
transform = "{1, 0, 0, 1, 930, 206}";
}
);
layerId = "AA96BE86-BB68-49D4-94A1-31EA360FFFA2";
width = 750;
},
{
background = {
anchors = (
{
name = bottom;
position = "{202, 0}";
},
{
name = ogonek;
position = "{521, 0}";
},
{
name = top;
position = "{395, 906}";
}
);
paths = (
{
closed = 1;
nodes = (
"-42 0 LINE",
"75 192 LINE",
"417 192 LINE",
"456 0 LINE",
"521 0 LINE",
"376 700 LINE",
"326 700 LINE",
"-105 0 LINE"
);
},
{
closed = 1;
nodes = (
"330 614 LINE",
"406 246 LINE",
"107 246 LINE"
);
},
{
closed = 1;
nodes = (
"471 791 OFFCURVE",
"557 864 OFFCURVE",
"571 952 CURVE",
"519 952 LINE",
"508 881 OFFCURVE",
"450 838 OFFCURVE",
"380 838 CURVE SMOOTH",
"304 838 OFFCURVE",
"270 888 OFFCURVE",
"286 952 CURVE",
"235 952 LINE",
"212 860 OFFCURVE",
"268 791 OFFCURVE",
"370 791 CURVE SMOOTH"
);
},
{
closed = 1;
nodes = (
"437 1002 LINE",
"570 1158 LINE",
"510 1158 LINE",
"383 1002 LINE"
);
}
);
};
components = (
{
name = A;
},
{
name = brevecomb.case;
transform = "{1, 0, 0, 1, 814, 0}";
},
{
name = acutecomb.case;
transform = "{1, 0, 0, 1, 859, 206}";
}
);
layerId = "11F4F77C-5A4A-42C7-A4D7-8096DDA1923A";
width = 662;
}
);
leftKerningGroup = A;
rightKerningGroup = A;
unicode = 1EAE;
},
{
color = 5;
glyphname = Abrevedotbelow;
lastChange = "2019-12-20 09:13:02 +0000";
layers = (
{
components = (
{
name = A;
},
{
name = dotbelowcomb;
transform = "{1, 0, 0, 1, 618, 0}";
},
{
name = brevecomb.case;
transform = "{1, 0, 0, 1, 719, 0}";
}
);
layerId = "38FA562F-EF2C-4367-983C-F15B205514DC";
width = 662;
},
{
components = (
{
name = A;
},
{
name = dotbelowcomb;
transform = "{1, 0, 0, 1, 694, 0}";
},
{
name = brevecomb.case;
transform = "{1, 0, 0, 1, 791, 0}";
}
);
layerId = "E991CF0C-7E17-4C48-B08A-36C8E595ED17";
width = 749;
},
{
components = (
{
name = A;
},
{
name = dotbelowcomb;
transform = "{1, 0, 0, 1, 694, 0}";
},
{
name = brevecomb.case;
transform = "{1, 0, 0, 1, 791, 0}";
}
);
layerId = "805D0193-4943-450F-A7B0-5A59B60D8C7D";
width = 749;
},
{
components = (
{
name = A;
},
{
name = dotbelowcomb;
transform = "{1, 0, 0, 1, 618, 0}";
},
{
name = brevecomb.case;
transform = "{1, 0, 0, 1, 719, 0}";
}
);
layerId = "01407E7F-30D0-482B-A25C-5A532F071765";
width = 662;
},
{
background = {
anchors = (
{
name = bottom;
position = "{249, 0}";
},
{
name = ogonek;
position = "{568, 0}";
},
{
name = top;
position = "{441, 906}";
}
);
paths = (
{
closed = 1;
nodes = (
"5 0 LINE",
"122 192 LINE",
"464 192 LINE",
"503 0 LINE",
"568 0 LINE",
"423 700 LINE",
"373 700 LINE",
"-58 0 LINE"
);
},
{
closed = 1;
nodes = (
"377 614 LINE",
"453 246 LINE",
"154 246 LINE"
);
},
{
closed = 1;
nodes = (
"225 -236 OFFCURVE",
"250 -215 OFFCURVE",
"256 -189 CURVE SMOOTH",
"261 -163 OFFCURVE",
"245 -142 OFFCURVE",
"219 -142 CURVE SMOOTH",
"193 -142 OFFCURVE",
"167 -163 OFFCURVE",
"162 -189 CURVE SMOOTH",
"156 -215 OFFCURVE",
"173 -236 OFFCURVE",
"199 -236 CURVE SMOOTH"
);
},
{
closed = 1;
nodes = (
"518 791 OFFCURVE",
"604 864 OFFCURVE",
"618 952 CURVE",
"566 952 LINE",
"555 881 OFFCURVE",
"497 838 OFFCURVE",
"427 838 CURVE SMOOTH",
"351 838 OFFCURVE",
"317 888 OFFCURVE",
"333 952 CURVE",
"282 952 LINE",
"259 860 OFFCURVE",
"315 791 OFFCURVE",
"417 791 CURVE SMOOTH"
);
}
);
};
components = (
{
name = A;
},
{
name = dotbelowcomb;
transform = "{1, 0, 0, 1, 527, 0}";
},
{
name = brevecomb.case;
transform = "{1, 0, 0, 1, 814, 0}";
}
);
layerId = "7A9E6466-FE38-4215-AA78-C86323202F89";
width = 662;
},
{
background = {
anchors = (
{
name = bottom;
position = "{306, 0}";
},
{
name = ogonek;
position = "{680, 0}";
},
{
name = top;
position = "{498, 906}";
}
);
paths = (
{
closed = 1;
nodes = (
"153 0 LINE",
"218 125 LINE",
"439 125 LINE",
"452 0 LINE",
"680 0 LINE",
"574 700 LINE",
"334 700 LINE",
"-69 0 LINE"
);
},
{
closed = 1;
nodes = (
"407 492 LINE",
"431 292 LINE",
"297 292 LINE"
);
},
{
closed = 1;
nodes = (
"308 -279 OFFCURVE",
"370 -239 OFFCURVE",
"384 -173 CURVE SMOOTH",
"398 -107 OFFCURVE",
"353 -67 OFFCURVE",
"291 -67 CURVE SMOOTH",
"229 -67 OFFCURVE",
"168 -107 OFFCURVE",
"154 -173 CURVE SMOOTH",
"140 -239 OFFCURVE",
"184 -279 OFFCURVE",
"246 -279 CURVE SMOOTH"
);
},
{
closed = 1;
nodes = (
"599 749 OFFCURVE",
"709 823 OFFCURVE",
"730 931 CURVE",
"562 931 LINE",
"557 898 OFFCURVE",
"529 878 OFFCURVE",
"492 878 CURVE SMOOTH",
"454 878 OFFCURVE",
"437 898 OFFCURVE",
"446 931 CURVE",
"278 931 LINE",
"252 821 OFFCURVE",
"327 749 OFFCURVE",
"465 749 CURVE SMOOTH"
);
}
);
};
components = (
{
name = A;
},
{
name = dotbelowcomb;
transform = "{1, 0, 0, 1, 606, 0}";
},
{
name = brevecomb.case;
transform = "{1, 0, 0, 1, 886, 0}";
}
);
layerId = "06050411-8C1E-4EA2-9807-ADB6E7423C7E";
width = 750;
},
{
background = {
anchors = (
{
name = bottom;
position = "{306, 0}";
},
{
name = ogonek;
position = "{680, 0}";
},
{
name = top;
position = "{498, 906}";
}
);
paths = (
{
closed = 1;
nodes = (
"153 0 LINE",
"218 125 LINE",
"439 125 LINE",
"452 0 LINE",
"680 0 LINE",
"574 700 LINE",
"334 700 LINE",
"-69 0 LINE"
);
},
{
closed = 1;
nodes = (
"407 492 LINE",
"431 292 LINE",
"297 292 LINE"
);
},
{
closed = 1;
nodes = (
"308 -279 OFFCURVE",
"370 -239 OFFCURVE",
"384 -173 CURVE SMOOTH",
"398 -107 OFFCURVE",
"353 -67 OFFCURVE",
"291 -67 CURVE SMOOTH",
"229 -67 OFFCURVE",
"168 -107 OFFCURVE",
"154 -173 CURVE SMOOTH",
"140 -239 OFFCURVE",
"184 -279 OFFCURVE",
"246 -279 CURVE SMOOTH"
);
},
{
closed = 1;
nodes = (
"599 749 OFFCURVE",
"709 823 OFFCURVE",
"730 931 CURVE",
"562 931 LINE",
"557 898 OFFCURVE",
"529 878 OFFCURVE",
"492 878 CURVE SMOOTH",
"454 878 OFFCURVE",
"437 898 OFFCURVE",
"446 931 CURVE",
"278 931 LINE",
"252 821 OFFCURVE",
"327 749 OFFCURVE",
"465 749 CURVE SMOOTH"
);
}
);
};
components = (
{
name = A;
},
{
name = dotbelowcomb;
transform = "{1, 0, 0, 1, 606, 0}";
},
{
name = brevecomb.case;
transform = "{1, 0, 0, 1, 886, 0}";
}
);
layerId = "AA96BE86-BB68-49D4-94A1-31EA360FFFA2";
width = 750;
},
{
background = {
anchors = (
{
name = bottom;
position = "{249, 0}";
},
{
name = ogonek;
position = "{568, 0}";
},
{
name = top;
position = "{441, 906}";
}
);
paths = (
{
closed = 1;
nodes = (
"5 0 LINE",
"122 192 LINE",
"464 192 LINE",
"503 0 LINE",
"568 0 LINE",
"423 700 LINE",
"373 700 LINE",
"-58 0 LINE"
);
},
{
closed = 1;
nodes = (
"377 614 LINE",
"453 246 LINE",
"154 246 LINE"
);
},
{
closed = 1;
nodes = (
"225 -236 OFFCURVE",
"250 -215 OFFCURVE",
"256 -189 CURVE SMOOTH",
"261 -163 OFFCURVE",
"245 -142 OFFCURVE",
"219 -142 CURVE SMOOTH",
"193 -142 OFFCURVE",
"167 -163 OFFCURVE",
"162 -189 CURVE SMOOTH",
"156 -215 OFFCURVE",
"173 -236 OFFCURVE",
"199 -236 CURVE SMOOTH"
);
},
{
closed = 1;
nodes = (
"518 791 OFFCURVE",
"604 864 OFFCURVE",
"618 952 CURVE",
"566 952 LINE",
"555 881 OFFCURVE",
"497 838 OFFCURVE",
"427 838 CURVE SMOOTH",
"351 838 OFFCURVE",
"317 888 OFFCURVE",
"333 952 CURVE",
"282 952 LINE",
"259 860 OFFCURVE",
"315 791 OFFCURVE",
"417 791 CURVE SMOOTH"
);
}
);
};
components = (
{
name = A;
},
{
name = dotbelowcomb;
transform = "{1, 0, 0, 1, 527, 0}";
},
{
name = brevecomb.case;
transform = "{1, 0, 0, 1, 814, 0}";
}
);
layerId = "11F4F77C-5A4A-42C7-A4D7-8096DDA1923A";
width = 662;
}
);
leftKerningGroup = A;
rightKerningGroup = A;
unicode = 1EB6;
},
{
color = 5;
glyphname = Abrevegrave;
lastChange = "2019-12-20 09:13:02 +0000";
layers = (
{
components = (
{
name = A;
},
{
name = brevecomb.case;
transform = "{1, 0, 0, 1, 719, 0}";
},
{
name = gravecomb.case;
transform = "{1, 0, 0, 1, 719, 206}";
}
);
layerId = "38FA562F-EF2C-4367-983C-F15B205514DC";
width = 662;
},
{
components = (
{
name = A;
},
{
name = brevecomb.case;
transform = "{1, 0, 0, 1, 791, 0}";
},
{
name = gravecomb.case;
transform = "{1, 0, 0, 1, 792, 206}";
}
);
layerId = "E991CF0C-7E17-4C48-B08A-36C8E595ED17";
width = 749;
},
{
components = (
{
name = A;
},
{
name = brevecomb.case;
transform = "{1, 0, 0, 1, 791, 0}";
},
{
name = gravecomb.case;
transform = "{1, 0, 0, 1, 792, 206}";
}
);
layerId = "805D0193-4943-450F-A7B0-5A59B60D8C7D";
width = 749;
},
{
components = (
{
name = A;
},
{
name = brevecomb.case;
transform = "{1, 0, 0, 1, 719, 0}";
},
{
name = gravecomb.case;
transform = "{1, 0, 0, 1, 719, 206}";
}
);
layerId = "01407E7F-30D0-482B-A25C-5A532F071765";
width = 662;
},
{
background = {
anchors = (
{
name = bottom;
position = "{202, 0}";
},
{
name = ogonek;
position = "{521, 0}";
},
{
name = top;
position = "{395, 906}";
}
);
paths = (
{
closed = 1;
nodes = (
"-42 0 LINE",
"75 192 LINE",
"417 192 LINE",
"456 0 LINE",
"521 0 LINE",
"376 700 LINE",
"326 700 LINE",
"-105 0 LINE"
);
},
{
closed = 1;
nodes = (
"330 614 LINE",
"406 246 LINE",
"107 246 LINE"
);
},
{
closed = 1;
nodes = (
"471 791 OFFCURVE",
"557 864 OFFCURVE",
"571 952 CURVE",
"519 952 LINE",
"508 881 OFFCURVE",
"450 838 OFFCURVE",
"380 838 CURVE SMOOTH",
"304 838 OFFCURVE",
"270 888 OFFCURVE",
"286 952 CURVE",
"235 952 LINE",
"212 860 OFFCURVE",
"268 791 OFFCURVE",
"370 791 CURVE SMOOTH"
);
},
{
closed = 1;
nodes = (
"455 1002 LINE",
"395 1158 LINE",
"332 1158 LINE",
"399 1002 LINE"
);
}
);
};
components = (
{
name = A;
},
{
name = brevecomb.case;
transform = "{1, 0, 0, 1, 814, 0}";
},
{
name = gravecomb.case;
transform = "{1, 0, 0, 1, 859, 206}";
}
);
layerId = "7A9E6466-FE38-4215-AA78-C86323202F89";
width = 662;
},
{
background = {
anchors = (
{
name = bottom;
position = "{254, 0}";
},
{
name = ogonek;
position = "{628, 0}";
},
{
name = top;
position = "{447, 906}";
}
);
paths = (
{
closed = 1;
nodes = (
"101 0 LINE",
"167 125 LINE",
"388 125 LINE",
"400 0 LINE",
"628 0 LINE",
"523 700 LINE",
"283 700 LINE",
"-121 0 LINE"
);
},
{
closed = 1;
nodes = (
"356 492 LINE",
"379 292 LINE",
"245 292 LINE"
);
},
{
closed = 1;
nodes = (
"547 749 OFFCURVE",
"657 823 OFFCURVE",
"678 931 CURVE",
"510 931 LINE",
"505 898 OFFCURVE",
"478 878 OFFCURVE",
"441 878 CURVE SMOOTH",
"403 878 OFFCURVE",
"385 898 OFFCURVE",
"394 931 CURVE",
"226 931 LINE",
"201 821 OFFCURVE",
"275 749 OFFCURVE",
"413 749 CURVE SMOOTH"
);
},
{
closed = 1;
nodes = (
"563 960 LINE",
"502 1137 LINE",
"291 1137 LINE",
"370 960 LINE"
);
}
);
};
components = (
{
name = A;
},
{
name = brevecomb.case;
transform = "{1, 0, 0, 1, 886, 0}";
},
{
name = gravecomb.case;
transform = "{1, 0, 0, 1, 930, 206}";
}
);
layerId = "06050411-8C1E-4EA2-9807-ADB6E7423C7E";
width = 750;
},
{
background = {
anchors = (
{
name = bottom;
position = "{254, 0}";
},
{
name = ogonek;
position = "{628, 0}";
},
{
name = top;
position = "{447, 906}";
}
);
paths = (
{
closed = 1;
nodes = (
"101 0 LINE",
"167 125 LINE",
"388 125 LINE",
"400 0 LINE",
"628 0 LINE",
"523 700 LINE",
"283 700 LINE",
"-121 0 LINE"
);
},
{
closed = 1;
nodes = (
"356 492 LINE",
"379 292 LINE",
"245 292 LINE"
);
},
{
closed = 1;
nodes = (
"547 749 OFFCURVE",
"657 823 OFFCURVE",
"678 931 CURVE",
"510 931 LINE",
"505 898 OFFCURVE",
"478 878 OFFCURVE",
"441 878 CURVE SMOOTH",
"403 878 OFFCURVE",
"385 898 OFFCURVE",
"394 931 CURVE",
"226 931 LINE",
"201 821 OFFCURVE",
"275 749 OFFCURVE",
"413 749 CURVE SMOOTH"
);
},
{
closed = 1;
nodes = (
"563 960 LINE",
"502 1137 LINE",
"291 1137 LINE",
"370 960 LINE"
);
}
);
};
components = (
{
name = A;
},
{
name = brevecomb.case;
transform = "{1, 0, 0, 1, 886, 0}";
},
{
name = gravecomb.case;
transform = "{1, 0, 0, 1, 930, 206}";
}
);
layerId = "AA96BE86-BB68-49D4-94A1-31EA360FFFA2";
width = 750;
},
{
background = {
anchors = (
{
name = bottom;
position = "{202, 0}";
},
{
name = ogonek;
position = "{521, 0}";
},
{
name = top;
position = "{395, 906}";
}
);
paths = (
{
closed = 1;
nodes = (
"-42 0 LINE",
"75 192 LINE",
"417 192 LINE",
"456 0 LINE",
"521 0 LINE",
"376 700 LINE",
"326 700 LINE",
"-105 0 LINE"
);
},
{
closed = 1;
nodes = (
"330 614 LINE",
"406 246 LINE",
"107 246 LINE"
);
},
{
closed = 1;
nodes = (
"471 791 OFFCURVE",
"557 864 OFFCURVE",
"571 952 CURVE",
"519 952 LINE",
"508 881 OFFCURVE",
"450 838 OFFCURVE",
"380 838 CURVE SMOOTH",
"304 838 OFFCURVE",
"270 888 OFFCURVE",
"286 952 CURVE",
"235 952 LINE",
"212 860 OFFCURVE",
"268 791 OFFCURVE",
"370 791 CURVE SMOOTH"
);
},
{
closed = 1;
nodes = (
"455 1002 LINE",
"395 1158 LINE",
"332 1158 LINE",
"399 1002 LINE"
);
}
);
};
components = (
{
name = A;
},
{
name = brevecomb.case;
transform = "{1, 0, 0, 1, 814, 0}";
},
{
name = gravecomb.case;
transform = "{1, 0, 0, 1, 859, 206}";
}
);
layerId = "11F4F77C-5A4A-42C7-A4D7-8096DDA1923A";
width = 662;
}
);
leftKerningGroup = A;
rightKerningGroup = A;
unicode = 1EB0;
},
{
color = 5;
glyphname = Abrevehookabove;
lastChange = "2019-12-20 09:13:02 +0000";
layers = (
{
components = (
{
name = A;
},
{
name = brevecomb.case;
transform = "{1, 0, 0, 1, 719, 0}";
},
{
name = hookabovecomb.case;
transform = "{1, 0, 0, 1, 719, 206}";
}
);
layerId = "38FA562F-EF2C-4367-983C-F15B205514DC";
width = 662;
},
{
components = (
{
name = A;
},
{
name = brevecomb.case;
transform = "{1, 0, 0, 1, 791, 0}";
},
{
name = hookabovecomb.case;
transform = "{1, 0, 0, 1, 787, 206}";
}
);
layerId = "E991CF0C-7E17-4C48-B08A-36C8E595ED17";
width = 749;
},
{
components = (
{
name = A;
},
{
name = brevecomb.case;
transform = "{1, 0, 0, 1, 791, 0}";
},
{
name = hookabovecomb.case;
transform = "{1, 0, 0, 1, 787, 206}";
}
);
layerId = "805D0193-4943-450F-A7B0-5A59B60D8C7D";
width = 749;
},
{
components = (
{
name = A;
},
{
name = brevecomb.case;
transform = "{1, 0, 0, 1, 719, 0}";
},
{
name = hookabovecomb.case;
transform = "{1, 0, 0, 1, 719, 206}";
}
);
layerId = "01407E7F-30D0-482B-A25C-5A532F071765";
width = 662;
},
{
background = {
anchors = (
{
name = bottom;
position = "{196, 0}";
},
{
name = ogonek;
position = "{515, 0}";
},
{
name = top;
position = "{388, 906}";
}
);
paths = (
{
closed = 1;
nodes = (
"-48 0 LINE",
"68 192 LINE",
"410 192 LINE",
"450 0 LINE",
"515 0 LINE",
"369 700 LINE",
"319 700 LINE",
"-111 0 LINE"
);
},
{
closed = 1;
nodes = (
"324 614 LINE",
"400 246 LINE",
"101 246 LINE"
);
},
{
closed = 1;
nodes = (
"465 791 OFFCURVE",
"550 864 OFFCURVE",
"565 952 CURVE",
"513 952 LINE",
"502 881 OFFCURVE",
"444 838 OFFCURVE",
"374 838 CURVE SMOOTH",
"298 838 OFFCURVE",
"263 888 OFFCURVE",
"280 952 CURVE",
"229 952 LINE",
"205 860 OFFCURVE",
"262 791 OFFCURVE",
"364 791 CURVE SMOOTH"
);
},
{
closed = 1;
nodes = (
"425 1002 LINE",
"414 1038 OFFCURVE",
"425 1050 OFFCURVE",
"474 1068 CURVE SMOOTH",
"535 1091 OFFCURVE",
"556 1107 OFFCURVE",
"564 1143 CURVE SMOOTH",
"573 1186 OFFCURVE",
"526 1218 OFFCURVE",
"455 1218 CURVE SMOOTH",
"413 1218 OFFCURVE",
"371 1210 OFFCURVE",
"334 1195 CURVE",
"344 1158 LINE",
"373 1170 OFFCURVE",
"411 1177 OFFCURVE",
"445 1177 CURVE SMOOTH",
"490 1177 OFFCURVE",
"519 1160 OFFCURVE",
"514 1134 CURVE SMOOTH",
"509 1113 OFFCURVE",
"497 1107 OFFCURVE",
"443 1090 CURVE SMOOTH",
"383 1071 OFFCURVE",
"364 1044 OFFCURVE",
"378 1002 CURVE"
);
}
);
};
components = (
{
name = A;
},
{
name = brevecomb.case;
transform = "{1, 0, 0, 1, 814, 0}";
},
{
name = hookabovecomb.case;
transform = "{1, 0, 0, 1, 866, 206}";
}
);
layerId = "7A9E6466-FE38-4215-AA78-C86323202F89";
width = 662;
},
{
background = {
anchors = (
{
name = bottom;
position = "{250, 0}";
},
{
name = ogonek;
position = "{624, 0}";
},
{
name = top;
position = "{443, 906}";
}
);
paths = (
{
closed = 1;
nodes = (
"97 0 LINE",
"163 125 LINE",
"384 125 LINE",
"396 0 LINE",
"624 0 LINE",
"519 700 LINE",
"279 700 LINE",
"-125 0 LINE"
);
},
{
closed = 1;
nodes = (
"352 492 LINE",
"375 292 LINE",
"241 292 LINE"
);
},
{
closed = 1;
nodes = (
"543 749 OFFCURVE",
"653 823 OFFCURVE",
"674 931 CURVE",
"506 931 LINE",
"501 898 OFFCURVE",
"474 878 OFFCURVE",
"437 878 CURVE SMOOTH",
"399 878 OFFCURVE",
"381 898 OFFCURVE",
"390 931 CURVE",
"222 931 LINE",
"197 821 OFFCURVE",
"271 749 OFFCURVE",
"409 749 CURVE SMOOTH"
);
},
{
closed = 1;
nodes = (
"515 960 LINE",
"509 974 OFFCURVE",
"510 985 OFFCURVE",
"554 1004 CURVE SMOOTH",
"605 1026 OFFCURVE",
"626 1049 OFFCURVE",
"634 1086 CURVE SMOOTH",
"646 1142 OFFCURVE",
"594 1176 OFFCURVE",
"500 1176 CURVE SMOOTH",
"449 1176 OFFCURVE",
"388 1164 OFFCURVE",
"348 1145 CURVE",
"355 1051 LINE",
"381 1062 OFFCURVE",
"403 1069 OFFCURVE",
"436 1069 CURVE SMOOTH",
"455 1069 OFFCURVE",
"470 1065 OFFCURVE",
"469 1058 CURVE SMOOTH",
"467 1050 OFFCURVE",
"461 1047 OFFCURVE",
"434 1040 CURVE SMOOTH",
"389 1028 OFFCURVE",
"372 1000 OFFCURVE",
"389 960 CURVE"
);
}
);
};
components = (
{
name = A;
},
{
name = brevecomb.case;
transform = "{1, 0, 0, 1, 886, 0}";
},
{
name = hookabovecomb.case;
transform = "{1, 0, 0, 1, 931, 206}";
}
);
layerId = "06050411-8C1E-4EA2-9807-ADB6E7423C7E";
width = 750;
},
{
background = {
anchors = (
{
name = bottom;
position = "{250, 0}";
},
{
name = ogonek;
position = "{624, 0}";
},
{
name = top;
position = "{443, 906}";
}
);
paths = (
{
closed = 1;
nodes = (
"97 0 LINE",
"163 125 LINE",
"384 125 LINE",
"396 0 LINE",
"624 0 LINE",
"519 700 LINE",
"279 700 LINE",
"-125 0 LINE"
);
},
{
closed = 1;
nodes = (
"352 492 LINE",
"375 292 LINE",
"241 292 LINE"
);
},
{
closed = 1;
nodes = (
"543 749 OFFCURVE",
"653 823 OFFCURVE",
"674 931 CURVE",
"506 931 LINE",
"501 898 OFFCURVE",
"474 878 OFFCURVE",
"437 878 CURVE SMOOTH",
"399 878 OFFCURVE",
"381 898 OFFCURVE",
"390 931 CURVE",
"222 931 LINE",
"197 821 OFFCURVE",
"271 749 OFFCURVE",
"409 749 CURVE SMOOTH"
);
},
{
closed = 1;
nodes = (
"515 960 LINE",
"509 974 OFFCURVE",
"510 985 OFFCURVE",
"554 1004 CURVE SMOOTH",
"605 1026 OFFCURVE",
"626 1049 OFFCURVE",
"634 1086 CURVE SMOOTH",
"646 1142 OFFCURVE",
"594 1176 OFFCURVE",
"500 1176 CURVE SMOOTH",
"449 1176 OFFCURVE",
"388 1164 OFFCURVE",
"348 1145 CURVE",
"355 1051 LINE",
"381 1062 OFFCURVE",
"403 1069 OFFCURVE",
"436 1069 CURVE SMOOTH",
"455 1069 OFFCURVE",
"470 1065 OFFCURVE",
"469 1058 CURVE SMOOTH",
"467 1050 OFFCURVE",
"461 1047 OFFCURVE",
"434 1040 CURVE SMOOTH",
"389 1028 OFFCURVE",
"372 1000 OFFCURVE",
"389 960 CURVE"
);
}
);
};
components = (
{
name = A;
},
{
name = brevecomb.case;
transform = "{1, 0, 0, 1, 886, 0}";
},
{
name = hookabovecomb.case;
transform = "{1, 0, 0, 1, 931, 206}";
}
);
layerId = "AA96BE86-BB68-49D4-94A1-31EA360FFFA2";
width = 750;
},
{
background = {
anchors = (
{
name = bottom;
position = "{196, 0}";
},
{
name = ogonek;
position = "{515, 0}";
},
{
name = top;
position = "{388, 906}";
}
);
paths = (
{
closed = 1;
nodes = (
"-48 0 LINE",
"68 192 LINE",
"410 192 LINE",
"450 0 LINE",
"515 0 LINE",
"369 700 LINE",
"319 700 LINE",
"-111 0 LINE"
);
},
{
closed = 1;
nodes = (
"324 614 LINE",
"400 246 LINE",
"101 246 LINE"
);
},
{
closed = 1;
nodes = (
"465 791 OFFCURVE",
"550 864 OFFCURVE",
"565 952 CURVE",
"513 952 LINE",
"502 881 OFFCURVE",
"444 838 OFFCURVE",
"374 838 CURVE SMOOTH",
"298 838 OFFCURVE",
"263 888 OFFCURVE",
"280 952 CURVE",
"229 952 LINE",
"205 860 OFFCURVE",
"262 791 OFFCURVE",
"364 791 CURVE SMOOTH"
);
},
{
closed = 1;
nodes = (
"425 1002 LINE",
"414 1038 OFFCURVE",
"425 1050 OFFCURVE",
"474 1068 CURVE SMOOTH",
"535 1091 OFFCURVE",
"556 1107 OFFCURVE",
"564 1143 CURVE SMOOTH",
"573 1186 OFFCURVE",
"526 1218 OFFCURVE",
"455 1218 CURVE SMOOTH",
"413 1218 OFFCURVE",
"371 1210 OFFCURVE",
"334 1195 CURVE",
"344 1158 LINE",
"373 1170 OFFCURVE",
"411 1177 OFFCURVE",
"445 1177 CURVE SMOOTH",
"490 1177 OFFCURVE",
"519 1160 OFFCURVE",
"514 1134 CURVE SMOOTH",
"509 1113 OFFCURVE",
"497 1107 OFFCURVE",
"443 1090 CURVE SMOOTH",
"383 1071 OFFCURVE",
"364 1044 OFFCURVE",
"378 1002 CURVE"
);
}
);
};
components = (
{
name = A;
},
{
name = brevecomb.case;
transform = "{1, 0, 0, 1, 814, 0}";
},
{
name = hookabovecomb.case;
transform = "{1, 0, 0, 1, 866, 206}";
}
);
layerId = "11F4F77C-5A4A-42C7-A4D7-8096DDA1923A";
width = 662;
}
);
leftKerningGroup = A;
rightKerningGroup = A;
unicode = 1EB2;
},
{
color = 5;
glyphname = Abrevetilde;
lastChange = "2019-12-20 09:13:02 +0000";
layers = (
{
components = (
{
name = A;
},
{
name = brevecomb.case;
transform = "{1, 0, 0, 1, 719, 0}";
},
{
name = tildecomb.case;
transform = "{1, 0, 0, 1, 719, 206}";
}
);
layerId = "38FA562F-EF2C-4367-983C-F15B205514DC";
width = 662;
},
{
components = (
{
name = A;
},
{
name = brevecomb.case;
transform = "{1, 0, 0, 1, 791, 0}";
},
{
name = tildecomb.case;
transform = "{1, 0, 0, 1, 791, 206}";
}
);
layerId = "E991CF0C-7E17-4C48-B08A-36C8E595ED17";
width = 749;
},
{
components = (
{
name = A;
},
{
name = brevecomb.case;
transform = "{1, 0, 0, 1, 791, 0}";
},
{
name = tildecomb.case;
transform = "{1, 0, 0, 1, 791, 206}";
}
);
layerId = "805D0193-4943-450F-A7B0-5A59B60D8C7D";
width = 749;
},
{
components = (
{
name = A;
},
{
name = brevecomb.case;
transform = "{1, 0, 0, 1, 719, 0}";
},
{
name = tildecomb.case;
transform = "{1, 0, 0, 1, 719, 206}";
}
);
layerId = "01407E7F-30D0-482B-A25C-5A532F071765";
width = 662;
},
{
background = {
anchors = (
{
name = bottom;
position = "{204, 0}";
},
{
name = ogonek;
position = "{523, 0}";
},
{
name = top;
position = "{435, 1085}";
}
);
paths = (
{
closed = 1;
nodes = (
"-40 0 LINE",
"77 192 LINE",
"419 192 LINE",
"458 0 LINE",
"523 0 LINE",
"378 700 LINE",
"328 700 LINE",
"-103 0 LINE"
);
},
{
closed = 1;
nodes = (
"333 614 LINE",
"408 246 LINE",
"109 246 LINE"
);
},
{
closed = 1;
nodes = (
"473 791 OFFCURVE",
"559 864 OFFCURVE",
"573 952 CURVE",
"521 952 LINE",
"510 881 OFFCURVE",
"452 838 OFFCURVE",
"382 838 CURVE SMOOTH",
"306 838 OFFCURVE",
"272 888 OFFCURVE",
"288 952 CURVE",
"237 952 LINE",
"214 860 OFFCURVE",
"270 791 OFFCURVE",
"372 791 CURVE SMOOTH"
);
},
{
closed = 1;
nodes = (
"306 1061 OFFCURVE",
"331 1080 OFFCURVE",
"359 1080 CURVE SMOOTH",
"404 1080 OFFCURVE",
"440 1032 OFFCURVE",
"497 1032 CURVE SMOOTH",
"541 1032 OFFCURVE",
"585 1063 OFFCURVE",
"618 1115 CURVE",
"585 1138 LINE",
"563 1102 OFFCURVE",
"538 1080 OFFCURVE",
"508 1080 CURVE SMOOTH",
"464 1080 OFFCURVE",
"426 1129 OFFCURVE",
"369 1129 CURVE SMOOTH",
"323 1129 OFFCURVE",
"281 1095 OFFCURVE",
"249 1045 CURVE",
"283 1023 LINE"
);
}
);
};
components = (
{
name = A;
},
{
name = brevecomb.case;
transform = "{1, 0, 0, 1, 814, 0}";
},
{
name = tildecomb.case;
transform = "{1, 0, 0, 1, 859, 206}";
}
);
layerId = "7A9E6466-FE38-4215-AA78-C86323202F89";
width = 662;
},
{
background = {
anchors = (
{
name = bottom;
position = "{252, 0}";
},
{
name = ogonek;
position = "{626, 0}";
},
{
name = top;
position = "{487, 1106}";
}
);
paths = (
{
closed = 1;
nodes = (
"99 0 LINE",
"165 125 LINE",
"386 125 LINE",
"398 0 LINE",
"626 0 LINE",
"521 700 LINE",
"281 700 LINE",
"-123 0 LINE"
);
},
{
closed = 1;
nodes = (
"354 492 LINE",
"377 292 LINE",
"243 292 LINE"
);
},
{
closed = 1;
nodes = (
"546 749 OFFCURVE",
"655 823 OFFCURVE",
"676 931 CURVE",
"508 931 LINE",
"503 898 OFFCURVE",
"476 878 OFFCURVE",
"439 878 CURVE SMOOTH",
"401 878 OFFCURVE",
"383 898 OFFCURVE",
"392 931 CURVE",
"224 931 LINE",
"199 821 OFFCURVE",
"274 749 OFFCURVE",
"412 749 CURVE SMOOTH"
);
},
{
closed = 1;
nodes = (
"317 986 OFFCURVE",
"348 1005 OFFCURVE",
"380 1005 CURVE SMOOTH",
"432 1005 OFFCURVE",
"478 955 OFFCURVE",
"552 955 CURVE SMOOTH",
"620 955 OFFCURVE",
"686 993 OFFCURVE",
"716 1071 CURVE",
"660 1154 LINE",
"635 1110 OFFCURVE",
"606 1092 OFFCURVE",
"575 1092 CURVE SMOOTH",
"520 1092 OFFCURVE",
"483 1142 OFFCURVE",
"410 1142 CURVE SMOOTH",
"343 1142 OFFCURVE",
"282 1102 OFFCURVE",
"234 1024 CURVE",
"292 942 LINE"
);
}
);
};
components = (
{
name = A;
},
{
name = brevecomb.case;
transform = "{1, 0, 0, 1, 886, 0}";
},
{
name = tildecomb.case;
transform = "{1, 0, 0, 1, 930, 206}";
}
);
layerId = "06050411-8C1E-4EA2-9807-ADB6E7423C7E";
width = 750;
},
{
background = {
anchors = (
{
name = bottom;
position = "{252, 0}";
},
{
name = ogonek;
position = "{626, 0}";
},
{
name = top;
position = "{487, 1106}";
}
);
paths = (
{
closed = 1;
nodes = (
"99 0 LINE",
"165 125 LINE",
"386 125 LINE",
"398 0 LINE",
"626 0 LINE",
"521 700 LINE",
"281 700 LINE",
"-123 0 LINE"
);
},
{
closed = 1;
nodes = (
"354 492 LINE",
"377 292 LINE",
"243 292 LINE"
);
},
{
closed = 1;
nodes = (
"546 749 OFFCURVE",
"655 823 OFFCURVE",
"676 931 CURVE",
"508 931 LINE",
"503 898 OFFCURVE",
"476 878 OFFCURVE",
"439 878 CURVE SMOOTH",
"401 878 OFFCURVE",
"383 898 OFFCURVE",
"392 931 CURVE",
"224 931 LINE",
"199 821 OFFCURVE",
"274 749 OFFCURVE",
"412 749 CURVE SMOOTH"
);
},
{
closed = 1;
nodes = (
"317 986 OFFCURVE",
"348 1005 OFFCURVE",
"380 1005 CURVE SMOOTH",
"432 1005 OFFCURVE",
"478 955 OFFCURVE",
"552 955 CURVE SMOOTH",
"620 955 OFFCURVE",
"686 993 OFFCURVE",
"716 1071 CURVE",
"660 1154 LINE",
"635 1110 OFFCURVE",
"606 1092 OFFCURVE",
"575 1092 CURVE SMOOTH",
"520 1092 OFFCURVE",
"483 1142 OFFCURVE",
"410 1142 CURVE SMOOTH",
"343 1142 OFFCURVE",
"282 1102 OFFCURVE",
"234 1024 CURVE",
"292 942 LINE"
);
}
);
};
components = (
{
name = A;
},
{
name = brevecomb.case;
transform = "{1, 0, 0, 1, 886, 0}";
},
{
name = tildecomb.case;
transform = "{1, 0, 0, 1, 930, 206}";
}
);
layerId = "AA96BE86-BB68-49D4-94A1-31EA360FFFA2";
width = 750;
},
{
background = {
anchors = (
{
name = bottom;
position = "{204, 0}";
},
{
name = ogonek;
position = "{523, 0}";
},
{
name = top;
position = "{435, 1085}";
}
);
paths = (
{
closed = 1;
nodes = (
"-40 0 LINE",
"77 192 LINE",
"419 192 LINE",
"458 0 LINE",
"523 0 LINE",
"378 700 LINE",
"328 700 LINE",
"-103 0 LINE"
);
},
{
closed = 1;
nodes = (
"333 614 LINE",
"408 246 LINE",
"109 246 LINE"
);
},
{
closed = 1;
nodes = (
"473 791 OFFCURVE",
"559 864 OFFCURVE",
"573 952 CURVE",
"521 952 LINE",
"510 881 OFFCURVE",
"452 838 OFFCURVE",
"382 838 CURVE SMOOTH",
"306 838 OFFCURVE",
"272 888 OFFCURVE",
"288 952 CURVE",
"237 952 LINE",
"214 860 OFFCURVE",
"270 791 OFFCURVE",
"372 791 CURVE SMOOTH"
);
},
{
closed = 1;
nodes = (
"306 1061 OFFCURVE",
"331 1080 OFFCURVE",
"359 1080 CURVE SMOOTH",
"404 1080 OFFCURVE",
"440 1032 OFFCURVE",
"497 1032 CURVE SMOOTH",
"541 1032 OFFCURVE",
"585 1063 OFFCURVE",
"618 1115 CURVE",
"585 1138 LINE",
"563 1102 OFFCURVE",
"538 1080 OFFCURVE",
"508 1080 CURVE SMOOTH",
"464 1080 OFFCURVE",
"426 1129 OFFCURVE",
"369 1129 CURVE SMOOTH",
"323 1129 OFFCURVE",
"281 1095 OFFCURVE",
"249 1045 CURVE",
"283 1023 LINE"
);
}
);
};
components = (
{
name = A;
},
{
name = brevecomb.case;
transform = "{1, 0, 0, 1, 814, 0}";
},
{
name = tildecomb.case;
transform = "{1, 0, 0, 1, 859, 206}";
}
);
layerId = "11F4F77C-5A4A-42C7-A4D7-8096DDA1923A";
width = 662;
}
);
leftKerningGroup = A;
rightKerningGroup = A;
unicode = 1EB4;
},
{
color = 5;
glyphname = Acircumflex;
lastChange = "2019-12-20 09:13:02 +0000";
layers = (
{
components = (
{
name = A;
},
{
name = circumflexcomb.case;
transform = "{1, 0, 0, 1, 719, 0}";
}
);
layerId = "38FA562F-EF2C-4367-983C-F15B205514DC";
width = 662;
},
{
components = (
{
name = A;
},
{
name = circumflexcomb.case;
transform = "{1, 0, 0, 1, 792, 0}";
}
);
layerId = "E991CF0C-7E17-4C48-B08A-36C8E595ED17";
width = 749;
},
{
components = (
{
name = A;
},
{
name = circumflexcomb.case;
transform = "{1, 0, 0, 1, 792, 0}";
}
);
layerId = "805D0193-4943-450F-A7B0-5A59B60D8C7D";
width = 749;
},
{
components = (
{
name = A;
},
{
name = circumflexcomb.case;
transform = "{1, 0, 0, 1, 719, 0}";
}
);
layerId = "01407E7F-30D0-482B-A25C-5A532F071765";
width = 662;
},
{
background = {
anchors = (
{
name = bottom;
position = "{224, 0}";
},
{
name = ogonek;
position = "{543, 0}";
},
{
name = top;
position = "{420, 924}";
},
{
name = top_right;
position = "{557, 824}";
}
);
paths = (
{
closed = 1;
nodes = (
"-20 0 LINE",
"97 192 LINE",
"439 192 LINE",
"478 0 LINE",
"543 0 LINE",
"398 700 LINE",
"348 700 LINE",
"-83 0 LINE"
);
},
{
closed = 1;
nodes = (
"352 614 LINE",
"428 246 LINE",
"129 246 LINE"
);
},
{
closed = 1;
nodes = (
"292 796 LINE",
"417 910 LINE",
"423 910 LINE",
"494 796 LINE",
"554 796 LINE",
"461 952 LINE",
"399 952 LINE",
"231 796 LINE"
);
}
);
};
components = (
{
name = A;
},
{
name = circumflexcomb.case;
transform = "{1, 0, 0, 1, 814, 0}";
}
);
layerId = "7A9E6466-FE38-4215-AA78-C86323202F89";
width = 662;
},
{
background = {
anchors = (
{
name = bottom;
position = "{276, 0}";
},
{
name = ogonek;
position = "{650, 0}";
},
{
name = top;
position = "{468, 903}";
},
{
name = top_right;
position = "{708, 866}";
}
);
paths = (
{
closed = 1;
nodes = (
"123 0 LINE",
"189 125 LINE",
"410 125 LINE",
"422 0 LINE",
"650 0 LINE",
"545 700 LINE",
"305 700 LINE",
"-99 0 LINE"
);
},
{
closed = 1;
nodes = (
"378 492 LINE",
"401 292 LINE",
"267 292 LINE"
);
},
{
closed = 1;
nodes = (
"375 754 LINE",
"445 817 LINE",
"450 817 LINE",
"489 754 LINE",
"684 754 LINE",
"563 931 LINE",
"385 931 LINE",
"188 754 LINE"
);
}
);
};
components = (
{
name = A;
},
{
name = circumflexcomb.case;
transform = "{1, 0, 0, 1, 888, 0}";
}
);
layerId = "06050411-8C1E-4EA2-9807-ADB6E7423C7E";
width = 750;
},
{
background = {
anchors = (
{
name = bottom;
position = "{276, 0}";
},
{
name = ogonek;
position = "{650, 0}";
},
{
name = top;
position = "{468, 903}";
},
{
name = top_right;
position = "{708, 866}";
}
);
paths = (
{
closed = 1;
nodes = (
"123 0 LINE",
"189 125 LINE",
"410 125 LINE",
"422 0 LINE",
"650 0 LINE",
"545 700 LINE",
"305 700 LINE",
"-99 0 LINE"
);
},
{
closed = 1;
nodes = (
"378 492 LINE",
"401 292 LINE",
"267 292 LINE"
);
},
{
closed = 1;
nodes = (
"375 754 LINE",
"445 817 LINE",
"450 817 LINE",
"489 754 LINE",
"684 754 LINE",
"563 931 LINE",
"385 931 LINE",
"188 754 LINE"
);
}
);
};
components = (
{
name = A;
},
{
name = circumflexcomb.case;
transform = "{1, 0, 0, 1, 888, 0}";
}
);
layerId = "AA96BE86-BB68-49D4-94A1-31EA360FFFA2";
width = 750;
},
{
background = {
anchors = (
{
name = bottom;
position = "{224, 0}";
},
{
name = ogonek;
position = "{543, 0}";
},
{
name = top;
position = "{420, 924}";
},
{
name = top_right;
position = "{557, 824}";
}
);
paths = (
{
closed = 1;
nodes = (
"-20 0 LINE",
"97 192 LINE",
"439 192 LINE",
"478 0 LINE",
"543 0 LINE",
"398 700 LINE",
"348 700 LINE",
"-83 0 LINE"
);
},
{
closed = 1;
nodes = (
"352 614 LINE",
"428 246 LINE",
"129 246 LINE"
);
},
{
closed = 1;
nodes = (
"292 796 LINE",
"417 910 LINE",
"423 910 LINE",
"494 796 LINE",
"554 796 LINE",
"461 952 LINE",
"399 952 LINE",
"231 796 LINE"
);
}
);
};
components = (
{
name = A;
},
{
name = circumflexcomb.case;
transform = "{1, 0, 0, 1, 814, 0}";
}
);
layerId = "11F4F77C-5A4A-42C7-A4D7-8096DDA1923A";
width = 662;
}
);
leftKerningGroup = A;
rightKerningGroup = A;
unicode = 00C2;
},
{
color = 5;
glyphname = Acircumflexacute;
lastChange = "2019-12-20 09:13:02 +0000";
layers = (
{
components = (
{
name = A;
},
{
name = circumflexcomb.case;
transform = "{1, 0, 0, 1, 719, 0}";
},
{
anchor = top_right;
name = acutecomb.case;
transform = "{1, 0, 0, 1, 877, 124}";
}
);
layerId = "38FA562F-EF2C-4367-983C-F15B205514DC";
width = 662;
},
{
components = (
{
name = A;
},
{
name = circumflexcomb.case;
transform = "{1, 0, 0, 1, 792, 0}";
},
{
anchor = top_right;
name = acutecomb.case;
transform = "{1, 0, 0, 1, 1039, 166}";
}
);
layerId = "E991CF0C-7E17-4C48-B08A-36C8E595ED17";
width = 749;
},
{
components = (
{
name = A;
},
{
name = circumflexcomb.case;
transform = "{1, 0, 0, 1, 792, 0}";
},
{
anchor = top_right;
name = acutecomb.case;
transform = "{1, 0, 0, 1, 1039, 166}";
}
);
layerId = "805D0193-4943-450F-A7B0-5A59B60D8C7D";
width = 749;
},
{
components = (
{
name = A;
},
{
name = circumflexcomb.case;
transform = "{1, 0, 0, 1, 719, 0}";
},
{
anchor = top_right;
name = acutecomb.case;
transform = "{1, 0, 0, 1, 877, 124}";
}
);
layerId = "01407E7F-30D0-482B-A25C-5A532F071765";
width = 662;
},
{
background = {
anchors = (
{
name = bottom;
position = "{211, 0}";
},
{
name = ogonek;
position = "{530, 0}";
},
{
name = top;
position = "{407, 924}";
},
{
name = top_right;
position = "{544, 824}";
}
);
paths = (
{
closed = 1;
nodes = (
"-33 0 LINE",
"83 192 LINE",
"425 192 LINE",
"465 0 LINE",
"530 0 LINE",
"384 700 LINE",
"334 700 LINE",
"-96 0 LINE"
);
},
{
closed = 1;
nodes = (
"339 614 LINE",
"415 246 LINE",
"116 246 LINE"
);
},
{
closed = 1;
nodes = (
"279 796 LINE",
"404 910 LINE",
"410 910 LINE",
"481 796 LINE",
"541 796 LINE",
"448 952 LINE",
"386 952 LINE",
"218 796 LINE"
);
},
{
closed = 1;
nodes = (
"586 920 LINE",
"719 1076 LINE",
"659 1076 LINE",
"532 920 LINE"
);
}
);
};
components = (
{
name = A;
},
{
name = circumflexcomb.case;
transform = "{1, 0, 0, 1, 814, 0}";
},
{
anchor = top_right;
name = acutecomb.case;
transform = "{1, 0, 0, 1, 999, 124}";
}
);
layerId = "7A9E6466-FE38-4215-AA78-C86323202F89";
width = 662;
},
{
background = {
anchors = (
{
name = bottom;
position = "{258, 0}";
},
{
name = ogonek;
position = "{632, 0}";
},
{
name = top;
position = "{450, 903}";
},
{
name = top_right;
position = "{690, 866}";
}
);
paths = (
{
closed = 1;
nodes = (
"105 0 LINE",
"171 125 LINE",
"392 125 LINE",
"404 0 LINE",
"632 0 LINE",
"527 700 LINE",
"287 700 LINE",
"-117 0 LINE"
);
},
{
closed = 1;
nodes = (
"360 492 LINE",
"383 292 LINE",
"249 292 LINE"
);
},
{
closed = 1;
nodes = (
"358 754 LINE",
"427 817 LINE",
"432 817 LINE",
"472 754 LINE",
"667 754 LINE",
"545 931 LINE",
"367 931 LINE",
"171 754 LINE"
);
},
{
closed = 1;
nodes = (
"785 920 LINE",
"943 1097 LINE",
"736 1097 LINE",
"597 920 LINE"
);
}
);
};
components = (
{
name = A;
},
{
name = circumflexcomb.case;
transform = "{1, 0, 0, 1, 888, 0}";
},
{
anchor = top_right;
name = acutecomb.case;
transform = "{1, 0, 0, 1, 1170, 166}";
}
);
layerId = "06050411-8C1E-4EA2-9807-ADB6E7423C7E";
width = 750;
},
{
background = {
anchors = (
{
name = bottom;
position = "{258, 0}";
},
{
name = ogonek;
position = "{632, 0}";
},
{
name = top;
position = "{450, 903}";
},
{
name = top_right;
position = "{690, 866}";
}
);
paths = (
{
closed = 1;
nodes = (
"105 0 LINE",
"171 125 LINE",
"392 125 LINE",
"404 0 LINE",
"632 0 LINE",
"527 700 LINE",
"287 700 LINE",
"-117 0 LINE"
);
},
{
closed = 1;
nodes = (
"360 492 LINE",
"383 292 LINE",
"249 292 LINE"
);
},
{
closed = 1;
nodes = (
"358 754 LINE",
"427 817 LINE",
"432 817 LINE",
"472 754 LINE",
"667 754 LINE",
"545 931 LINE",
"367 931 LINE",
"171 754 LINE"
);
},
{
closed = 1;
nodes = (
"785 920 LINE",
"943 1097 LINE",
"736 1097 LINE",
"597 920 LINE"
);
}
);
};
components = (
{
name = A;
},
{
name = circumflexcomb.case;
transform = "{1, 0, 0, 1, 888, 0}";
},
{
anchor = top_right;
name = acutecomb.case;
transform = "{1, 0, 0, 1, 1170, 166}";
}
);
layerId = "AA96BE86-BB68-49D4-94A1-31EA360FFFA2";
width = 750;
},
{
background = {
anchors = (
{
name = bottom;
position = "{211, 0}";
},
{
name = ogonek;
position = "{530, 0}";
},
{
name = top;
position = "{407, 924}";
},
{
name = top_right;
position = "{544, 824}";
}
);
paths = (
{
closed = 1;
nodes = (
"-33 0 LINE",
"83 192 LINE",
"425 192 LINE",
"465 0 LINE",
"530 0 LINE",
"384 700 LINE",
"334 700 LINE",
"-96 0 LINE"
);
},
{
closed = 1;
nodes = (
"339 614 LINE",
"415 246 LINE",
"116 246 LINE"
);
},
{
closed = 1;
nodes = (
"279 796 LINE",
"404 910 LINE",
"410 910 LINE",
"481 796 LINE",
"541 796 LINE",
"448 952 LINE",
"386 952 LINE",
"218 796 LINE"
);
},
{
closed = 1;
nodes = (
"586 920 LINE",
"719 1076 LINE",
"659 1076 LINE",
"532 920 LINE"
);
}
);
};
components = (
{
name = A;
},
{
name = circumflexcomb.case;
transform = "{1, 0, 0, 1, 814, 0}";
},
{
anchor = top_right;
name = acutecomb.case;
transform = "{1, 0, 0, 1, 999, 124}";
}
);
layerId = "11F4F77C-5A4A-42C7-A4D7-8096DDA1923A";
width = 662;
}
);
leftKerningGroup = A;
rightKerningGroup = A;
unicode = 1EA4;
},
{
color = 5;
glyphname = Acircumflexdotbelow;
lastChange = "2019-12-20 09:13:02 +0000";
layers = (
{
components = (
{
name = A;
},
{
name = dotbelowcomb;
transform = "{1, 0, 0, 1, 618, 0}";
},
{
name = circumflexcomb.case;
transform = "{1, 0, 0, 1, 719, 0}";
}
);
layerId = "38FA562F-EF2C-4367-983C-F15B205514DC";
width = 662;
},
{
components = (
{
name = A;
},
{
name = dotbelowcomb;
transform = "{1, 0, 0, 1, 694, 0}";
},
{
name = circumflexcomb.case;
transform = "{1, 0, 0, 1, 792, 0}";
}
);
layerId = "E991CF0C-7E17-4C48-B08A-36C8E595ED17";
width = 749;
},
{
components = (
{
name = A;
},
{
name = dotbelowcomb;
transform = "{1, 0, 0, 1, 694, 0}";
},
{
name = circumflexcomb.case;
transform = "{1, 0, 0, 1, 792, 0}";
}
);
layerId = "805D0193-4943-450F-A7B0-5A59B60D8C7D";
width = 749;
},
{
components = (
{
name = A;
},
{
name = dotbelowcomb;
transform = "{1, 0, 0, 1, 618, 0}";
},
{
name = circumflexcomb.case;
transform = "{1, 0, 0, 1, 719, 0}";
}
);
layerId = "01407E7F-30D0-482B-A25C-5A532F071765";
width = 662;
},
{
background = {
anchors = (
{
name = bottom;
position = "{249, 0}";
},
{
name = ogonek;
position = "{568, 0}";
},
{
name = top;
position = "{445, 924}";
},
{
name = top_right;
position = "{582, 824}";
}
);
paths = (
{
closed = 1;
nodes = (
"5 0 LINE",
"122 192 LINE",
"464 192 LINE",
"503 0 LINE",
"568 0 LINE",
"423 700 LINE",
"373 700 LINE",
"-58 0 LINE"
);
},
{
closed = 1;
nodes = (
"377 614 LINE",
"453 246 LINE",
"154 246 LINE"
);
},
{
closed = 1;
nodes = (
"225 -236 OFFCURVE",
"250 -215 OFFCURVE",
"256 -189 CURVE SMOOTH",
"261 -163 OFFCURVE",
"245 -142 OFFCURVE",
"219 -142 CURVE SMOOTH",
"193 -142 OFFCURVE",
"167 -163 OFFCURVE",
"162 -189 CURVE SMOOTH",
"156 -215 OFFCURVE",
"173 -236 OFFCURVE",
"199 -236 CURVE SMOOTH"
);
},
{
closed = 1;
nodes = (
"317 796 LINE",
"442 910 LINE",
"448 910 LINE",
"519 796 LINE",
"579 796 LINE",
"486 952 LINE",
"424 952 LINE",
"256 796 LINE"
);
}
);
};
components = (
{
name = A;
},
{
name = dotbelowcomb;
transform = "{1, 0, 0, 1, 527, 0}";
},
{
name = circumflexcomb.case;
transform = "{1, 0, 0, 1, 814, 0}";
}
);
layerId = "7A9E6466-FE38-4215-AA78-C86323202F89";
width = 662;
},
{
background = {
anchors = (
{
name = bottom;
position = "{306, 0}";
},
{
name = ogonek;
position = "{680, 0}";
},
{
name = top;
position = "{498, 903}";
},
{
name = top_right;
position = "{738, 866}";
}
);
paths = (
{
closed = 1;
nodes = (
"153 0 LINE",
"218 125 LINE",
"439 125 LINE",
"452 0 LINE",
"680 0 LINE",
"574 700 LINE",
"334 700 LINE",
"-69 0 LINE"
);
},
{
closed = 1;
nodes = (
"407 492 LINE",
"431 292 LINE",
"297 292 LINE"
);
},
{
closed = 1;
nodes = (
"308 -279 OFFCURVE",
"370 -239 OFFCURVE",
"384 -173 CURVE SMOOTH",
"398 -107 OFFCURVE",
"353 -67 OFFCURVE",
"291 -67 CURVE SMOOTH",
"229 -67 OFFCURVE",
"168 -107 OFFCURVE",
"154 -173 CURVE SMOOTH",
"140 -239 OFFCURVE",
"184 -279 OFFCURVE",
"246 -279 CURVE SMOOTH"
);
},
{
closed = 1;
nodes = (
"405 754 LINE",
"474 817 LINE",
"479 817 LINE",
"519 754 LINE",
"714 754 LINE",
"593 931 LINE",
"415 931 LINE",
"218 754 LINE"
);
}
);
};
components = (
{
name = A;
},
{
name = dotbelowcomb;
transform = "{1, 0, 0, 1, 606, 0}";
},
{
name = circumflexcomb.case;
transform = "{1, 0, 0, 1, 888, 0}";
}
);
layerId = "06050411-8C1E-4EA2-9807-ADB6E7423C7E";
width = 750;
},
{
background = {
anchors = (
{
name = bottom;
position = "{306, 0}";
},
{
name = ogonek;
position = "{680, 0}";
},
{
name = top;
position = "{498, 903}";
},
{
name = top_right;
position = "{738, 866}";
}
);
paths = (
{
closed = 1;
nodes = (
"153 0 LINE",
"218 125 LINE",
"439 125 LINE",
"452 0 LINE",
"680 0 LINE",
"574 700 LINE",
"334 700 LINE",
"-69 0 LINE"
);
},
{
closed = 1;
nodes = (
"407 492 LINE",
"431 292 LINE",
"297 292 LINE"
);
},
{
closed = 1;
nodes = (
"308 -279 OFFCURVE",
"370 -239 OFFCURVE",
"384 -173 CURVE SMOOTH",
"398 -107 OFFCURVE",
"353 -67 OFFCURVE",
"291 -67 CURVE SMOOTH",
"229 -67 OFFCURVE",
"168 -107 OFFCURVE",
"154 -173 CURVE SMOOTH",
"140 -239 OFFCURVE",
"184 -279 OFFCURVE",
"246 -279 CURVE SMOOTH"
);
},
{
closed = 1;
nodes = (
"405 754 LINE",
"474 817 LINE",
"479 817 LINE",
"519 754 LINE",
"714 754 LINE",
"593 931 LINE",
"415 931 LINE",
"218 754 LINE"
);
}
);
};
components = (
{
name = A;
},
{
name = dotbelowcomb;
transform = "{1, 0, 0, 1, 606, 0}";
},
{
name = circumflexcomb.case;
transform = "{1, 0, 0, 1, 888, 0}";
}
);
layerId = "AA96BE86-BB68-49D4-94A1-31EA360FFFA2";
width = 750;
},
{
background = {
anchors = (
{
name = bottom;
position = "{249, 0}";
},
{
name = ogonek;
position = "{568, 0}";
},
{
name = top;
position = "{445, 924}";
},
{
name = top_right;
position = "{582, 824}";
}
);
paths = (
{
closed = 1;
nodes = (
"5 0 LINE",
"122 192 LINE",
"464 192 LINE",
"503 0 LINE",
"568 0 LINE",
"423 700 LINE",
"373 700 LINE",
"-58 0 LINE"
);
},
{
closed = 1;
nodes = (
"377 614 LINE",
"453 246 LINE",
"154 246 LINE"
);
},
{
closed = 1;
nodes = (
"225 -236 OFFCURVE",
"250 -215 OFFCURVE",
"256 -189 CURVE SMOOTH",
"261 -163 OFFCURVE",
"245 -142 OFFCURVE",
"219 -142 CURVE SMOOTH",
"193 -142 OFFCURVE",
"167 -163 OFFCURVE",
"162 -189 CURVE SMOOTH",
"156 -215 OFFCURVE",
"173 -236 OFFCURVE",
"199 -236 CURVE SMOOTH"
);
},
{
closed = 1;
nodes = (
"317 796 LINE",
"442 910 LINE",
"448 910 LINE",
"519 796 LINE",
"579 796 LINE",
"486 952 LINE",
"424 952 LINE",
"256 796 LINE"
);
}
);
};
components = (
{
name = A;
},
{
name = dotbelowcomb;
transform = "{1, 0, 0, 1, 527, 0}";
},
{
name = circumflexcomb.case;
transform = "{1, 0, 0, 1, 814, 0}";
}
);
layerId = "11F4F77C-5A4A-42C7-A4D7-8096DDA1923A";
width = 662;
}
);
leftKerningGroup = A;
rightKerningGroup = A;
unicode = 1EAC;
},
{
color = 5;
glyphname = Acircumflexgrave;
lastChange = "2019-12-20 09:13:02 +0000";
layers = (
{
components = (
{
name = A;
},
{
name = circumflexcomb.case;
transform = "{1, 0, 0, 1, 719, 0}";
},
{
anchor = top_right;
name = gravecomb.case;
transform = "{1, 0, 0, 1, 877, 124}";
}
);
layerId = "38FA562F-EF2C-4367-983C-F15B205514DC";
width = 662;
},
{
components = (
{
name = A;
},
{
name = circumflexcomb.case;
transform = "{1, 0, 0, 1, 792, 0}";
},
{
anchor = top_right;
name = gravecomb.case;
transform = "{1, 0, 0, 1, 1040, 166}";
}
);
layerId = "E991CF0C-7E17-4C48-B08A-36C8E595ED17";
width = 749;
},
{
components = (
{
name = A;
},
{
name = circumflexcomb.case;
transform = "{1, 0, 0, 1, 792, 0}";
},
{
anchor = top_right;
name = gravecomb.case;
transform = "{1, 0, 0, 1, 1040, 166}";
}
);
layerId = "805D0193-4943-450F-A7B0-5A59B60D8C7D";
width = 749;
},
{
components = (
{
name = A;
},
{
name = circumflexcomb.case;
transform = "{1, 0, 0, 1, 719, 0}";
},
{
anchor = top_right;
name = gravecomb.case;
transform = "{1, 0, 0, 1, 877, 124}";
}
);
layerId = "01407E7F-30D0-482B-A25C-5A532F071765";
width = 662;
},
{
background = {
anchors = (
{
name = bottom;
position = "{211, 0}";
},
{
name = ogonek;
position = "{530, 0}";
},
{
name = top;
position = "{407, 924}";
},
{
name = top_right;
position = "{544, 824}";
}
);
paths = (
{
closed = 1;
nodes = (
"-33 0 LINE",
"83 192 LINE",
"425 192 LINE",
"465 0 LINE",
"530 0 LINE",
"384 700 LINE",
"334 700 LINE",
"-96 0 LINE"
);
},
{
closed = 1;
nodes = (
"339 614 LINE",
"415 246 LINE",
"116 246 LINE"
);
},
{
closed = 1;
nodes = (
"279 796 LINE",
"404 910 LINE",
"410 910 LINE",
"481 796 LINE",
"541 796 LINE",
"448 952 LINE",
"386 952 LINE",
"218 796 LINE"
);
},
{
closed = 1;
nodes = (
"604 920 LINE",
"544 1076 LINE",
"481 1076 LINE",
"548 920 LINE"
);
}
);
};
components = (
{
name = A;
},
{
name = circumflexcomb.case;
transform = "{1, 0, 0, 1, 814, 0}";
},
{
anchor = top_right;
name = gravecomb.case;
transform = "{1, 0, 0, 1, 999, 124}";
}
);
layerId = "7A9E6466-FE38-4215-AA78-C86323202F89";
width = 662;
},
{
background = {
anchors = (
{
name = bottom;
position = "{258, 0}";
},
{
name = ogonek;
position = "{632, 0}";
},
{
name = top;
position = "{450, 903}";
},
{
name = top_right;
position = "{690, 866}";
}
);
paths = (
{
closed = 1;
nodes = (
"105 0 LINE",
"171 125 LINE",
"392 125 LINE",
"404 0 LINE",
"632 0 LINE",
"527 700 LINE",
"287 700 LINE",
"-117 0 LINE"
);
},
{
closed = 1;
nodes = (
"360 492 LINE",
"383 292 LINE",
"249 292 LINE"
);
},
{
closed = 1;
nodes = (
"358 754 LINE",
"427 817 LINE",
"432 817 LINE",
"472 754 LINE",
"667 754 LINE",
"545 931 LINE",
"367 931 LINE",
"171 754 LINE"
);
},
{
closed = 1;
nodes = (
"807 920 LINE",
"746 1097 LINE",
"535 1097 LINE",
"614 920 LINE"
);
}
);
};
components = (
{
name = A;
},
{
name = circumflexcomb.case;
transform = "{1, 0, 0, 1, 888, 0}";
},
{
anchor = top_right;
name = gravecomb.case;
transform = "{1, 0, 0, 1, 1170, 166}";
}
);
layerId = "06050411-8C1E-4EA2-9807-ADB6E7423C7E";
width = 750;
},
{
background = {
anchors = (
{
name = bottom;
position = "{258, 0}";
},
{
name = ogonek;
position = "{632, 0}";
},
{
name = top;
position = "{450, 903}";
},
{
name = top_right;
position = "{690, 866}";
}
);
paths = (
{
closed = 1;
nodes = (
"105 0 LINE",
"171 125 LINE",
"392 125 LINE",
"404 0 LINE",
"632 0 LINE",
"527 700 LINE",
"287 700 LINE",
"-117 0 LINE"
);
},
{
closed = 1;
nodes = (
"360 492 LINE",
"383 292 LINE",
"249 292 LINE"
);
},
{
closed = 1;
nodes = (
"358 754 LINE",
"427 817 LINE",
"432 817 LINE",
"472 754 LINE",
"667 754 LINE",
"545 931 LINE",
"367 931 LINE",
"171 754 LINE"
);
},
{
closed = 1;
nodes = (
"807 920 LINE",
"746 1097 LINE",
"535 1097 LINE",
"614 920 LINE"
);
}
);
};
components = (
{
name = A;
},
{
name = circumflexcomb.case;
transform = "{1, 0, 0, 1, 888, 0}";
},
{
anchor = top_right;
name = gravecomb.case;
transform = "{1, 0, 0, 1, 1170, 166}";
}
);
layerId = "AA96BE86-BB68-49D4-94A1-31EA360FFFA2";
width = 750;
},
{
background = {
anchors = (
{
name = bottom;
position = "{211, 0}";
},
{
name = ogonek;
position = "{530, 0}";
},
{
name = top;
position = "{407, 924}";
},
{
name = top_right;
position = "{544, 824}";
}
);
paths = (
{
closed = 1;
nodes = (
"-33 0 LINE",
"83 192 LINE",
"425 192 LINE",
"465 0 LINE",
"530 0 LINE",
"384 700 LINE",
"334 700 LINE",
"-96 0 LINE"
);
},
{
closed = 1;
nodes = (
"339 614 LINE",
"415 246 LINE",
"116 246 LINE"
);
},
{
closed = 1;
nodes = (
"279 796 LINE",
"404 910 LINE",
"410 910 LINE",
"481 796 LINE",
"541 796 LINE",
"448 952 LINE",
"386 952 LINE",
"218 796 LINE"
);
},
{
closed = 1;
nodes = (
"604 920 LINE",
"544 1076 LINE",
"481 1076 LINE",
"548 920 LINE"
);
}
);
};
components = (
{
name = A;
},
{
name = circumflexcomb.case;
transform = "{1, 0, 0, 1, 814, 0}";
},
{
anchor = top_right;
name = gravecomb.case;
transform = "{1, 0, 0, 1, 999, 124}";
}
);
layerId = "11F4F77C-5A4A-42C7-A4D7-8096DDA1923A";
width = 662;
}
);
leftKerningGroup = A;
rightKerningGroup = A;
unicode = 1EA6;
},
{
color = 5;
glyphname = Acircumflexhookabove;
lastChange = "2019-12-20 09:13:02 +0000";
layers = (
{
components = (
{
name = A;
},
{
name = circumflexcomb.case;
transform = "{1, 0, 0, 1, 719, 0}";
},
{
anchor = top_right;
name = hookabovecomb.case;
transform = "{1, 0, 0, 1, 877, 124}";
}
);
layerId = "38FA562F-EF2C-4367-983C-F15B205514DC";
width = 662;
},
{
components = (
{
name = A;
},
{
name = circumflexcomb.case;
transform = "{1, 0, 0, 1, 792, 0}";
},
{
anchor = top_right;
name = hookabovecomb.case;
transform = "{1, 0, 0, 1, 1035, 166}";
}
);
layerId = "E991CF0C-7E17-4C48-B08A-36C8E595ED17";
width = 749;
},
{
components = (
{
name = A;
},
{
name = circumflexcomb.case;
transform = "{1, 0, 0, 1, 792, 0}";
},
{
anchor = top_right;
name = hookabovecomb.case;
transform = "{1, 0, 0, 1, 1035, 166}";
}
);
layerId = "805D0193-4943-450F-A7B0-5A59B60D8C7D";
width = 749;
},
{
components = (
{
name = A;
},
{
name = circumflexcomb.case;
transform = "{1, 0, 0, 1, 719, 0}";
},
{
anchor = top_right;
name = hookabovecomb.case;
transform = "{1, 0, 0, 1, 877, 124}";
}
);
layerId = "01407E7F-30D0-482B-A25C-5A532F071765";
width = 662;
},
{
background = {
anchors = (
{
name = bottom;
position = "{204, 0}";
},
{
name = ogonek;
position = "{523, 0}";
},
{
name = top;
position = "{401, 924}";
},
{
name = top_right;
position = "{537, 824}";
}
);
paths = (
{
closed = 1;
nodes = (
"-40 0 LINE",
"77 192 LINE",
"419 192 LINE",
"458 0 LINE",
"523 0 LINE",
"378 700 LINE",
"328 700 LINE",
"-103 0 LINE"
);
},
{
closed = 1;
nodes = (
"333 614 LINE",
"409 246 LINE",
"110 246 LINE"
);
},
{
closed = 1;
nodes = (
"272 796 LINE",
"398 910 LINE",
"404 910 LINE",
"474 796 LINE",
"534 796 LINE",
"442 952 LINE",
"380 952 LINE",
"211 796 LINE"
);
},
{
closed = 1;
nodes = (
"574 920 LINE",
"563 956 OFFCURVE",
"574 968 OFFCURVE",
"623 986 CURVE SMOOTH",
"685 1009 OFFCURVE",
"705 1025 OFFCURVE",
"713 1061 CURVE SMOOTH",
"722 1104 OFFCURVE",
"676 1136 OFFCURVE",
"605 1136 CURVE SMOOTH",
"563 1136 OFFCURVE",
"520 1128 OFFCURVE",
"483 1113 CURVE",
"493 1076 LINE",
"523 1088 OFFCURVE",
"560 1095 OFFCURVE",
"594 1095 CURVE SMOOTH",
"639 1095 OFFCURVE",
"668 1078 OFFCURVE",
"663 1052 CURVE SMOOTH",
"658 1031 OFFCURVE",
"646 1025 OFFCURVE",
"593 1008 CURVE SMOOTH",
"532 989 OFFCURVE",
"514 962 OFFCURVE",
"527 920 CURVE"
);
}
);
};
components = (
{
name = A;
},
{
name = circumflexcomb.case;
transform = "{1, 0, 0, 1, 814, 0}";
},
{
anchor = top_right;
name = hookabovecomb.case;
transform = "{1, 0, 0, 1, 1006, 124}";
}
);
layerId = "7A9E6466-FE38-4215-AA78-C86323202F89";
width = 662;
},
{
background = {
anchors = (
{
name = bottom;
position = "{254, 0}";
},
{
name = ogonek;
position = "{628, 0}";
},
{
name = top;
position = "{446, 903}";
},
{
name = top_right;
position = "{686, 866}";
}
);
paths = (
{
closed = 1;
nodes = (
"101 0 LINE",
"167 125 LINE",
"388 125 LINE",
"400 0 LINE",
"628 0 LINE",
"523 700 LINE",
"283 700 LINE",
"-121 0 LINE"
);
},
{
closed = 1;
nodes = (
"356 492 LINE",
"379 292 LINE",
"245 292 LINE"
);
},
{
closed = 1;
nodes = (
"354 754 LINE",
"423 817 LINE",
"428 817 LINE",
"468 754 LINE",
"663 754 LINE",
"541 931 LINE",
"363 931 LINE",
"167 754 LINE"
);
},
{
closed = 1;
nodes = (
"759 920 LINE",
"753 934 OFFCURVE",
"754 945 OFFCURVE",
"798 964 CURVE SMOOTH",
"849 986 OFFCURVE",
"870 1009 OFFCURVE",
"878 1046 CURVE SMOOTH",
"890 1102 OFFCURVE",
"838 1136 OFFCURVE",
"744 1136 CURVE SMOOTH",
"693 1136 OFFCURVE",
"632 1124 OFFCURVE",
"592 1105 CURVE",
"599 1011 LINE",
"625 1022 OFFCURVE",
"647 1029 OFFCURVE",
"680 1029 CURVE SMOOTH",
"699 1029 OFFCURVE",
"714 1025 OFFCURVE",
"713 1018 CURVE SMOOTH",
"711 1010 OFFCURVE",
"704 1007 OFFCURVE",
"678 1000 CURVE SMOOTH",
"632 988 OFFCURVE",
"615 960 OFFCURVE",
"633 920 CURVE"
);
}
);
};
components = (
{
name = A;
},
{
name = circumflexcomb.case;
transform = "{1, 0, 0, 1, 888, 0}";
},
{
anchor = top_right;
name = hookabovecomb.case;
transform = "{1, 0, 0, 1, 1171, 166}";
}
);
layerId = "06050411-8C1E-4EA2-9807-ADB6E7423C7E";
width = 750;
},
{
background = {
anchors = (
{
name = bottom;
position = "{254, 0}";
},
{
name = ogonek;
position = "{628, 0}";
},
{
name = top;
position = "{446, 903}";
},
{
name = top_right;
position = "{686, 866}";
}
);
paths = (
{
closed = 1;
nodes = (
"101 0 LINE",
"167 125 LINE",
"388 125 LINE",
"400 0 LINE",
"628 0 LINE",
"523 700 LINE",
"283 700 LINE",
"-121 0 LINE"
);
},
{
closed = 1;
nodes = (
"356 492 LINE",
"379 292 LINE",
"245 292 LINE"
);
},
{
closed = 1;
nodes = (
"354 754 LINE",
"423 817 LINE",
"428 817 LINE",
"468 754 LINE",
"663 754 LINE",
"541 931 LINE",
"363 931 LINE",
"167 754 LINE"
);
},
{
closed = 1;
nodes = (
"759 920 LINE",
"753 934 OFFCURVE",
"754 945 OFFCURVE",
"798 964 CURVE SMOOTH",
"849 986 OFFCURVE",
"870 1009 OFFCURVE",
"878 1046 CURVE SMOOTH",
"890 1102 OFFCURVE",
"838 1136 OFFCURVE",
"744 1136 CURVE SMOOTH",
"693 1136 OFFCURVE",
"632 1124 OFFCURVE",
"592 1105 CURVE",
"599 1011 LINE",
"625 1022 OFFCURVE",
"647 1029 OFFCURVE",
"680 1029 CURVE SMOOTH",
"699 1029 OFFCURVE",
"714 1025 OFFCURVE",
"713 1018 CURVE SMOOTH",
"711 1010 OFFCURVE",
"704 1007 OFFCURVE",
"678 1000 CURVE SMOOTH",
"632 988 OFFCURVE",
"615 960 OFFCURVE",
"633 920 CURVE"
);
}
);
};
components = (
{
name = A;
},
{
name = circumflexcomb.case;
transform = "{1, 0, 0, 1, 888, 0}";
},
{
anchor = top_right;
name = hookabovecomb.case;
transform = "{1, 0, 0, 1, 1171, 166}";
}
);
layerId = "AA96BE86-BB68-49D4-94A1-31EA360FFFA2";
width = 750;
},
{
background = {
anchors = (
{
name = bottom;
position = "{204, 0}";
},
{
name = ogonek;
position = "{523, 0}";
},
{
name = top;
position = "{401, 924}";
},
{
name = top_right;
position = "{537, 824}";
}
);
paths = (
{
closed = 1;
nodes = (
"-40 0 LINE",
"77 192 LINE",
"419 192 LINE",
"458 0 LINE",
"523 0 LINE",
"378 700 LINE",
"328 700 LINE",
"-103 0 LINE"
);
},
{
closed = 1;
nodes = (
"333 614 LINE",
"409 246 LINE",
"110 246 LINE"
);
},
{
closed = 1;
nodes = (
"272 796 LINE",
"398 910 LINE",
"404 910 LINE",
"474 796 LINE",
"534 796 LINE",
"442 952 LINE",
"380 952 LINE",
"211 796 LINE"
);
},
{
closed = 1;
nodes = (
"574 920 LINE",
"563 956 OFFCURVE",
"574 968 OFFCURVE",
"623 986 CURVE SMOOTH",
"685 1009 OFFCURVE",
"705 1025 OFFCURVE",
"713 1061 CURVE SMOOTH",
"722 1104 OFFCURVE",
"676 1136 OFFCURVE",
"605 1136 CURVE SMOOTH",
"563 1136 OFFCURVE",
"520 1128 OFFCURVE",
"483 1113 CURVE",
"493 1076 LINE",
"523 1088 OFFCURVE",
"560 1095 OFFCURVE",
"594 1095 CURVE SMOOTH",
"639 1095 OFFCURVE",
"668 1078 OFFCURVE",
"663 1052 CURVE SMOOTH",
"658 1031 OFFCURVE",
"646 1025 OFFCURVE",
"593 1008 CURVE SMOOTH",
"532 989 OFFCURVE",
"514 962 OFFCURVE",
"527 920 CURVE"
);
}
);
};
components = (
{
name = A;
},
{
name = circumflexcomb.case;
transform = "{1, 0, 0, 1, 814, 0}";
},
{
anchor = top_right;
name = hookabovecomb.case;
transform = "{1, 0, 0, 1, 1006, 124}";
}
);
layerId = "11F4F77C-5A4A-42C7-A4D7-8096DDA1923A";
width = 662;
}
);
leftKerningGroup = A;
rightKerningGroup = A;
unicode = 1EA8;
},
{
color = 5;
glyphname = Acircumflextilde;
lastChange = "2019-12-20 09:13:02 +0000";
layers = (
{
components = (
{
name = A;
},
{
name = circumflexcomb.case;
transform = "{1, 0, 0, 1, 719, 0}";
},
{
name = tildecomb.case;
transform = "{1, 0, 0, 1, 719, 224}";
}
);
layerId = "38FA562F-EF2C-4367-983C-F15B205514DC";
width = 662;
},
{
components = (
{
name = A;
},
{
name = circumflexcomb.case;
transform = "{1, 0, 0, 1, 792, 0}";
},
{
name = tildecomb.case;
transform = "{1, 0, 0, 1, 791, 203}";
}
);
layerId = "E991CF0C-7E17-4C48-B08A-36C8E595ED17";
width = 749;
},
{
components = (
{
name = A;
},
{
name = circumflexcomb.case;
transform = "{1, 0, 0, 1, 792, 0}";
},
{
name = tildecomb.case;
transform = "{1, 0, 0, 1, 791, 203}";
}
);
layerId = "805D0193-4943-450F-A7B0-5A59B60D8C7D";
width = 749;
},
{
components = (
{
name = A;
},
{
name = circumflexcomb.case;
transform = "{1, 0, 0, 1, 719, 0}";
},
{
name = tildecomb.case;
transform = "{1, 0, 0, 1, 719, 224}";
}
);
layerId = "01407E7F-30D0-482B-A25C-5A532F071765";
width = 662;
},
{
background = {
anchors = (
{
name = bottom;
position = "{202, 0}";
},
{
name = ogonek;
position = "{521, 0}";
},
{
name = top;
position = "{437, 1103}";
},
{
name = top_right;
position = "{535, 824}";
}
);
paths = (
{
closed = 1;
nodes = (
"-42 0 LINE",
"75 192 LINE",
"417 192 LINE",
"456 0 LINE",
"521 0 LINE",
"376 700 LINE",
"326 700 LINE",
"-105 0 LINE"
);
},
{
closed = 1;
nodes = (
"331 614 LINE",
"406 246 LINE",
"107 246 LINE"
);
},
{
closed = 1;
nodes = (
"270 796 LINE",
"396 910 LINE",
"402 910 LINE",
"472 796 LINE",
"532 796 LINE",
"439 952 LINE",
"377 952 LINE",
"209 796 LINE"
);
},
{
closed = 1;
nodes = (
"307 1079 OFFCURVE",
"333 1098 OFFCURVE",
"361 1098 CURVE SMOOTH",
"406 1098 OFFCURVE",
"442 1050 OFFCURVE",
"499 1050 CURVE SMOOTH",
"543 1050 OFFCURVE",
"587 1081 OFFCURVE",
"620 1133 CURVE",
"587 1156 LINE",
"565 1120 OFFCURVE",
"540 1098 OFFCURVE",
"510 1098 CURVE SMOOTH",
"466 1098 OFFCURVE",
"428 1147 OFFCURVE",
"371 1147 CURVE SMOOTH",
"325 1147 OFFCURVE",
"283 1113 OFFCURVE",
"251 1063 CURVE",
"284 1041 LINE"
);
}
);
};
components = (
{
name = A;
},
{
name = circumflexcomb.case;
transform = "{1, 0, 0, 1, 814, 0}";
},
{
name = tildecomb.case;
transform = "{1, 0, 0, 1, 862, 224}";
}
);
layerId = "7A9E6466-FE38-4215-AA78-C86323202F89";
width = 662;
},
{
background = {
anchors = (
{
name = bottom;
position = "{253, 0}";
},
{
name = ogonek;
position = "{627, 0}";
},
{
name = top;
position = "{487, 1103}";
},
{
name = top_right;
position = "{685, 866}";
}
);
paths = (
{
closed = 1;
nodes = (
"100 0 LINE",
"165 125 LINE",
"386 125 LINE",
"399 0 LINE",
"627 0 LINE",
"521 700 LINE",
"281 700 LINE",
"-122 0 LINE"
);
},
{
closed = 1;
nodes = (
"354 492 LINE",
"378 292 LINE",
"244 292 LINE"
);
},
{
closed = 1;
nodes = (
"352 754 LINE",
"421 817 LINE",
"426 817 LINE",
"466 754 LINE",
"661 754 LINE",
"540 931 LINE",
"362 931 LINE",
"165 754 LINE"
);
},
{
closed = 1;
nodes = (
"317 983 OFFCURVE",
"348 1002 OFFCURVE",
"380 1002 CURVE SMOOTH",
"432 1002 OFFCURVE",
"478 952 OFFCURVE",
"552 952 CURVE SMOOTH",
"620 952 OFFCURVE",
"686 990 OFFCURVE",
"716 1068 CURVE",
"659 1151 LINE",
"635 1107 OFFCURVE",
"606 1089 OFFCURVE",
"575 1089 CURVE SMOOTH",
"520 1089 OFFCURVE",
"483 1139 OFFCURVE",
"410 1139 CURVE SMOOTH",
"343 1139 OFFCURVE",
"281 1099 OFFCURVE",
"234 1021 CURVE",
"291 939 LINE"
);
}
);
};
components = (
{
name = A;
},
{
name = circumflexcomb.case;
transform = "{1, 0, 0, 1, 888, 0}";
},
{
name = tildecomb.case;
transform = "{1, 0, 0, 1, 931, 203}";
}
);
layerId = "06050411-8C1E-4EA2-9807-ADB6E7423C7E";
width = 750;
},
{
background = {
anchors = (
{
name = bottom;
position = "{253, 0}";
},
{
name = ogonek;
position = "{627, 0}";
},
{
name = top;
position = "{487, 1103}";
},
{
name = top_right;
position = "{685, 866}";
}
);
paths = (
{
closed = 1;
nodes = (
"100 0 LINE",
"165 125 LINE",
"386 125 LINE",
"399 0 LINE",
"627 0 LINE",
"521 700 LINE",
"281 700 LINE",
"-122 0 LINE"
);
},
{
closed = 1;
nodes = (
"354 492 LINE",
"378 292 LINE",
"244 292 LINE"
);
},
{
closed = 1;
nodes = (
"352 754 LINE",
"421 817 LINE",
"426 817 LINE",
"466 754 LINE",
"661 754 LINE",
"540 931 LINE",
"362 931 LINE",
"165 754 LINE"
);
},
{
closed = 1;
nodes = (
"317 983 OFFCURVE",
"348 1002 OFFCURVE",
"380 1002 CURVE SMOOTH",
"432 1002 OFFCURVE",
"478 952 OFFCURVE",
"552 952 CURVE SMOOTH",
"620 952 OFFCURVE",
"686 990 OFFCURVE",
"716 1068 CURVE",
"659 1151 LINE",
"635 1107 OFFCURVE",
"606 1089 OFFCURVE",
"575 1089 CURVE SMOOTH",
"520 1089 OFFCURVE",
"483 1139 OFFCURVE",
"410 1139 CURVE SMOOTH",
"343 1139 OFFCURVE",
"281 1099 OFFCURVE",
"234 1021 CURVE",
"291 939 LINE"
);
}
);
};
components = (
{
name = A;
},
{
name = circumflexcomb.case;
transform = "{1, 0, 0, 1, 888, 0}";
},
{
name = tildecomb.case;
transform = "{1, 0, 0, 1, 931, 203}";
}
);
layerId = "AA96BE86-BB68-49D4-94A1-31EA360FFFA2";
width = 750;
},
{
background = {
anchors = (
{
name = bottom;
position = "{202, 0}";
},
{
name = ogonek;
position = "{521, 0}";
},
{
name = top;
position = "{437, 1103}";
},
{
name = top_right;
position = "{535, 824}";
}
);
paths = (
{
closed = 1;
nodes = (
"-42 0 LINE",
"75 192 LINE",
"417 192 LINE",
"456 0 LINE",
"521 0 LINE",
"376 700 LINE",
"326 700 LINE",
"-105 0 LINE"
);
},
{
closed = 1;
nodes = (
"331 614 LINE",
"406 246 LINE",
"107 246 LINE"
);
},
{
closed = 1;
nodes = (
"270 796 LINE",
"396 910 LINE",
"402 910 LINE",
"472 796 LINE",
"532 796 LINE",
"439 952 LINE",
"377 952 LINE",
"209 796 LINE"
);
},
{
closed = 1;
nodes = (
"307 1079 OFFCURVE",
"333 1098 OFFCURVE",
"361 1098 CURVE SMOOTH",
"406 1098 OFFCURVE",
"442 1050 OFFCURVE",
"499 1050 CURVE SMOOTH",
"543 1050 OFFCURVE",
"587 1081 OFFCURVE",
"620 1133 CURVE",
"587 1156 LINE",
"565 1120 OFFCURVE",
"540 1098 OFFCURVE",
"510 1098 CURVE SMOOTH",
"466 1098 OFFCURVE",
"428 1147 OFFCURVE",
"371 1147 CURVE SMOOTH",
"325 1147 OFFCURVE",
"283 1113 OFFCURVE",
"251 1063 CURVE",
"284 1041 LINE"
);
}
);
};
components = (
{
name = A;
},
{
name = circumflexcomb.case;
transform = "{1, 0, 0, 1, 814, 0}";
},
{
name = tildecomb.case;
transform = "{1, 0, 0, 1, 862, 224}";
}
);
layerId = "11F4F77C-5A4A-42C7-A4D7-8096DDA1923A";
width = 662;
}
);
leftKerningGroup = A;
rightKerningGroup = A;
unicode = 1EAA;
},
{
color = 5;
glyphname = Adblgrave;
lastChange = "2019-12-20 09:13:02 +0000";
layers = (
{
components = (
{
name = A;
},
{
name = dblgravecomb.case;
transform = "{1, 0, 0, 1, 719, 0}";
}
);
layerId = "38FA562F-EF2C-4367-983C-F15B205514DC";
width = 662;
},
{
components = (
{
name = A;
},
{
name = dblgravecomb.case;
transform = "{1, 0, 0, 1, 792, 0}";
}
);
layerId = "E991CF0C-7E17-4C48-B08A-36C8E595ED17";
width = 749;
},
{
components = (
{
name = A;
},
{
name = dblgravecomb.case;
transform = "{1, 0, 0, 1, 792, 0}";
}
);
layerId = "805D0193-4943-450F-A7B0-5A59B60D8C7D";
width = 749;
},
{
components = (
{
name = A;
},
{
name = dblgravecomb.case;
transform = "{1, 0, 0, 1, 719, 0}";
}
);
layerId = "01407E7F-30D0-482B-A25C-5A532F071765";
width = 662;
},
{
background = {
anchors = (
{
name = bottom;
position = "{224, 0}";
},
{
name = ogonek;
position = "{543, 0}";
},
{
name = top;
position = "{373, 700}";
}
);
paths = (
{
closed = 1;
nodes = (
"-20 0 LINE",
"97 192 LINE",
"439 192 LINE",
"478 0 LINE",
"543 0 LINE",
"398 700 LINE",
"348 700 LINE",
"-83 0 LINE"
);
},
{
closed = 1;
nodes = (
"352 614 LINE",
"428 246 LINE",
"129 246 LINE"
);
},
{
closed = 1;
nodes = (
"271 952 LINE",
"211 952 LINE",
"278 796 LINE",
"332 796 LINE"
);
},
{
closed = 1;
nodes = (
"446 952 LINE",
"386 952 LINE",
"453 796 LINE",
"507 796 LINE"
);
}
);
};
components = (
{
name = A;
},
{
name = dblgravecomb.case;
transform = "{1, 0, 0, 1, 814, 0}";
}
);
layerId = "7A9E6466-FE38-4215-AA78-C86323202F89";
width = 662;
},
{
background = {
anchors = (
{
name = bottom;
position = "{276, 0}";
},
{
name = ogonek;
position = "{650, 0}";
},
{
name = top;
position = "{425, 700}";
}
);
paths = (
{
closed = 1;
nodes = (
"123 0 LINE",
"189 125 LINE",
"410 125 LINE",
"422 0 LINE",
"650 0 LINE",
"545 700 LINE",
"305 700 LINE",
"-99 0 LINE"
);
},
{
closed = 1;
nodes = (
"378 492 LINE",
"401 292 LINE",
"267 292 LINE"
);
},
{
closed = 1;
nodes = (
"337 931 LINE",
"131 931 LINE",
"213 754 LINE",
"401 754 LINE"
);
},
{
closed = 1;
nodes = (
"617 931 LINE",
"410 931 LINE",
"492 754 LINE",
"680 754 LINE"
);
}
);
};
components = (
{
name = A;
},
{
name = dblgravecomb.case;
transform = "{1, 0, 0, 1, 888, 0}";
}
);
layerId = "06050411-8C1E-4EA2-9807-ADB6E7423C7E";
width = 750;
},
{
background = {
anchors = (
{
name = bottom;
position = "{276, 0}";
},
{
name = ogonek;
position = "{650, 0}";
},
{
name = top;
position = "{425, 700}";
}
);
paths = (
{
closed = 1;
nodes = (
"123 0 LINE",
"189 125 LINE",
"410 125 LINE",
"422 0 LINE",
"650 0 LINE",
"545 700 LINE",
"305 700 LINE",
"-99 0 LINE"
);
},
{
closed = 1;
nodes = (
"378 492 LINE",
"401 292 LINE",
"267 292 LINE"
);
},
{
closed = 1;
nodes = (
"337 931 LINE",
"131 931 LINE",
"213 754 LINE",
"401 754 LINE"
);
},
{
closed = 1;
nodes = (
"617 931 LINE",
"410 931 LINE",
"492 754 LINE",
"680 754 LINE"
);
}
);
};
components = (
{
name = A;
},
{
name = dblgravecomb.case;
transform = "{1, 0, 0, 1, 888, 0}";
}
);
layerId = "AA96BE86-BB68-49D4-94A1-31EA360FFFA2";
width = 750;
},
{
background = {
anchors = (
{
name = bottom;
position = "{224, 0}";
},
{
name = ogonek;
position = "{543, 0}";
},
{
name = top;
position = "{373, 700}";
}
);
paths = (
{
closed = 1;
nodes = (
"-20 0 LINE",
"97 192 LINE",
"439 192 LINE",
"478 0 LINE",
"543 0 LINE",
"398 700 LINE",
"348 700 LINE",
"-83 0 LINE"
);
},
{
closed = 1;
nodes = (
"352 614 LINE",
"428 246 LINE",
"129 246 LINE"
);
},
{
closed = 1;
nodes = (
"271 952 LINE",
"211 952 LINE",
"278 796 LINE",
"332 796 LINE"
);
},
{
closed = 1;
nodes = (
"446 952 LINE",
"386 952 LINE",
"453 796 LINE",
"507 796 LINE"
);
}
);
};
components = (
{
name = A;
},
{
name = dblgravecomb.case;
transform = "{1, 0, 0, 1, 814, 0}";
}
);
layerId = "11F4F77C-5A4A-42C7-A4D7-8096DDA1923A";
width = 662;
}
);
leftKerningGroup = A;
rightKerningGroup = A;
unicode = 0200;
},
{
color = 5;
glyphname = Adieresis;
lastChange = "2019-12-20 09:13:02 +0000";
layers = (
{
background = {
components = (
{
name = A;
},
{
name = dieresiscomb.case;
transform = "{1, 0, 0, 1, 792, 0}";
}
);
};
components = (
{
name = A;
},
{
name = dieresiscomb.case;
transform = "{1, 0, 0, 1, 792, 0}";
}
);
layerId = "E991CF0C-7E17-4C48-B08A-36C8E595ED17";
width = 749;
},
{
background = {
components = (
{
name = A;
},
{
name = dieresiscomb.case;
transform = "{1, 0, 0, 1, 744, 0}";
}
);
};
components = (
{
name = A;
},
{
name = dieresiscomb.case;
transform = "{1, 0, 0, 1, 719, 0}";
}
);
layerId = "38FA562F-EF2C-4367-983C-F15B205514DC";
width = 662;
},
{
background = {
components = (
{
name = A;
},
{
name = dieresiscomb.case;
transform = "{1, 0, 0, 1, 792, 0}";
}
);
};
components = (
{
name = A;
},
{
name = dieresiscomb.case;
transform = "{1, 0, 0, 1, 792, 0}";
}
);
layerId = "805D0193-4943-450F-A7B0-5A59B60D8C7D";
width = 749;
},
{
background = {
components = (
{
name = A;
},
{
name = dieresiscomb.case;
transform = "{1, 0, 0, 1, 744, 0}";
}
);
};
components = (
{
name = A;
},
{
name = dieresiscomb.case;
transform = "{1, 0, 0, 1, 719, 0}";
}
);
layerId = "01407E7F-30D0-482B-A25C-5A532F071765";
width = 662;
},
{
background = {
anchors = (
{
name = bottom;
position = "{231, 0}";
},
{
name = ogonek;
position = "{550, 0}";
},
{
name = top;
position = "{412, 852}";
}
);
paths = (
{
closed = 1;
nodes = (
"-13 0 LINE",
"104 192 LINE",
"446 192 LINE",
"485 0 LINE",
"550 0 LINE",
"405 700 LINE",
"355 700 LINE",
"-76 0 LINE"
);
},
{
closed = 1;
nodes = (
"359 614 LINE",
"435 246 LINE",
"136 246 LINE"
);
},
{
closed = 1;
nodes = (
"343 793 OFFCURVE",
"369 814 OFFCURVE",
"374 839 CURVE SMOOTH",
"380 864 OFFCURVE",
"362 885 OFFCURVE",
"336 885 CURVE SMOOTH",
"309 885 OFFCURVE",
"284 864 OFFCURVE",
"278 839 CURVE SMOOTH",
"273 814 OFFCURVE",
"291 793 OFFCURVE",
"317 793 CURVE SMOOTH"
);
},
{
closed = 1;
nodes = (
"510 793 OFFCURVE",
"535 814 OFFCURVE",
"540 839 CURVE SMOOTH",
"546 864 OFFCURVE",
"529 885 OFFCURVE",
"502 885 CURVE SMOOTH",
"476 885 OFFCURVE",
"450 864 OFFCURVE",
"444 839 CURVE SMOOTH",
"439 814 OFFCURVE",
"457 793 OFFCURVE",
"483 793 CURVE SMOOTH"
);
}
);
};
components = (
{
name = A;
},
{
name = dieresiscomb.case;
transform = "{1, 0, 0, 1, 805, 0}";
}
);
layerId = "7A9E6466-FE38-4215-AA78-C86323202F89";
width = 662;
},
{
background = {
anchors = (
{
name = bottom;
position = "{273, 0}";
},
{
name = ogonek;
position = "{647, 0}";
},
{
name = top;
position = "{468, 915}";
}
);
paths = (
{
closed = 1;
nodes = (
"120 0 LINE",
"186 125 LINE",
"407 125 LINE",
"419 0 LINE",
"647 0 LINE",
"542 700 LINE",
"302 700 LINE",
"-102 0 LINE"
);
},
{
closed = 1;
nodes = (
"375 492 LINE",
"398 292 LINE",
"264 292 LINE"
);
},
{
closed = 1;
nodes = (
"347 753 OFFCURVE",
"409 791 OFFCURVE",
"423 856 CURVE SMOOTH",
"437 920 OFFCURVE",
"391 959 OFFCURVE",
"335 959 CURVE SMOOTH",
"279 959 OFFCURVE",
"218 920 OFFCURVE",
"204 856 CURVE SMOOTH",
"190 792 OFFCURVE",
"235 753 OFFCURVE",
"291 753 CURVE SMOOTH"
);
},
{
closed = 1;
nodes = (
"631 753 OFFCURVE",
"693 791 OFFCURVE",
"707 856 CURVE SMOOTH",
"721 920 OFFCURVE",
"675 959 OFFCURVE",
"619 959 CURVE SMOOTH",
"563 959 OFFCURVE",
"502 920 OFFCURVE",
"488 856 CURVE SMOOTH",
"474 792 OFFCURVE",
"519 753 OFFCURVE",
"575 753 CURVE SMOOTH"
);
}
);
};
components = (
{
name = A;
},
{
name = dieresiscomb.case;
transform = "{1, 0, 0, 1, 888, 0}";
}
);
layerId = "06050411-8C1E-4EA2-9807-ADB6E7423C7E";
width = 750;
},
{
background = {
anchors = (
{
name = bottom;
position = "{273, 0}";
},
{
name = ogonek;
position = "{647, 0}";
},
{
name = top;
position = "{468, 915}";
}
);
paths = (
{
closed = 1;
nodes = (
"120 0 LINE",
"186 125 LINE",
"407 125 LINE",
"419 0 LINE",
"647 0 LINE",
"542 700 LINE",
"302 700 LINE",
"-102 0 LINE"
);
},
{
closed = 1;
nodes = (
"375 492 LINE",
"398 292 LINE",
"264 292 LINE"
);
},
{
closed = 1;
nodes = (
"347 753 OFFCURVE",
"409 791 OFFCURVE",
"423 856 CURVE SMOOTH",
"437 920 OFFCURVE",
"391 959 OFFCURVE",
"335 959 CURVE SMOOTH",
"279 959 OFFCURVE",
"218 920 OFFCURVE",
"204 856 CURVE SMOOTH",
"190 792 OFFCURVE",
"235 753 OFFCURVE",
"291 753 CURVE SMOOTH"
);
},
{
closed = 1;
nodes = (
"631 753 OFFCURVE",
"693 791 OFFCURVE",
"707 856 CURVE SMOOTH",
"721 920 OFFCURVE",
"675 959 OFFCURVE",
"619 959 CURVE SMOOTH",
"563 959 OFFCURVE",
"502 920 OFFCURVE",
"488 856 CURVE SMOOTH",
"474 792 OFFCURVE",
"519 753 OFFCURVE",
"575 753 CURVE SMOOTH"
);
}
);
};
components = (
{
name = A;
},
{
name = dieresiscomb.case;
transform = "{1, 0, 0, 1, 888, 0}";
}
);
layerId = "AA96BE86-BB68-49D4-94A1-31EA360FFFA2";
width = 750;
},
{
background = {
anchors = (
{
name = bottom;
position = "{231, 0}";
},
{
name = ogonek;
position = "{550, 0}";
},
{
name = top;
position = "{412, 852}";
}
);
paths = (
{
closed = 1;
nodes = (
"-13 0 LINE",
"104 192 LINE",
"446 192 LINE",
"485 0 LINE",
"550 0 LINE",
"405 700 LINE",
"355 700 LINE",
"-76 0 LINE"
);
},
{
closed = 1;
nodes = (
"359 614 LINE",
"435 246 LINE",
"136 246 LINE"
);
},
{
closed = 1;
nodes = (
"343 793 OFFCURVE",
"369 814 OFFCURVE",
"374 839 CURVE SMOOTH",
"380 864 OFFCURVE",
"362 885 OFFCURVE",
"336 885 CURVE SMOOTH",
"309 885 OFFCURVE",
"284 864 OFFCURVE",
"278 839 CURVE SMOOTH",
"273 814 OFFCURVE",
"291 793 OFFCURVE",
"317 793 CURVE SMOOTH"
);
},
{
closed = 1;
nodes = (
"510 793 OFFCURVE",
"535 814 OFFCURVE",
"540 839 CURVE SMOOTH",
"546 864 OFFCURVE",
"529 885 OFFCURVE",
"502 885 CURVE SMOOTH",
"476 885 OFFCURVE",
"450 864 OFFCURVE",
"444 839 CURVE SMOOTH",
"439 814 OFFCURVE",
"457 793 OFFCURVE",
"483 793 CURVE SMOOTH"
);
}
);
};
components = (
{
name = A;
},
{
name = dieresiscomb.case;
transform = "{1, 0, 0, 1, 805, 0}";
}
);
layerId = "11F4F77C-5A4A-42C7-A4D7-8096DDA1923A";
width = 662;
}
);
leftKerningGroup = A;
rightKerningGroup = A;
unicode = 00C4;
},
{
color = 5;
glyphname = Adotbelow;
lastChange = "2019-12-20 09:13:02 +0000";
layers = (
{
components = (
{
name = A;
},
{
name = dotbelowcomb;
transform = "{1, 0, 0, 1, 618, 0}";
}
);
layerId = "38FA562F-EF2C-4367-983C-F15B205514DC";
width = 662;
},
{
components = (
{
name = A;
},
{
name = dotbelowcomb;
transform = "{1, 0, 0, 1, 694, 0}";
}
);
layerId = "E991CF0C-7E17-4C48-B08A-36C8E595ED17";
width = 749;
},
{
components = (
{
name = A;
},
{
name = dotbelowcomb;
transform = "{1, 0, 0, 1, 694, 0}";
}
);
layerId = "805D0193-4943-450F-A7B0-5A59B60D8C7D";
width = 749;
},
{
components = (
{
name = A;
},
{
name = dotbelowcomb;
transform = "{1, 0, 0, 1, 618, 0}";
}
);
layerId = "01407E7F-30D0-482B-A25C-5A532F071765";
width = 662;
},
{
background = {
anchors = (
{
name = bottom;
position = "{276, 0}";
},
{
name = ogonek;
position = "{595, 0}";
},
{
name = top;
position = "{424, 700}";
}
);
paths = (
{
closed = 1;
nodes = (
"32 0 LINE",
"148 192 LINE",
"490 192 LINE",
"530 0 LINE",
"595 0 LINE",
"449 700 LINE",
"399 700 LINE",
"-31 0 LINE"
);
},
{
closed = 1;
nodes = (
"404 614 LINE",
"480 246 LINE",
"181 246 LINE"
);
},
{
closed = 1;
nodes = (
"252 -236 OFFCURVE",
"277 -215 OFFCURVE",
"283 -189 CURVE SMOOTH",
"288 -163 OFFCURVE",
"272 -142 OFFCURVE",
"246 -142 CURVE SMOOTH",
"220 -142 OFFCURVE",
"194 -163 OFFCURVE",
"189 -189 CURVE SMOOTH",
"183 -215 OFFCURVE",
"200 -236 OFFCURVE",
"226 -236 CURVE SMOOTH"
);
}
);
};
components = (
{
name = A;
},
{
name = dotbelowcomb;
transform = "{1, 0, 0, 1, 527, 0}";
}
);
layerId = "7A9E6466-FE38-4215-AA78-C86323202F89";
width = 662;
},
{
background = {
anchors = (
{
name = bottom;
position = "{330, 0}";
},
{
name = ogonek;
position = "{704, 0}";
},
{
name = top;
position = "{479, 700}";
}
);
paths = (
{
closed = 1;
nodes = (
"177 0 LINE",
"243 125 LINE",
"464 125 LINE",
"476 0 LINE",
"704 0 LINE",
"599 700 LINE",
"359 700 LINE",
"-45 0 LINE"
);
},
{
closed = 1;
nodes = (
"432 492 LINE",
"455 292 LINE",
"321 292 LINE"
);
},
{
closed = 1;
nodes = (
"333 -279 OFFCURVE",
"394 -239 OFFCURVE",
"408 -173 CURVE SMOOTH",
"423 -107 OFFCURVE",
"378 -67 OFFCURVE",
"316 -67 CURVE SMOOTH",
"254 -67 OFFCURVE",
"193 -107 OFFCURVE",
"178 -173 CURVE SMOOTH",
"164 -239 OFFCURVE",
"209 -279 OFFCURVE",
"271 -279 CURVE SMOOTH"
);
}
);
};
components = (
{
name = A;
},
{
name = dotbelowcomb;
transform = "{1, 0, 0, 1, 606, 0}";
}
);
layerId = "06050411-8C1E-4EA2-9807-ADB6E7423C7E";
width = 750;
},
{
background = {
anchors = (
{
name = bottom;
position = "{330, 0}";
},
{
name = ogonek;
position = "{704, 0}";
},
{
name = top;
position = "{479, 700}";
}
);
paths = (
{
closed = 1;
nodes = (
"177 0 LINE",
"243 125 LINE",
"464 125 LINE",
"476 0 LINE",
"704 0 LINE",
"599 700 LINE",
"359 700 LINE",
"-45 0 LINE"
);
},
{
closed = 1;
nodes = (
"432 492 LINE",
"455 292 LINE",
"321 292 LINE"
);
},
{
closed = 1;
nodes = (
"333 -279 OFFCURVE",
"394 -239 OFFCURVE",
"408 -173 CURVE SMOOTH",
"423 -107 OFFCURVE",
"378 -67 OFFCURVE",
"316 -67 CURVE SMOOTH",
"254 -67 OFFCURVE",
"193 -107 OFFCURVE",
"178 -173 CURVE SMOOTH",
"164 -239 OFFCURVE",
"209 -279 OFFCURVE",
"271 -279 CURVE SMOOTH"
);
}
);
};
components = (
{
name = A;
},
{
name = dotbelowcomb;
transform = "{1, 0, 0, 1, 606, 0}";
}
);
layerId = "AA96BE86-BB68-49D4-94A1-31EA360FFFA2";
width = 750;
},
{
background = {
anchors = (
{
name = bottom;
position = "{276, 0}";
},
{
name = ogonek;
position = "{595, 0}";
},
{
name = top;
position = "{424, 700}";
}
);
paths = (
{
closed = 1;
nodes = (
"32 0 LINE",
"148 192 LINE",
"490 192 LINE",
"530 0 LINE",
"595 0 LINE",
"449 700 LINE",
"399 700 LINE",
"-31 0 LINE"
);
},
{
closed = 1;
nodes = (
"404 614 LINE",
"480 246 LINE",
"181 246 LINE"
);
},
{
closed = 1;
nodes = (
"252 -236 OFFCURVE",
"277 -215 OFFCURVE",
"283 -189 CURVE SMOOTH",
"288 -163 OFFCURVE",
"272 -142 OFFCURVE",
"246 -142 CURVE SMOOTH",
"220 -142 OFFCURVE",
"194 -163 OFFCURVE",
"189 -189 CURVE SMOOTH",
"183 -215 OFFCURVE",
"200 -236 OFFCURVE",
"226 -236 CURVE SMOOTH"
);
}
);
};
components = (
{
name = A;
},
{
name = dotbelowcomb;
transform = "{1, 0, 0, 1, 527, 0}";
}
);
layerId = "11F4F77C-5A4A-42C7-A4D7-8096DDA1923A";
width = 662;
}
);
leftKerningGroup = A;
rightKerningGroup = A;
unicode = 1EA0;
},
{
color = 5;
glyphname = Agrave;
lastChange = "2019-12-20 09:13:02 +0000";
layers = (
{
background = {
components = (
{
name = A;
},
{
name = gravecomb.case;
transform = "{1, 0, 0, 1, 792, 0}";
}
);
};
components = (
{
name = A;
},
{
name = gravecomb.case;
transform = "{1, 0, 0, 1, 792, 0}";
}
);
layerId = "E991CF0C-7E17-4C48-B08A-36C8E595ED17";
width = 749;
},
{
background = {
components = (
{
name = A;
},
{
name = gravecomb.case;
transform = "{1, 0, 0, 1, 744, 0}";
}
);
};
components = (
{
name = A;
},
{
name = gravecomb.case;
transform = "{1, 0, 0, 1, 719, 0}";
}
);
layerId = "38FA562F-EF2C-4367-983C-F15B205514DC";
width = 662;
},
{
background = {
components = (
{
name = A;
},
{
name = gravecomb.case;
transform = "{1, 0, 0, 1, 792, 0}";
}
);
};
components = (
{
name = A;
},
{
name = gravecomb.case;
transform = "{1, 0, 0, 1, 792, 0}";
}
);
layerId = "805D0193-4943-450F-A7B0-5A59B60D8C7D";
width = 749;
},
{
background = {
components = (
{
name = A;
},
{
name = gravecomb.case;
transform = "{1, 0, 0, 1, 744, 0}";
}
);
};
components = (
{
name = A;
},
{
name = gravecomb.case;
transform = "{1, 0, 0, 1, 719, 0}";
}
);
layerId = "01407E7F-30D0-482B-A25C-5A532F071765";
width = 662;
},
{
background = {
anchors = (
{
name = bottom;
position = "{224, 0}";
},
{
name = ogonek;
position = "{543, 0}";
},
{
name = top;
position = "{373, 700}";
}
);
paths = (
{
closed = 1;
nodes = (
"-20 0 LINE",
"97 192 LINE",
"439 192 LINE",
"478 0 LINE",
"543 0 LINE",
"398 700 LINE",
"348 700 LINE",
"-83 0 LINE"
);
},
{
closed = 1;
nodes = (
"352 614 LINE",
"428 246 LINE",
"129 246 LINE"
);
},
{
closed = 1;
nodes = (
"433 796 LINE",
"373 952 LINE",
"310 952 LINE",
"377 796 LINE"
);
}
);
};
components = (
{
name = A;
},
{
name = gravecomb.case;
transform = "{1, 0, 0, 1, 814, 0}";
}
);
layerId = "7A9E6466-FE38-4215-AA78-C86323202F89";
width = 662;
},
{
background = {
anchors = (
{
name = bottom;
position = "{276, 0}";
},
{
name = ogonek;
position = "{650, 0}";
},
{
name = top;
position = "{425, 700}";
}
);
paths = (
{
closed = 1;
nodes = (
"123 0 LINE",
"189 125 LINE",
"410 125 LINE",
"422 0 LINE",
"650 0 LINE",
"545 700 LINE",
"305 700 LINE",
"-99 0 LINE"
);
},
{
closed = 1;
nodes = (
"378 492 LINE",
"401 292 LINE",
"267 292 LINE"
);
},
{
closed = 1;
nodes = (
"541 754 LINE",
"480 931 LINE",
"269 931 LINE",
"348 754 LINE"
);
}
);
};
components = (
{
name = A;
},
{
name = gravecomb.case;
transform = "{1, 0, 0, 1, 887, 0}";
}
);
layerId = "06050411-8C1E-4EA2-9807-ADB6E7423C7E";
width = 750;
},
{
background = {
anchors = (
{
name = bottom;
position = "{276, 0}";
},
{
name = ogonek;
position = "{650, 0}";
},
{
name = top;
position = "{425, 700}";
}
);
paths = (
{
closed = 1;
nodes = (
"123 0 LINE",
"189 125 LINE",
"410 125 LINE",
"422 0 LINE",
"650 0 LINE",
"545 700 LINE",
"305 700 LINE",
"-99 0 LINE"
);
},
{
closed = 1;
nodes = (
"378 492 LINE",
"401 292 LINE",
"267 292 LINE"
);
},
{
closed = 1;
nodes = (
"541 754 LINE",
"480 931 LINE",
"269 931 LINE",
"348 754 LINE"
);
}
);
};
components = (
{
name = A;
},
{
name = gravecomb.case;
transform = "{1, 0, 0, 1, 887, 0}";
}
);
layerId = "AA96BE86-BB68-49D4-94A1-31EA360FFFA2";
width = 750;
},
{
background = {
anchors = (
{
name = bottom;
position = "{224, 0}";
},
{
name = ogonek;
position = "{543, 0}";
},
{
name = top;
position = "{373, 700}";
}
);
paths = (
{
closed = 1;
nodes = (
"-20 0 LINE",
"97 192 LINE",
"439 192 LINE",
"478 0 LINE",
"543 0 LINE",
"398 700 LINE",
"348 700 LINE",
"-83 0 LINE"
);
},
{
closed = 1;
nodes = (
"352 614 LINE",
"428 246 LINE",
"129 246 LINE"
);
},
{
closed = 1;
nodes = (
"433 796 LINE",
"373 952 LINE",
"310 952 LINE",
"377 796 LINE"
);
}
);
};
components = (
{
name = A;
},
{
name = gravecomb.case;
transform = "{1, 0, 0, 1, 814, 0}";
}
);
layerId = "11F4F77C-5A4A-42C7-A4D7-8096DDA1923A";
width = 662;
}
);
leftKerningGroup = A;
rightKerningGroup = A;
unicode = 00C0;
},
{
color = 5;
glyphname = Ahookabove;
lastChange = "2019-12-20 09:13:02 +0000";
layers = (
{
components = (
{
name = A;
},
{
name = hookabovecomb.case;
transform = "{1, 0, 0, 1, 719, 0}";
}
);
layerId = "38FA562F-EF2C-4367-983C-F15B205514DC";
width = 662;
},
{
components = (
{
name = A;
},
{
name = hookabovecomb.case;
transform = "{1, 0, 0, 1, 787, 0}";
}
);
layerId = "E991CF0C-7E17-4C48-B08A-36C8E595ED17";
width = 749;
},
{
components = (
{
name = A;
},
{
name = hookabovecomb.case;
transform = "{1, 0, 0, 1, 787, 0}";
}
);
layerId = "805D0193-4943-450F-A7B0-5A59B60D8C7D";
width = 749;
},
{
components = (
{
name = A;
},
{
name = hookabovecomb.case;
transform = "{1, 0, 0, 1, 719, 0}";
}
);
layerId = "01407E7F-30D0-482B-A25C-5A532F071765";
width = 662;
},
{
background = {
anchors = (
{
name = bottom;
position = "{217, 0}";
},
{
name = ogonek;
position = "{536, 0}";
},
{
name = top;
position = "{366, 700}";
}
);
paths = (
{
closed = 1;
nodes = (
"-27 0 LINE",
"90 192 LINE",
"432 192 LINE",
"471 0 LINE",
"536 0 LINE",
"391 700 LINE",
"341 700 LINE",
"-90 0 LINE"
);
},
{
closed = 1;
nodes = (
"346 614 LINE",
"422 246 LINE",
"123 246 LINE"
);
},
{
closed = 1;
nodes = (
"403 796 LINE",
"392 832 OFFCURVE",
"403 844 OFFCURVE",
"452 862 CURVE SMOOTH",
"514 885 OFFCURVE",
"534 901 OFFCURVE",
"542 937 CURVE SMOOTH",
"551 980 OFFCURVE",
"505 1012 OFFCURVE",
"434 1012 CURVE SMOOTH",
"392 1012 OFFCURVE",
"349 1004 OFFCURVE",
"312 989 CURVE",
"322 952 LINE",
"351 964 OFFCURVE",
"389 971 OFFCURVE",
"423 971 CURVE SMOOTH",
"468 971 OFFCURVE",
"497 954 OFFCURVE",
"492 928 CURVE SMOOTH",
"487 907 OFFCURVE",
"475 901 OFFCURVE",
"421 884 CURVE SMOOTH",
"361 865 OFFCURVE",
"343 838 OFFCURVE",
"356 796 CURVE"
);
}
);
};
components = (
{
name = A;
},
{
name = hookabovecomb.case;
transform = "{1, 0, 0, 1, 821, 0}";
}
);
layerId = "7A9E6466-FE38-4215-AA78-C86323202F89";
width = 662;
},
{
background = {
anchors = (
{
name = bottom;
position = "{272, 0}";
},
{
name = ogonek;
position = "{646, 0}";
},
{
name = top;
position = "{421, 700}";
}
);
paths = (
{
closed = 1;
nodes = (
"119 0 LINE",
"184 125 LINE",
"405 125 LINE",
"418 0 LINE",
"646 0 LINE",
"541 700 LINE",
"301 700 LINE",
"-103 0 LINE"
);
},
{
closed = 1;
nodes = (
"373 492 LINE",
"397 292 LINE",
"263 292 LINE"
);
},
{
closed = 1;
nodes = (
"493 754 LINE",
"487 768 OFFCURVE",
"488 779 OFFCURVE",
"533 798 CURVE SMOOTH",
"583 820 OFFCURVE",
"604 843 OFFCURVE",
"612 880 CURVE SMOOTH",
"624 936 OFFCURVE",
"572 970 OFFCURVE",
"478 970 CURVE SMOOTH",
"427 970 OFFCURVE",
"367 958 OFFCURVE",
"327 939 CURVE",
"334 845 LINE",
"359 856 OFFCURVE",
"381 863 OFFCURVE",
"414 863 CURVE SMOOTH",
"433 863 OFFCURVE",
"448 859 OFFCURVE",
"447 852 CURVE SMOOTH",
"445 844 OFFCURVE",
"439 841 OFFCURVE",
"412 834 CURVE SMOOTH",
"367 822 OFFCURVE",
"350 794 OFFCURVE",
"367 754 CURVE"
);
}
);
};
components = (
{
name = A;
},
{
name = hookabovecomb.case;
transform = "{1, 0, 0, 1, 888, 0}";
}
);
layerId = "06050411-8C1E-4EA2-9807-ADB6E7423C7E";
width = 750;
},
{
background = {
anchors = (
{
name = bottom;
position = "{272, 0}";
},
{
name = ogonek;
position = "{646, 0}";
},
{
name = top;
position = "{421, 700}";
}
);
paths = (
{
closed = 1;
nodes = (
"119 0 LINE",
"184 125 LINE",
"405 125 LINE",
"418 0 LINE",
"646 0 LINE",
"541 700 LINE",
"301 700 LINE",
"-103 0 LINE"
);
},
{
closed = 1;
nodes = (
"373 492 LINE",
"397 292 LINE",
"263 292 LINE"
);
},
{
closed = 1;
nodes = (
"493 754 LINE",
"487 768 OFFCURVE",
"488 779 OFFCURVE",
"533 798 CURVE SMOOTH",
"583 820 OFFCURVE",
"604 843 OFFCURVE",
"612 880 CURVE SMOOTH",
"624 936 OFFCURVE",
"572 970 OFFCURVE",
"478 970 CURVE SMOOTH",
"427 970 OFFCURVE",
"367 958 OFFCURVE",
"327 939 CURVE",
"334 845 LINE",
"359 856 OFFCURVE",
"381 863 OFFCURVE",
"414 863 CURVE SMOOTH",
"433 863 OFFCURVE",
"448 859 OFFCURVE",
"447 852 CURVE SMOOTH",
"445 844 OFFCURVE",
"439 841 OFFCURVE",
"412 834 CURVE SMOOTH",
"367 822 OFFCURVE",
"350 794 OFFCURVE",
"367 754 CURVE"
);
}
);
};
components = (
{
name = A;
},
{
name = hookabovecomb.case;
transform = "{1, 0, 0, 1, 888, 0}";
}
);
layerId = "AA96BE86-BB68-49D4-94A1-31EA360FFFA2";
width = 750;
},
{
background = {
anchors = (
{
name = bottom;
position = "{217, 0}";
},
{
name = ogonek;
position = "{536, 0}";
},
{
name = top;
position = "{366, 700}";
}
);
paths = (
{
closed = 1;
nodes = (
"-27 0 LINE",
"90 192 LINE",
"432 192 LINE",
"471 0 LINE",
"536 0 LINE",
"391 700 LINE",
"341 700 LINE",
"-90 0 LINE"
);
},
{
closed = 1;
nodes = (
"346 614 LINE",
"422 246 LINE",
"123 246 LINE"
);
},
{
closed = 1;
nodes = (
"403 796 LINE",
"392 832 OFFCURVE",
"403 844 OFFCURVE",
"452 862 CURVE SMOOTH",
"514 885 OFFCURVE",
"534 901 OFFCURVE",
"542 937 CURVE SMOOTH",
"551 980 OFFCURVE",
"505 1012 OFFCURVE",
"434 1012 CURVE SMOOTH",
"392 1012 OFFCURVE",
"349 1004 OFFCURVE",
"312 989 CURVE",
"322 952 LINE",
"351 964 OFFCURVE",
"389 971 OFFCURVE",
"423 971 CURVE SMOOTH",
"468 971 OFFCURVE",
"497 954 OFFCURVE",
"492 928 CURVE SMOOTH",
"487 907 OFFCURVE",
"475 901 OFFCURVE",
"421 884 CURVE SMOOTH",
"361 865 OFFCURVE",
"343 838 OFFCURVE",
"356 796 CURVE"
);
}
);
};
components = (
{
name = A;
},
{
name = hookabovecomb.case;
transform = "{1, 0, 0, 1, 821, 0}";
}
);
layerId = "11F4F77C-5A4A-42C7-A4D7-8096DDA1923A";
width = 662;
}
);
leftKerningGroup = A;
rightKerningGroup = A;
unicode = 1EA2;
},
{
color = 5;
glyphname = Ainvertedbreve;
lastChange = "2019-12-20 09:13:02 +0000";
layers = (
{
components = (
{
name = A;
},
{
name = breveinvertedcomb.case;
transform = "{1, 0, 0, 1, 719, 0}";
}
);
layerId = "38FA562F-EF2C-4367-983C-F15B205514DC";
width = 662;
},
{
components = (
{
name = A;
},
{
name = breveinvertedcomb.case;
transform = "{1, 0, 0, 1, 791, 0}";
}
);
layerId = "E991CF0C-7E17-4C48-B08A-36C8E595ED17";
width = 749;
},
{
components = (
{
name = A;
},
{
name = breveinvertedcomb.case;
transform = "{1, 0, 0, 1, 791, 0}";
}
);
layerId = "805D0193-4943-450F-A7B0-5A59B60D8C7D";
width = 749;
},
{
components = (
{
name = A;
},
{
name = breveinvertedcomb.case;
transform = "{1, 0, 0, 1, 719, 0}";
}
);
layerId = "01407E7F-30D0-482B-A25C-5A532F071765";
width = 662;
},
{
background = {
anchors = (
{
name = bottom;
position = "{223, 0}";
},
{
name = ogonek;
position = "{542, 0}";
},
{
name = top;
position = "{372, 700}";
}
);
paths = (
{
closed = 1;
nodes = (
"-21 0 LINE",
"96 192 LINE",
"438 192 LINE",
"477 0 LINE",
"542 0 LINE",
"397 700 LINE",
"347 700 LINE",
"-84 0 LINE"
);
},
{
closed = 1;
nodes = (
"352 614 LINE",
"428 246 LINE",
"129 246 LINE"
);
},
{
closed = 1;
nodes = (
"274 796 LINE",
"286 864 OFFCURVE",
"345 910 OFFCURVE",
"417 910 CURVE SMOOTH",
"490 910 OFFCURVE",
"526 864 OFFCURVE",
"507 796 CURVE",
"559 796 LINE",
"582 885 OFFCURVE",
"527 957 OFFCURVE",
"427 957 CURVE SMOOTH",
"329 957 OFFCURVE",
"240 892 OFFCURVE",
"223 796 CURVE"
);
}
);
};
components = (
{
name = A;
},
{
name = breveinvertedcomb.case;
transform = "{1, 0, 0, 1, 815, 0}";
}
);
layerId = "7A9E6466-FE38-4215-AA78-C86323202F89";
width = 662;
},
{
background = {
anchors = (
{
name = bottom;
position = "{276, 0}";
},
{
name = ogonek;
position = "{650, 0}";
},
{
name = top;
position = "{424, 700}";
}
);
paths = (
{
closed = 1;
nodes = (
"123 0 LINE",
"188 125 LINE",
"409 125 LINE",
"422 0 LINE",
"650 0 LINE",
"544 700 LINE",
"304 700 LINE",
"-99 0 LINE"
);
},
{
closed = 1;
nodes = (
"377 492 LINE",
"401 292 LINE",
"267 292 LINE"
);
},
{
closed = 1;
nodes = (
"378 754 LINE",
"383 787 OFFCURVE",
"409 807 OFFCURVE",
"447 807 CURVE SMOOTH",
"484 807 OFFCURVE",
"503 787 OFFCURVE",
"494 754 CURVE",
"662 754 LINE",
"687 862 OFFCURVE",
"608 936 OFFCURVE",
"474 936 CURVE SMOOTH",
"336 936 OFFCURVE",
"231 864 OFFCURVE",
"210 754 CURVE"
);
}
);
};
components = (
{
name = A;
},
{
name = breveinvertedcomb.case;
transform = "{1, 0, 0, 1, 887, 0}";
}
);
layerId = "06050411-8C1E-4EA2-9807-ADB6E7423C7E";
width = 750;
},
{
background = {
anchors = (
{
name = bottom;
position = "{276, 0}";
},
{
name = ogonek;
position = "{650, 0}";
},
{
name = top;
position = "{424, 700}";
}
);
paths = (
{
closed = 1;
nodes = (
"123 0 LINE",
"188 125 LINE",
"409 125 LINE",
"422 0 LINE",
"650 0 LINE",
"544 700 LINE",
"304 700 LINE",
"-99 0 LINE"
);
},
{
closed = 1;
nodes = (
"377 492 LINE",
"401 292 LINE",
"267 292 LINE"
);
},
{
closed = 1;
nodes = (
"378 754 LINE",
"383 787 OFFCURVE",
"409 807 OFFCURVE",
"447 807 CURVE SMOOTH",
"484 807 OFFCURVE",
"503 787 OFFCURVE",
"494 754 CURVE",
"662 754 LINE",
"687 862 OFFCURVE",
"608 936 OFFCURVE",
"474 936 CURVE SMOOTH",
"336 936 OFFCURVE",
"231 864 OFFCURVE",
"210 754 CURVE"
);
}
);
};
components = (
{
name = A;
},
{
name = breveinvertedcomb.case;
transform = "{1, 0, 0, 1, 887, 0}";
}
);
layerId = "AA96BE86-BB68-49D4-94A1-31EA360FFFA2";
width = 750;
},
{
background = {
anchors = (
{
name = bottom;
position = "{223, 0}";
},
{
name = ogonek;
position = "{542, 0}";
},
{
name = top;
position = "{372, 700}";
}
);
paths = (
{
closed = 1;
nodes = (
"-21 0 LINE",
"96 192 LINE",
"438 192 LINE",
"477 0 LINE",
"542 0 LINE",
"397 700 LINE",
"347 700 LINE",
"-84 0 LINE"
);
},
{
closed = 1;
nodes = (
"352 614 LINE",
"428 246 LINE",
"129 246 LINE"
);
},
{
closed = 1;
nodes = (
"274 796 LINE",
"286 864 OFFCURVE",
"345 910 OFFCURVE",
"417 910 CURVE SMOOTH",
"490 910 OFFCURVE",
"526 864 OFFCURVE",
"507 796 CURVE",
"559 796 LINE",
"582 885 OFFCURVE",
"527 957 OFFCURVE",
"427 957 CURVE SMOOTH",
"329 957 OFFCURVE",
"240 892 OFFCURVE",
"223 796 CURVE"
);
}
);
};
components = (
{
name = A;
},
{
name = breveinvertedcomb.case;
transform = "{1, 0, 0, 1, 815, 0}";
}
);
layerId = "11F4F77C-5A4A-42C7-A4D7-8096DDA1923A";
width = 662;
}
);
leftKerningGroup = A;
rightKerningGroup = A;
unicode = 0202;
},
{
color = 5;
glyphname = Amacron;
lastChange = "2019-12-20 09:13:02 +0000";
layers = (
{
components = (
{
name = A;
},
{
name = macroncomb.case;
transform = "{1, 0, 0, 1, 719, 0}";
}
);
layerId = "38FA562F-EF2C-4367-983C-F15B205514DC";
width = 662;
},
{
components = (
{
name = A;
},
{
name = macroncomb.case;
transform = "{1, 0, 0, 1, 791, 0}";
}
);
layerId = "E991CF0C-7E17-4C48-B08A-36C8E595ED17";
width = 749;
},
{
components = (
{
name = A;
},
{
name = macroncomb.case;
transform = "{1, 0, 0, 1, 791, 0}";
}
);
layerId = "805D0193-4943-450F-A7B0-5A59B60D8C7D";
width = 749;
},
{
components = (
{
name = A;
},
{
name = macroncomb.case;
transform = "{1, 0, 0, 1, 719, 0}";
}
);
layerId = "01407E7F-30D0-482B-A25C-5A532F071765";
width = 662;
},
{
background = {
anchors = (
{
name = bottom;
position = "{232, 0}";
},
{
name = ogonek;
position = "{551, 0}";
},
{
name = top;
position = "{381, 700}";
}
);
paths = (
{
closed = 1;
nodes = (
"-12 0 LINE",
"105 192 LINE",
"447 192 LINE",
"486 0 LINE",
"551 0 LINE",
"406 700 LINE",
"356 700 LINE",
"-75 0 LINE"
);
},
{
closed = 1;
nodes = (
"361 614 LINE",
"436 246 LINE",
"137 246 LINE"
);
},
{
closed = 1;
nodes = (
"556 824 LINE",
"567 874 LINE",
"269 874 LINE",
"258 824 LINE"
);
}
);
};
components = (
{
name = A;
},
{
name = macroncomb.case;
transform = "{1, 0, 0, 1, 718, 0}";
}
);
layerId = "7A9E6466-FE38-4215-AA78-C86323202F89";
width = 662;
},
{
background = {
anchors = (
{
name = bottom;
position = "{279, 0}";
},
{
name = ogonek;
position = "{653, 0}";
},
{
name = top;
position = "{428, 700}";
}
);
paths = (
{
closed = 1;
nodes = (
"126 0 LINE",
"192 125 LINE",
"413 125 LINE",
"425 0 LINE",
"653 0 LINE",
"548 700 LINE",
"308 700 LINE",
"-96 0 LINE"
);
},
{
closed = 1;
nodes = (
"381 492 LINE",
"404 292 LINE",
"270 292 LINE"
);
},
{
closed = 1;
nodes = (
"646 782 LINE",
"671 900 LINE",
"271 900 LINE",
"246 782 LINE"
);
}
);
};
components = (
{
name = A;
},
{
name = macroncomb.case;
transform = "{1, 0, 0, 1, 797, 0}";
}
);
layerId = "06050411-8C1E-4EA2-9807-ADB6E7423C7E";
width = 750;
},
{
background = {
anchors = (
{
name = bottom;
position = "{279, 0}";
},
{
name = ogonek;
position = "{653, 0}";
},
{
name = top;
position = "{428, 700}";
}
);
paths = (
{
closed = 1;
nodes = (
"126 0 LINE",
"192 125 LINE",
"413 125 LINE",
"425 0 LINE",
"653 0 LINE",
"548 700 LINE",
"308 700 LINE",
"-96 0 LINE"
);
},
{
closed = 1;
nodes = (
"381 492 LINE",
"404 292 LINE",
"270 292 LINE"
);
},
{
closed = 1;
nodes = (
"646 782 LINE",
"671 900 LINE",
"271 900 LINE",
"246 782 LINE"
);
}
);
};
components = (
{
name = A;
},
{
name = macroncomb.case;
transform = "{1, 0, 0, 1, 797, 0}";
}
);
layerId = "AA96BE86-BB68-49D4-94A1-31EA360FFFA2";
width = 750;
},
{
background = {
anchors = (
{
name = bottom;
position = "{232, 0}";
},
{
name = ogonek;
position = "{551, 0}";
},
{
name = top;
position = "{381, 700}";
}
);
paths = (
{
closed = 1;
nodes = (
"-12 0 LINE",
"105 192 LINE",
"447 192 LINE",
"486 0 LINE",
"551 0 LINE",
"406 700 LINE",
"356 700 LINE",
"-75 0 LINE"
);
},
{
closed = 1;
nodes = (
"361 614 LINE",
"436 246 LINE",
"137 246 LINE"
);
},
{
closed = 1;
nodes = (
"556 824 LINE",
"567 874 LINE",
"269 874 LINE",
"258 824 LINE"
);
}
);
};
components = (
{
name = A;
},
{
name = macroncomb.case;
transform = "{1, 0, 0, 1, 718, 0}";
}
);
layerId = "11F4F77C-5A4A-42C7-A4D7-8096DDA1923A";
width = 662;
}
);
leftKerningGroup = A;
rightKerningGroup = A;
unicode = 0100;
},
{
color = 5;
glyphname = Aogonek;
lastChange = "2019-12-20 09:13:02 +0000";
layers = (
{
components = (
{
name = A;
},
{
name = ogonekcomb;
transform = "{1, 0, 0, 1, 892, 0}";
}
);
layerId = "38FA562F-EF2C-4367-983C-F15B205514DC";
width = 662;
},
{
components = (
{
name = A;
},
{
name = ogonekcomb;
transform = "{1, 0, 0, 1, 966, 0}";
}
);
layerId = "E991CF0C-7E17-4C48-B08A-36C8E595ED17";
width = 749;
},
{
components = (
{
name = A;
},
{
name = ogonekcomb;
transform = "{1, 0, 0, 1, 966, 0}";
}
);
layerId = "805D0193-4943-450F-A7B0-5A59B60D8C7D";
width = 749;
},
{
components = (
{
name = A;
},
{
name = ogonekcomb;
transform = "{1, 0, 0, 1, 892, 0}";
}
);
layerId = "01407E7F-30D0-482B-A25C-5A532F071765";
width = 662;
},
{
background = {
anchors = (
{
name = bottom;
position = "{275, 0}";
},
{
name = ogonek;
position = "{594, 0}";
},
{
name = top;
position = "{423, 700}";
}
);
paths = (
{
closed = 1;
nodes = (
"31 0 LINE",
"147 192 LINE",
"489 192 LINE",
"529 0 LINE",
"594 0 LINE",
"448 700 LINE",
"398 700 LINE",
"-32 0 LINE"
);
},
{
closed = 1;
nodes = (
"403 614 LINE",
"479 246 LINE",
"180 246 LINE"
);
},
{
closed = 1;
nodes = (
"514 -225 OFFCURVE",
"546 -216 OFFCURVE",
"573 -199 CURVE",
"561 -151 LINE",
"545 -162 OFFCURVE",
"523 -170 OFFCURVE",
"497 -170 CURVE SMOOTH",
"464 -170 OFFCURVE",
"441 -146 OFFCURVE",
"451 -108 CURVE SMOOTH",
"464 -53 OFFCURVE",
"519 -19 OFFCURVE",
"594 0 CURVE",
"581 34 LINE",
"492 13 OFFCURVE",
"406 -46 OFFCURVE",
"388 -119 CURVE SMOOTH",
"373 -184 OFFCURVE",
"416 -225 OFFCURVE",
"476 -225 CURVE SMOOTH"
);
}
);
};
components = (
{
name = A;
},
{
name = ogonekcomb;
transform = "{1, 0, 0, 1, 821, 0}";
}
);
layerId = "7A9E6466-FE38-4215-AA78-C86323202F89";
width = 662;
},
{
background = {
anchors = (
{
name = bottom;
position = "{325, 0}";
},
{
name = ogonek;
position = "{699, 0}";
},
{
name = top;
position = "{473, 700}";
}
);
paths = (
{
closed = 1;
nodes = (
"172 0 LINE",
"237 125 LINE",
"458 125 LINE",
"471 0 LINE",
"699 0 LINE",
"593 700 LINE",
"353 700 LINE",
"-50 0 LINE"
);
},
{
closed = 1;
nodes = (
"426 492 LINE",
"450 292 LINE",
"316 292 LINE"
);
},
{
closed = 1;
nodes = (
"611 -225 OFFCURVE",
"661 -212 OFFCURVE",
"706 -180 CURVE",
"680 -87 LINE",
"660 -104 OFFCURVE",
"633 -115 OFFCURVE",
"609 -115 CURVE SMOOTH",
"577 -115 OFFCURVE",
"565 -100 OFFCURVE",
"570 -77 CURVE SMOOTH",
"578 -41 OFFCURVE",
"626 -13 OFFCURVE",
"699 0 CURVE",
"686 61 LINE",
"561 50 OFFCURVE",
"454 -6 OFFCURVE",
"434 -99 CURVE SMOOTH",
"419 -174 OFFCURVE",
"470 -225 OFFCURVE",
"560 -225 CURVE SMOOTH"
);
}
);
};
components = (
{
name = A;
},
{
name = ogonekcomb;
transform = "{1, 0, 0, 1, 898, 0}";
}
);
layerId = "06050411-8C1E-4EA2-9807-ADB6E7423C7E";
width = 750;
},
{
background = {
anchors = (
{
name = bottom;
position = "{325, 0}";
},
{
name = ogonek;
position = "{699, 0}";
},
{
name = top;
position = "{473, 700}";
}
);
paths = (
{
closed = 1;
nodes = (
"172 0 LINE",
"237 125 LINE",
"458 125 LINE",
"471 0 LINE",
"699 0 LINE",
"593 700 LINE",
"353 700 LINE",
"-50 0 LINE"
);
},
{
closed = 1;
nodes = (
"426 492 LINE",
"450 292 LINE",
"316 292 LINE"
);
},
{
closed = 1;
nodes = (
"611 -225 OFFCURVE",
"661 -212 OFFCURVE",
"706 -180 CURVE",
"680 -87 LINE",
"660 -104 OFFCURVE",
"633 -115 OFFCURVE",
"609 -115 CURVE SMOOTH",
"577 -115 OFFCURVE",
"565 -100 OFFCURVE",
"570 -77 CURVE SMOOTH",
"578 -41 OFFCURVE",
"626 -13 OFFCURVE",
"699 0 CURVE",
"686 61 LINE",
"561 50 OFFCURVE",
"454 -6 OFFCURVE",
"434 -99 CURVE SMOOTH",
"419 -174 OFFCURVE",
"470 -225 OFFCURVE",
"560 -225 CURVE SMOOTH"
);
}
);
};
components = (
{
name = A;
},
{
name = ogonekcomb;
transform = "{1, 0, 0, 1, 898, 0}";
}
);
layerId = "AA96BE86-BB68-49D4-94A1-31EA360FFFA2";
width = 750;
},
{
background = {
anchors = (
{
name = bottom;
position = "{275, 0}";
},
{
name = ogonek;
position = "{594, 0}";
},
{
name = top;
position = "{423, 700}";
}
);
paths = (
{
closed = 1;
nodes = (
"31 0 LINE",
"147 192 LINE",
"489 192 LINE",
"529 0 LINE",
"594 0 LINE",
"448 700 LINE",
"398 700 LINE",
"-32 0 LINE"
);
},
{
closed = 1;
nodes = (
"403 614 LINE",
"479 246 LINE",
"180 246 LINE"
);
},
{
closed = 1;
nodes = (
"514 -225 OFFCURVE",
"546 -216 OFFCURVE",
"573 -199 CURVE",
"561 -151 LINE",
"545 -162 OFFCURVE",
"523 -170 OFFCURVE",
"497 -170 CURVE SMOOTH",
"464 -170 OFFCURVE",
"441 -146 OFFCURVE",
"451 -108 CURVE SMOOTH",
"464 -53 OFFCURVE",
"519 -19 OFFCURVE",
"594 0 CURVE",
"581 34 LINE",
"492 13 OFFCURVE",
"406 -46 OFFCURVE",
"388 -119 CURVE SMOOTH",
"373 -184 OFFCURVE",
"416 -225 OFFCURVE",
"476 -225 CURVE SMOOTH"
);
}
);
};
components = (
{
name = A;
},
{
name = ogonekcomb;
transform = "{1, 0, 0, 1, 821, 0}";
}
);
layerId = "11F4F77C-5A4A-42C7-A4D7-8096DDA1923A";
width = 662;
}
);
leftKerningGroup = A;
rightKerningGroup = A;
unicode = 0104;
},
{
color = 5;
glyphname = Aring;
lastChange = "2019-12-20 09:13:02 +0000";
layers = (
{
background = {
components = (
{
name = A;
},
{
name = ringcomb.case;
transform = "{1, 0, 0, 1, 792, 0}";
}
);
};
components = (
{
name = A;
},
{
name = ringcomb.case;
transform = "{1, 0, 0, 1, 792, 0}";
}
);
layerId = "E991CF0C-7E17-4C48-B08A-36C8E595ED17";
width = 749;
},
{
background = {
components = (
{
name = A;
},
{
name = ringcomb.case;
transform = "{1, 0, 0, 1, 744, 0}";
}
);
};
components = (
{
name = A;
},
{
name = ringcomb.case;
transform = "{1, 0, 0, 1, 744, 0}";
}
);
layerId = "38FA562F-EF2C-4367-983C-F15B205514DC";
width = 662;
},
{
background = {
components = (
{
name = A;
},
{
name = ringcomb.case;
transform = "{1, 0, 0, 1, 792, 0}";
}
);
};
components = (
{
name = A;
},
{
name = ringcomb.case;
transform = "{1, 0, 0, 1, 792, 0}";
}
);
layerId = "805D0193-4943-450F-A7B0-5A59B60D8C7D";
width = 749;
},
{
background = {
components = (
{
name = A;
},
{
name = ringcomb.case;
transform = "{1, 0, 0, 1, 744, 0}";
}
);
};
components = (
{
name = A;
},
{
name = ringcomb.case;
transform = "{1, 0, 0, 1, 744, 0}";
}
);
layerId = "01407E7F-30D0-482B-A25C-5A532F071765";
width = 662;
},
{
background = {
anchors = (
{
name = bottom;
position = "{219, 0}";
},
{
name = ogonek;
position = "{538, 0}";
},
{
name = top;
position = "{420, 944}";
}
);
paths = (
{
closed = 1;
nodes = (
"-25 0 LINE",
"92 192 LINE",
"434 192 LINE",
"473 0 LINE",
"538 0 LINE",
"393 700 LINE",
"343 700 LINE",
"-88 0 LINE"
);
},
{
closed = 1;
nodes = (
"348 614 LINE",
"424 246 LINE",
"125 246 LINE"
);
},
{
closed = 1;
nodes = (
"450 731 OFFCURVE",
"525 789 OFFCURVE",
"541 863 CURVE SMOOTH",
"556 937 OFFCURVE",
"506 995 OFFCURVE",
"431 995 CURVE SMOOTH",
"357 995 OFFCURVE",
"280 937 OFFCURVE",
"265 863 CURVE SMOOTH",
"249 789 OFFCURVE",
"301 731 OFFCURVE",
"375 731 CURVE SMOOTH"
);
},
{
closed = 1;
nodes = (
"333 777 OFFCURVE",
"302 813 OFFCURVE",
"313 863 CURVE SMOOTH",
"323 913 OFFCURVE",
"370 949 OFFCURVE",
"421 949 CURVE SMOOTH",
"472 949 OFFCURVE",
"503 913 OFFCURVE",
"493 863 CURVE SMOOTH",
"482 813 OFFCURVE",
"435 777 OFFCURVE",
"384 777 CURVE SMOOTH"
);
}
);
};
components = (
{
name = A;
},
{
name = ringcomb.case;
transform = "{1, 0, 0, 1, 876, 0}";
}
);
layerId = "7A9E6466-FE38-4215-AA78-C86323202F89";
width = 662;
},
{
background = {
anchors = (
{
name = bottom;
position = "{263, 0}";
},
{
name = ogonek;
position = "{637, 0}";
},
{
name = top;
position = "{481, 1028}";
}
);
paths = (
{
closed = 1;
nodes = (
"110 0 LINE",
"175 125 LINE",
"396 125 LINE",
"409 0 LINE",
"637 0 LINE",
"532 700 LINE",
"292 700 LINE",
"-112 0 LINE"
);
},
{
closed = 1;
nodes = (
"364 492 LINE",
"388 292 LINE",
"254 292 LINE"
);
},
{
closed = 1;
nodes = (
"515 738 OFFCURVE",
"604 805 OFFCURVE",
"623 897 CURVE SMOOTH",
"643 988 OFFCURVE",
"582 1056 OFFCURVE",
"487 1056 CURVE SMOOTH",
"391 1056 OFFCURVE",
"303 988 OFFCURVE",
"283 897 CURVE SMOOTH",
"264 805 OFFCURVE",
"324 738 OFFCURVE",
"420 738 CURVE SMOOTH"
);
},
{
closed = 1;
nodes = (
"409 843 OFFCURVE",
"393 865 OFFCURVE",
"399 897 CURVE SMOOTH",
"406 929 OFFCURVE",
"432 951 OFFCURVE",
"465 951 CURVE SMOOTH",
"498 951 OFFCURVE",
"514 929 OFFCURVE",
"507 897 CURVE SMOOTH",
"501 865 OFFCURVE",
"475 843 OFFCURVE",
"442 843 CURVE SMOOTH"
);
}
);
};
components = (
{
name = A;
},
{
name = ringcomb.case;
transform = "{1, 0, 0, 1, 931, 0}";
}
);
layerId = "06050411-8C1E-4EA2-9807-ADB6E7423C7E";
width = 750;
},
{
background = {
anchors = (
{
name = bottom;
position = "{263, 0}";
},
{
name = ogonek;
position = "{637, 0}";
},
{
name = top;
position = "{481, 1028}";
}
);
paths = (
{
closed = 1;
nodes = (
"110 0 LINE",
"175 125 LINE",
"396 125 LINE",
"409 0 LINE",
"637 0 LINE",
"532 700 LINE",
"292 700 LINE",
"-112 0 LINE"
);
},
{
closed = 1;
nodes = (
"364 492 LINE",
"388 292 LINE",
"254 292 LINE"
);
},
{
closed = 1;
nodes = (
"515 738 OFFCURVE",
"604 805 OFFCURVE",
"623 897 CURVE SMOOTH",
"643 988 OFFCURVE",
"582 1056 OFFCURVE",
"487 1056 CURVE SMOOTH",
"391 1056 OFFCURVE",
"303 988 OFFCURVE",
"283 897 CURVE SMOOTH",
"264 805 OFFCURVE",
"324 738 OFFCURVE",
"420 738 CURVE SMOOTH"
);
},
{
closed = 1;
nodes = (
"409 843 OFFCURVE",
"393 865 OFFCURVE",
"399 897 CURVE SMOOTH",
"406 929 OFFCURVE",
"432 951 OFFCURVE",
"465 951 CURVE SMOOTH",
"498 951 OFFCURVE",
"514 929 OFFCURVE",
"507 897 CURVE SMOOTH",
"501 865 OFFCURVE",
"475 843 OFFCURVE",
"442 843 CURVE SMOOTH"
);
}
);
};
components = (
{
name = A;
},
{
name = ringcomb.case;
transform = "{1, 0, 0, 1, 931, 0}";
}
);
layerId = "AA96BE86-BB68-49D4-94A1-31EA360FFFA2";
width = 750;
},
{
background = {
anchors = (
{
name = bottom;
position = "{219, 0}";
},
{
name = ogonek;
position = "{538, 0}";
},
{
name = top;
position = "{420, 944}";
}
);
paths = (
{
closed = 1;
nodes = (
"-25 0 LINE",
"92 192 LINE",
"434 192 LINE",
"473 0 LINE",
"538 0 LINE",
"393 700 LINE",
"343 700 LINE",
"-88 0 LINE"
);
},
{
closed = 1;
nodes = (
"348 614 LINE",
"424 246 LINE",
"125 246 LINE"
);
},
{
closed = 1;
nodes = (
"450 731 OFFCURVE",
"525 789 OFFCURVE",
"541 863 CURVE SMOOTH",
"556 937 OFFCURVE",
"506 995 OFFCURVE",
"431 995 CURVE SMOOTH",
"357 995 OFFCURVE",
"280 937 OFFCURVE",
"265 863 CURVE SMOOTH",
"249 789 OFFCURVE",
"301 731 OFFCURVE",
"375 731 CURVE SMOOTH"
);
},
{
closed = 1;
nodes = (
"333 777 OFFCURVE",
"302 813 OFFCURVE",
"313 863 CURVE SMOOTH",
"323 913 OFFCURVE",
"370 949 OFFCURVE",
"421 949 CURVE SMOOTH",
"472 949 OFFCURVE",
"503 913 OFFCURVE",
"493 863 CURVE SMOOTH",
"482 813 OFFCURVE",
"435 777 OFFCURVE",
"384 777 CURVE SMOOTH"
);
}
);
};
components = (
{
name = A;
},
{
name = ringcomb.case;
transform = "{1, 0, 0, 1, 876, 0}";
}
);
layerId = "11F4F77C-5A4A-42C7-A4D7-8096DDA1923A";
width = 662;
}
);
leftKerningGroup = A;
rightKerningGroup = A;
unicode = 00C5;
},
{
color = 5;
glyphname = Aringacute;
lastChange = "2019-12-20 09:13:02 +0000";
layers = (
{
components = (
{
name = A;
},
{
name = ringcomb.case;
transform = "{1, 0, 0, 1, 744, 0}";
},
{
name = acutecomb.case;
transform = "{1, 0, 0, 1, 719, 244}";
}
);
layerId = "38FA562F-EF2C-4367-983C-F15B205514DC";
width = 662;
},
{
components = (
{
name = A;
},
{
name = ringcomb.case;
transform = "{1, 0, 0, 1, 792, 0}";
},
{
name = acutecomb.case;
transform = "{1, 0, 0, 1, 791, 328}";
}
);
layerId = "E991CF0C-7E17-4C48-B08A-36C8E595ED17";
width = 749;
},
{
components = (
{
name = A;
},
{
name = ringcomb.case;
transform = "{1, 0, 0, 1, 792, 0}";
},
{
name = acutecomb.case;
transform = "{1, 0, 0, 1, 791, 328}";
}
);
layerId = "805D0193-4943-450F-A7B0-5A59B60D8C7D";
width = 749;
},
{
components = (
{
name = A;
},
{
name = ringcomb.case;
transform = "{1, 0, 0, 1, 744, 0}";
},
{
name = acutecomb.case;
transform = "{1, 0, 0, 1, 719, 244}";
}
);
layerId = "01407E7F-30D0-482B-A25C-5A532F071765";
width = 662;
},
{
background = {
anchors = (
{
name = bottom;
position = "{198, 0}";
},
{
name = ogonek;
position = "{517, 0}";
},
{
name = top;
position = "{399, 944}";
}
);
paths = (
{
closed = 1;
nodes = (
"-46 0 LINE",
"71 192 LINE",
"413 192 LINE",
"452 0 LINE",
"517 0 LINE",
"372 700 LINE",
"322 700 LINE",
"-109 0 LINE"
);
},
{
closed = 1;
nodes = (
"326 614 LINE",
"402 246 LINE",
"103 246 LINE"
);
},
{
closed = 1;
nodes = (
"428 731 OFFCURVE",
"504 789 OFFCURVE",
"519 863 CURVE SMOOTH",
"535 937 OFFCURVE",
"484 995 OFFCURVE",
"409 995 CURVE SMOOTH",
"335 995 OFFCURVE",
"259 937 OFFCURVE",
"243 863 CURVE SMOOTH",
"228 789 OFFCURVE",
"279 731 OFFCURVE",
"353 731 CURVE SMOOTH"
);
},
{
closed = 1;
nodes = (
"312 777 OFFCURVE",
"281 813 OFFCURVE",
"291 863 CURVE SMOOTH",
"302 913 OFFCURVE",
"349 949 OFFCURVE",
"400 949 CURVE SMOOTH",
"451 949 OFFCURVE",
"482 913 OFFCURVE",
"471 863 CURVE SMOOTH",
"461 813 OFFCURVE",
"414 777 OFFCURVE",
"363 777 CURVE SMOOTH"
);
},
{
closed = 1;
nodes = (
"441 1040 LINE",
"574 1196 LINE",
"514 1196 LINE",
"387 1040 LINE"
);
}
);
};
components = (
{
name = A;
},
{
name = ringcomb.case;
transform = "{1, 0, 0, 1, 876, 0}";
},
{
name = acutecomb.case;
transform = "{1, 0, 0, 1, 866, 244}";
}
);
layerId = "7A9E6466-FE38-4215-AA78-C86323202F89";
width = 662;
},
{
background = {
anchors = (
{
name = bottom;
position = "{241, 0}";
},
{
name = ogonek;
position = "{615, 0}";
},
{
name = top;
position = "{460, 1028}";
}
);
paths = (
{
closed = 1;
nodes = (
"88 0 LINE",
"154 125 LINE",
"375 125 LINE",
"387 0 LINE",
"615 0 LINE",
"510 700 LINE",
"270 700 LINE",
"-134 0 LINE"
);
},
{
closed = 1;
nodes = (
"343 492 LINE",
"366 292 LINE",
"232 292 LINE"
);
},
{
closed = 1;
nodes = (
"493 738 OFFCURVE",
"582 805 OFFCURVE",
"602 897 CURVE SMOOTH",
"621 988 OFFCURVE",
"561 1056 OFFCURVE",
"466 1056 CURVE SMOOTH",
"370 1056 OFFCURVE",
"281 988 OFFCURVE",
"262 897 CURVE SMOOTH",
"242 805 OFFCURVE",
"302 738 OFFCURVE",
"398 738 CURVE SMOOTH"
);
},
{
closed = 1;
nodes = (
"387 843 OFFCURVE",
"371 865 OFFCURVE",
"378 897 CURVE SMOOTH",
"385 929 OFFCURVE",
"410 951 OFFCURVE",
"443 951 CURVE SMOOTH",
"476 951 OFFCURVE",
"493 929 OFFCURVE",
"486 897 CURVE SMOOTH",
"479 865 OFFCURVE",
"453 843 OFFCURVE",
"420 843 CURVE SMOOTH"
);
},
{
closed = 1;
nodes = (
"554 1082 LINE",
"712 1259 LINE",
"505 1259 LINE",
"366 1082 LINE"
);
}
);
};
components = (
{
name = A;
},
{
name = ringcomb.case;
transform = "{1, 0, 0, 1, 931, 0}";
},
{
name = acutecomb.case;
transform = "{1, 0, 0, 1, 957, 328}";
}
);
layerId = "06050411-8C1E-4EA2-9807-ADB6E7423C7E";
width = 750;
},
{
background = {
anchors = (
{
name = bottom;
position = "{241, 0}";
},
{
name = ogonek;
position = "{615, 0}";
},
{
name = top;
position = "{460, 1028}";
}
);
paths = (
{
closed = 1;
nodes = (
"88 0 LINE",
"154 125 LINE",
"375 125 LINE",
"387 0 LINE",
"615 0 LINE",
"510 700 LINE",
"270 700 LINE",
"-134 0 LINE"
);
},
{
closed = 1;
nodes = (
"343 492 LINE",
"366 292 LINE",
"232 292 LINE"
);
},
{
closed = 1;
nodes = (
"493 738 OFFCURVE",
"582 805 OFFCURVE",
"602 897 CURVE SMOOTH",
"621 988 OFFCURVE",
"561 1056 OFFCURVE",
"466 1056 CURVE SMOOTH",
"370 1056 OFFCURVE",
"281 988 OFFCURVE",
"262 897 CURVE SMOOTH",
"242 805 OFFCURVE",
"302 738 OFFCURVE",
"398 738 CURVE SMOOTH"
);
},
{
closed = 1;
nodes = (
"387 843 OFFCURVE",
"371 865 OFFCURVE",
"378 897 CURVE SMOOTH",
"385 929 OFFCURVE",
"410 951 OFFCURVE",
"443 951 CURVE SMOOTH",
"476 951 OFFCURVE",
"493 929 OFFCURVE",
"486 897 CURVE SMOOTH",
"479 865 OFFCURVE",
"453 843 OFFCURVE",
"420 843 CURVE SMOOTH"
);
},
{
closed = 1;
nodes = (
"554 1082 LINE",
"712 1259 LINE",
"505 1259 LINE",
"366 1082 LINE"
);
}
);
};
components = (
{
name = A;
},
{
name = ringcomb.case;
transform = "{1, 0, 0, 1, 931, 0}";
},
{
name = acutecomb.case;
transform = "{1, 0, 0, 1, 957, 328}";
}
);
layerId = "AA96BE86-BB68-49D4-94A1-31EA360FFFA2";
width = 750;
},
{
background = {
anchors = (
{
name = bottom;
position = "{198, 0}";
},
{
name = ogonek;
position = "{517, 0}";
},
{
name = top;
position = "{399, 944}";
}
);
paths = (
{
closed = 1;
nodes = (
"-46 0 LINE",
"71 192 LINE",
"413 192 LINE",
"452 0 LINE",
"517 0 LINE",
"372 700 LINE",
"322 700 LINE",
"-109 0 LINE"
);
},
{
closed = 1;
nodes = (
"326 614 LINE",
"402 246 LINE",
"103 246 LINE"
);
},
{
closed = 1;
nodes = (
"428 731 OFFCURVE",
"504 789 OFFCURVE",
"519 863 CURVE SMOOTH",
"535 937 OFFCURVE",
"484 995 OFFCURVE",
"409 995 CURVE SMOOTH",
"335 995 OFFCURVE",
"259 937 OFFCURVE",
"243 863 CURVE SMOOTH",
"228 789 OFFCURVE",
"279 731 OFFCURVE",
"353 731 CURVE SMOOTH"
);
},
{
closed = 1;
nodes = (
"312 777 OFFCURVE",
"281 813 OFFCURVE",
"291 863 CURVE SMOOTH",
"302 913 OFFCURVE",
"349 949 OFFCURVE",
"400 949 CURVE SMOOTH",
"451 949 OFFCURVE",
"482 913 OFFCURVE",
"471 863 CURVE SMOOTH",
"461 813 OFFCURVE",
"414 777 OFFCURVE",
"363 777 CURVE SMOOTH"
);
},
{
closed = 1;
nodes = (
"441 1040 LINE",
"574 1196 LINE",
"514 1196 LINE",
"387 1040 LINE"
);
}
);
};
components = (
{
name = A;
},
{
name = ringcomb.case;
transform = "{1, 0, 0, 1, 876, 0}";
},
{
name = acutecomb.case;
transform = "{1, 0, 0, 1, 866, 244}";
}
);
layerId = "11F4F77C-5A4A-42C7-A4D7-8096DDA1923A";
width = 662;
}
);
leftKerningGroup = A;
rightKerningGroup = A;
unicode = 01FA;
},
{
color = 5;
glyphname = Atilde;
lastChange = "2019-12-20 09:13:02 +0000";
layers = (
{
components = (
{
name = A;
},
{
name = tildecomb.case;
transform = "{1, 0, 0, 1, 719, 0}";
}
);
layerId = "38FA562F-EF2C-4367-983C-F15B205514DC";
width = 662;
},
{
components = (
{
name = A;
},
{
name = tildecomb.case;
transform = "{1, 0, 0, 1, 791, 0}";
}
);
layerId = "E991CF0C-7E17-4C48-B08A-36C8E595ED17";
width = 749;
},
{
components = (
{
name = A;
},
{
name = tildecomb.case;
transform = "{1, 0, 0, 1, 791, 0}";
}
);
layerId = "805D0193-4943-450F-A7B0-5A59B60D8C7D";
width = 749;
},
{
components = (
{
name = A;
},
{
name = tildecomb.case;
transform = "{1, 0, 0, 1, 719, 0}";
}
);
layerId = "01407E7F-30D0-482B-A25C-5A532F071765";
width = 662;
},
{
background = {
anchors = (
{
name = bottom;
position = "{226, 0}";
},
{
name = ogonek;
position = "{545, 0}";
},
{
name = top;
position = "{413, 879}";
}
);
paths = (
{
closed = 1;
nodes = (
"-18 0 LINE",
"99 192 LINE",
"441 192 LINE",
"480 0 LINE",
"545 0 LINE",
"400 700 LINE",
"350 700 LINE",
"-81 0 LINE"
);
},
{
closed = 1;
nodes = (
"354 614 LINE",
"430 246 LINE",
"131 246 LINE"
);
},
{
closed = 1;
nodes = (
"284 855 OFFCURVE",
"309 874 OFFCURVE",
"337 874 CURVE SMOOTH",
"382 874 OFFCURVE",
"419 826 OFFCURVE",
"476 826 CURVE SMOOTH",
"520 826 OFFCURVE",
"563 857 OFFCURVE",
"596 909 CURVE",
"563 932 LINE",
"541 896 OFFCURVE",
"516 874 OFFCURVE",
"486 874 CURVE SMOOTH",
"442 874 OFFCURVE",
"404 923 OFFCURVE",
"347 923 CURVE SMOOTH",
"301 923 OFFCURVE",
"259 889 OFFCURVE",
"227 839 CURVE",
"261 817 LINE"
);
}
);
};
components = (
{
name = A;
},
{
name = tildecomb.case;
transform = "{1, 0, 0, 1, 814, 0}";
}
);
layerId = "7A9E6466-FE38-4215-AA78-C86323202F89";
width = 662;
},
{
background = {
anchors = (
{
name = bottom;
position = "{274, 0}";
},
{
name = ogonek;
position = "{648, 0}";
},
{
name = top;
position = "{466, 900}";
}
);
paths = (
{
closed = 1;
nodes = (
"121 0 LINE",
"187 125 LINE",
"408 125 LINE",
"420 0 LINE",
"648 0 LINE",
"543 700 LINE",
"303 700 LINE",
"-101 0 LINE"
);
},
{
closed = 1;
nodes = (
"376 492 LINE",
"399 292 LINE",
"265 292 LINE"
);
},
{
closed = 1;
nodes = (
"295 780 OFFCURVE",
"326 799 OFFCURVE",
"358 799 CURVE SMOOTH",
"410 799 OFFCURVE",
"456 749 OFFCURVE",
"530 749 CURVE SMOOTH",
"598 749 OFFCURVE",
"665 787 OFFCURVE",
"694 865 CURVE",
"638 948 LINE",
"613 904 OFFCURVE",
"585 886 OFFCURVE",
"554 886 CURVE SMOOTH",
"499 886 OFFCURVE",
"461 936 OFFCURVE",
"388 936 CURVE SMOOTH",
"321 936 OFFCURVE",
"260 896 OFFCURVE",
"212 818 CURVE",
"270 736 LINE"
);
}
);
};
components = (
{
name = A;
},
{
name = tildecomb.case;
transform = "{1, 0, 0, 1, 887, 0}";
}
);
layerId = "06050411-8C1E-4EA2-9807-ADB6E7423C7E";
width = 750;
},
{
background = {
anchors = (
{
name = bottom;
position = "{274, 0}";
},
{
name = ogonek;
position = "{648, 0}";
},
{
name = top;
position = "{466, 900}";
}
);
paths = (
{
closed = 1;
nodes = (
"121 0 LINE",
"187 125 LINE",
"408 125 LINE",
"420 0 LINE",
"648 0 LINE",
"543 700 LINE",
"303 700 LINE",
"-101 0 LINE"
);
},
{
closed = 1;
nodes = (
"376 492 LINE",
"399 292 LINE",
"265 292 LINE"
);
},
{
closed = 1;
nodes = (
"295 780 OFFCURVE",
"326 799 OFFCURVE",
"358 799 CURVE SMOOTH",
"410 799 OFFCURVE",
"456 749 OFFCURVE",
"530 749 CURVE SMOOTH",
"598 749 OFFCURVE",
"665 787 OFFCURVE",
"694 865 CURVE",
"638 948 LINE",
"613 904 OFFCURVE",
"585 886 OFFCURVE",
"554 886 CURVE SMOOTH",
"499 886 OFFCURVE",
"461 936 OFFCURVE",
"388 936 CURVE SMOOTH",
"321 936 OFFCURVE",
"260 896 OFFCURVE",
"212 818 CURVE",
"270 736 LINE"
);
}
);
};
components = (
{
name = A;
},
{
name = tildecomb.case;
transform = "{1, 0, 0, 1, 887, 0}";
}
);
layerId = "AA96BE86-BB68-49D4-94A1-31EA360FFFA2";
width = 750;
},
{
background = {
anchors = (
{
name = bottom;
position = "{226, 0}";
},
{
name = ogonek;
position = "{545, 0}";
},
{
name = top;
position = "{413, 879}";
}
);
paths = (
{
closed = 1;
nodes = (
"-18 0 LINE",
"99 192 LINE",
"441 192 LINE",
"480 0 LINE",
"545 0 LINE",
"400 700 LINE",
"350 700 LINE",
"-81 0 LINE"
);
},
{
closed = 1;
nodes = (
"354 614 LINE",
"430 246 LINE",
"131 246 LINE"
);
},
{
closed = 1;
nodes = (
"284 855 OFFCURVE",
"309 874 OFFCURVE",
"337 874 CURVE SMOOTH",
"382 874 OFFCURVE",
"419 826 OFFCURVE",
"476 826 CURVE SMOOTH",
"520 826 OFFCURVE",
"563 857 OFFCURVE",
"596 909 CURVE",
"563 932 LINE",
"541 896 OFFCURVE",
"516 874 OFFCURVE",
"486 874 CURVE SMOOTH",
"442 874 OFFCURVE",
"404 923 OFFCURVE",
"347 923 CURVE SMOOTH",
"301 923 OFFCURVE",
"259 889 OFFCURVE",
"227 839 CURVE",
"261 817 LINE"
);
}
);
};
components = (
{
name = A;
},
{
name = tildecomb.case;
transform = "{1, 0, 0, 1, 814, 0}";
}
);
layerId = "11F4F77C-5A4A-42C7-A4D7-8096DDA1923A";
width = 662;
}
);
leftKerningGroup = A;
rightKerningGroup = A;
unicode = 00C3;
},
{
color = 6;
glyphname = AE;
lastChange = "2019-12-20 09:16:47 +0000";
layers = (
{
anchors = (
{
name = top;
position = "{592, 700}";
}
);
background = {
paths = (
{
closed = 1;
nodes = (
"164 0 LINE",
"215 125 LINE",
"390 125 LINE",
"390 0 LINE",
"871 0 LINE",
"871 176 LINE",
"592 176 LINE",
"592 275 LINE",
"826 275 LINE",
"826 435 LINE",
"592 435 LINE",
"592 526 LINE",
"867 526 LINE",
"867 700 LINE",
"253 700 LINE",
"-50 0 LINE"
);
},
{
closed = 1;
nodes = (
"377 526 LINE",
"390 526 LINE",
"390 283 LINE",
"279 283 LINE"
);
}
);
};
layerId = "E991CF0C-7E17-4C48-B08A-36C8E595ED17";
paths = (
{
closed = 1;
nodes = (
"164 0 LINE",
"215 125 LINE",
"390 125 LINE",
"390 0 LINE",
"871 0 LINE",
"871 176 LINE",
"592 176 LINE",
"592 275 LINE",
"826 275 LINE",
"826 435 LINE",
"592 435 LINE",
"592 526 LINE",
"867 526 LINE",
"867 700 LINE",
"253 700 LINE",
"-50 0 LINE"
);
},
{
closed = 1;
nodes = (
"390 557 LINE",
"390 283 LINE",
"279 283 LINE"
);
}
);
width = 923;
},
{
anchors = (
{
name = top;
position = "{564, 700}";
}
);
background = {
paths = (
{
closed = 1;
nodes = (
"58 0 LINE",
"151 190 LINE",
"386 190 LINE",
"386 0 LINE",
"796 0 LINE",
"796 54 LINE",
"444 54 LINE",
"444 344 LINE",
"758 344 LINE",
"758 398 LINE",
"444 398 LINE",
"444 646 LINE",
"792 646 LINE",
"792 700 LINE",
"351 700 LINE",
"-5 0 LINE"
);
},
{
closed = 1;
nodes = (
"381 646 LINE",
"386 646 LINE",
"386 242 LINE",
"174 242 LINE"
);
}
);
};
layerId = "38FA562F-EF2C-4367-983C-F15B205514DC";
paths = (
{
closed = 1;
nodes = (
"58 0 LINE",
"151 190 LINE",
"386 190 LINE",
"386 0 LINE",
"796 0 LINE",
"796 54 LINE",
"444 54 LINE",
"444 344 LINE",
"758 344 LINE",
"758 398 LINE",
"444 398 LINE",
"444 646 LINE",
"792 646 LINE",
"792 700 LINE",
"351 700 LINE",
"-5 0 LINE"
);
},
{
closed = 1;
nodes = (
"386 656 LINE",
"386 242 LINE",
"174 242 LINE"
);
}
);
width = 871;
},
{
anchors = (
{
name = top;
position = "{592, 700}";
}
);
background = {
paths = (
{
closed = 1;
nodes = (
"164 0 LINE",
"215 125 LINE",
"390 125 LINE",
"390 0 LINE",
"871 0 LINE",
"871 176 LINE",
"592 176 LINE",
"592 275 LINE",
"826 275 LINE",
"826 435 LINE",
"592 435 LINE",
"592 526 LINE",
"867 526 LINE",
"867 700 LINE",
"253 700 LINE",
"-50 0 LINE"
);
},
{
closed = 1;
nodes = (
"377 526 LINE",
"390 526 LINE",
"390 283 LINE",
"279 283 LINE"
);
}
);
};
layerId = "805D0193-4943-450F-A7B0-5A59B60D8C7D";
paths = (
{
closed = 1;
nodes = (
"164 0 LINE",
"215 125 LINE",
"390 125 LINE",
"390 0 LINE",
"851 0 LINE",
"891 176 LINE",
"592 176 LINE",
"592 275 LINE",
"826 275 LINE",
"826 435 LINE",
"592 435 LINE",
"592 526 LINE",
"867 526 LINE",
"867 700 LINE",
"253 700 LINE",
"-50 0 LINE"
);
},
{
closed = 1;
nodes = (
"390 557 LINE",
"390 283 LINE",
"279 283 LINE"
);
}
);
width = 923;
},
{
anchors = (
{
name = top;
position = "{564, 700}";
}
);
background = {
paths = (
{
closed = 1;
nodes = (
"58 0 LINE",
"151 190 LINE",
"386 190 LINE",
"386 0 LINE",
"796 0 LINE",
"796 54 LINE",
"444 54 LINE",
"444 344 LINE",
"758 344 LINE",
"758 398 LINE",
"444 398 LINE",
"444 646 LINE",
"792 646 LINE",
"792 700 LINE",
"351 700 LINE",
"-5 0 LINE"
);
},
{
closed = 1;
nodes = (
"381 646 LINE",
"386 646 LINE",
"386 242 LINE",
"174 242 LINE"
);
}
);
};
layerId = "01407E7F-30D0-482B-A25C-5A532F071765";
paths = (
{
closed = 1;
nodes = (
"58 0 LINE",
"151 190 LINE",
"386 190 LINE",
"386 0 LINE",
"790 0 LINE",
"802 54 LINE",
"444 54 LINE",
"444 344 LINE",
"758 344 LINE",
"758 398 LINE",
"444 398 LINE",
"444 646 LINE",
"792 646 LINE",
"792 700 LINE",
"351 700 LINE",
"-5 0 LINE"
);
},
{
closed = 1;
nodes = (
"386 656 LINE",
"386 242 LINE",
"174 242 LINE"
);
}
);
width = 871;
},
{
anchors = (
{
name = top;
position = "{660, 700}";
}
);
background = {
anchors = (
{
name = top;
position = "{638, 700}";
}
);
paths = (
{
closed = 1;
nodes = (
"-16 0 LINE",
"117 190 LINE",
"352 190 LINE",
"312 0 LINE",
"722 0 LINE",
"733 54 LINE",
"381 54 LINE",
"443 344 LINE",
"757 344 LINE",
"768 398 LINE",
"454 398 LINE",
"507 646 LINE",
"855 646 LINE",
"866 700 LINE",
"425 700 LINE",
"-79 0 LINE"
);
},
{
closed = 1;
nodes = (
"451 656 LINE",
"363 242 LINE",
"151 242 LINE"
);
}
);
};
layerId = "7A9E6466-FE38-4215-AA78-C86323202F89";
paths = (
{
closed = 1;
nodes = (
"11 0 LINE",
"142 190 LINE",
"374 190 LINE",
"334 0 LINE",
"744 0 LINE",
"755 54 LINE",
"403 54 LINE",
"465 344 LINE",
"779 344 LINE",
"790 398 LINE",
"476 398 LINE",
"529 646 LINE",
"877 646 LINE",
"888 700 LINE",
"447 700 LINE",
"-56 0 LINE"
);
},
{
closed = 1;
nodes = (
"472 651 LINE",
"385 242 LINE",
"176 242 LINE"
);
}
);
width = 870;
},
{
anchors = (
{
name = top;
position = "{694, 700}";
}
);
background = {
anchors = (
{
name = top;
position = "{666, 700}";
}
);
paths = (
{
closed = 1;
nodes = (
"90 0 LINE",
"167 125 LINE",
"342 125 LINE",
"316 0 LINE",
"797 0 LINE",
"834 176 LINE",
"555 176 LINE",
"576 275 LINE",
"810 275 LINE",
"844 435 LINE",
"610 435 LINE",
"629 526 LINE",
"904 526 LINE",
"941 700 LINE",
"327 700 LINE",
"-124 0 LINE"
);
},
{
closed = 1;
nodes = (
"434 557 LINE",
"376 283 LINE",
"265 283 LINE"
);
}
);
};
layerId = "06050411-8C1E-4EA2-9807-ADB6E7423C7E";
paths = (
{
closed = 1;
nodes = (
"121 0 LINE",
"199 125 LINE",
"370 125 LINE",
"344 0 LINE",
"825 0 LINE",
"862 176 LINE",
"583 176 LINE",
"604 275 LINE",
"838 275 LINE",
"872 435 LINE",
"638 435 LINE",
"657 526 LINE",
"932 526 LINE",
"969 700 LINE",
"356 700 LINE",
"-105 0 LINE"
);
},
{
closed = 1;
nodes = (
"458 537 LINE",
"404 283 LINE",
"299 283 LINE"
);
}
);
width = 932;
},
{
anchors = (
{
name = top;
position = "{694, 700}";
}
);
background = {
anchors = (
{
name = top;
position = "{666, 700}";
}
);
paths = (
{
closed = 1;
nodes = (
"90 0 LINE",
"167 125 LINE",
"342 125 LINE",
"316 0 LINE",
"797 0 LINE",
"834 176 LINE",
"555 176 LINE",
"576 275 LINE",
"810 275 LINE",
"844 435 LINE",
"610 435 LINE",
"629 526 LINE",
"904 526 LINE",
"941 700 LINE",
"327 700 LINE",
"-124 0 LINE"
);
},
{
closed = 1;
nodes = (
"434 557 LINE",
"376 283 LINE",
"265 283 LINE"
);
}
);
};
layerId = "AA96BE86-BB68-49D4-94A1-31EA360FFFA2";
paths = (
{
closed = 1;
nodes = (
"121 0 LINE",
"199 125 LINE",
"370 125 LINE",
"344 0 LINE",
"805 0 LINE",
"882 176 LINE",
"583 176 LINE",
"604 275 LINE",
"838 275 LINE",
"872 435 LINE",
"638 435 LINE",
"657 526 LINE",
"932 526 LINE",
"969 700 LINE",
"356 700 LINE",
"-105 0 LINE"
);
},
{
closed = 1;
nodes = (
"458 537 LINE",
"404 283 LINE",
"299 283 LINE"
);
}
);
width = 932;
},
{
anchors = (
{
name = top;
position = "{660, 700}";
}
);
background = {
anchors = (
{
name = top;
position = "{638, 700}";
}
);
paths = (
{
closed = 1;
nodes = (
"-16 0 LINE",
"117 190 LINE",
"352 190 LINE",
"312 0 LINE",
"722 0 LINE",
"733 54 LINE",
"381 54 LINE",
"443 344 LINE",
"757 344 LINE",
"768 398 LINE",
"454 398 LINE",
"507 646 LINE",
"855 646 LINE",
"866 700 LINE",
"425 700 LINE",
"-79 0 LINE"
);
},
{
closed = 1;
nodes = (
"451 656 LINE",
"363 242 LINE",
"151 242 LINE"
);
}
);
};
layerId = "11F4F77C-5A4A-42C7-A4D7-8096DDA1923A";
paths = (
{
closed = 1;
nodes = (
"11 0 LINE",
"142 190 LINE",
"374 190 LINE",
"334 0 LINE",
"738 0 LINE",
"761 54 LINE",
"403 54 LINE",
"465 344 LINE",
"779 344 LINE",
"790 398 LINE",
"476 398 LINE",
"529 646 LINE",
"877 646 LINE",
"888 700 LINE",
"447 700 LINE",
"-56 0 LINE"
);
},
{
closed = 1;
nodes = (
"472 651 LINE",
"385 242 LINE",
"176 242 LINE"
);
}
);
width = 870;
}
);
leftKerningGroup = A;
rightKerningGroup = E;
rightMetricsKey = E;
unicode = 00C6;
},
{
color = 5;
glyphname = AEacute;
lastChange = "2019-12-20 09:13:02 +0000";
layers = (
{
components = (
{
name = AE;
},
{
name = acutecomb.case;
transform = "{1, 0, 0, 1, 958, 0}";
}
);
layerId = "38FA562F-EF2C-4367-983C-F15B205514DC";
width = 871;
},
{
components = (
{
name = AE;
},
{
name = acutecomb.case;
transform = "{1, 0, 0, 1, 1008, 0}";
}
);
layerId = "E991CF0C-7E17-4C48-B08A-36C8E595ED17";
width = 923;
},
{
components = (
{
name = AE;
},
{
name = acutecomb.case;
transform = "{1, 0, 0, 1, 1008, 0}";
}
);
layerId = "805D0193-4943-450F-A7B0-5A59B60D8C7D";
width = 923;
},
{
components = (
{
name = AE;
},
{
name = acutecomb.case;
transform = "{1, 0, 0, 1, 958, 0}";
}
);
layerId = "01407E7F-30D0-482B-A25C-5A532F071765";
width = 871;
},
{
background = {
anchors = (
{
name = top;
position = "{612, 700}";
}
);
paths = (
{
closed = 1;
nodes = (
"-43 0 LINE",
"90 190 LINE",
"325 190 LINE",
"285 0 LINE",
"695 0 LINE",
"706 54 LINE",
"354 54 LINE",
"416 344 LINE",
"730 344 LINE",
"741 398 LINE",
"427 398 LINE",
"480 646 LINE",
"828 646 LINE",
"840 700 LINE",
"399 700 LINE",
"-106 0 LINE"
);
},
{
closed = 1;
nodes = (
"424 656 LINE",
"336 242 LINE",
"124 242 LINE"
);
},
{
closed = 1;
nodes = (
"654 796 LINE",
"787 952 LINE",
"727 952 LINE",
"600 796 LINE"
);
}
);
};
components = (
{
name = AE;
},
{
name = acutecomb.case;
transform = "{1, 0, 0, 1, 1052, 0}";
}
);
layerId = "7A9E6466-FE38-4215-AA78-C86323202F89";
width = 870;
},
{
background = {
anchors = (
{
name = top;
position = "{642, 700}";
}
);
paths = (
{
closed = 1;
nodes = (
"65 0 LINE",
"143 125 LINE",
"318 125 LINE",
"291 0 LINE",
"772 0 LINE",
"809 176 LINE",
"530 176 LINE",
"552 275 LINE",
"786 275 LINE",
"820 435 LINE",
"586 435 LINE",
"605 526 LINE",
"880 526 LINE",
"917 700 LINE",
"303 700 LINE",
"-149 0 LINE"
);
},
{
closed = 1;
nodes = (
"409 557 LINE",
"351 283 LINE",
"240 283 LINE"
);
},
{
closed = 1;
nodes = (
"736 754 LINE",
"894 931 LINE",
"687 931 LINE",
"548 754 LINE"
);
}
);
};
components = (
{
name = AE;
},
{
name = acutecomb.case;
transform = "{1, 0, 0, 1, 1109, 0}";
}
);
layerId = "06050411-8C1E-4EA2-9807-ADB6E7423C7E";
width = 932;
},
{
background = {
anchors = (
{
name = top;
position = "{642, 700}";
}
);
paths = (
{
closed = 1;
nodes = (
"65 0 LINE",
"143 125 LINE",
"318 125 LINE",
"291 0 LINE",
"772 0 LINE",
"809 176 LINE",
"530 176 LINE",
"552 275 LINE",
"786 275 LINE",
"820 435 LINE",
"586 435 LINE",
"605 526 LINE",
"880 526 LINE",
"917 700 LINE",
"303 700 LINE",
"-149 0 LINE"
);
},
{
closed = 1;
nodes = (
"409 557 LINE",
"351 283 LINE",
"240 283 LINE"
);
},
{
closed = 1;
nodes = (
"736 754 LINE",
"894 931 LINE",
"687 931 LINE",
"548 754 LINE"
);
}
);
};
components = (
{
name = AE;
},
{
name = acutecomb.case;
transform = "{1, 0, 0, 1, 1109, 0}";
}
);
layerId = "AA96BE86-BB68-49D4-94A1-31EA360FFFA2";
width = 932;
},
{
background = {
anchors = (
{
name = top;
position = "{612, 700}";
}
);
paths = (
{
closed = 1;
nodes = (
"-43 0 LINE",
"90 190 LINE",
"325 190 LINE",
"285 0 LINE",
"695 0 LINE",
"706 54 LINE",
"354 54 LINE",
"416 344 LINE",
"730 344 LINE",
"741 398 LINE",
"427 398 LINE",
"480 646 LINE",
"828 646 LINE",
"840 700 LINE",
"399 700 LINE",
"-106 0 LINE"
);
},
{
closed = 1;
nodes = (
"424 656 LINE",
"336 242 LINE",
"124 242 LINE"
);
},
{
closed = 1;
nodes = (
"654 796 LINE",
"787 952 LINE",
"727 952 LINE",
"600 796 LINE"
);
}
);
};
components = (
{
name = AE;
},
{
name = acutecomb.case;
transform = "{1, 0, 0, 1, 1052, 0}";
}
);
layerId = "11F4F77C-5A4A-42C7-A4D7-8096DDA1923A";
width = 870;
}
);
leftKerningGroup = A;
rightKerningGroup = E;
unicode = 01FC;
},
{
color = 4;
glyphname = B;
lastChange = "2019-12-20 09:13:02 +0000";
layers = (
{
layerId = "E991CF0C-7E17-4C48-B08A-36C8E595ED17";
paths = (
{
closed = 1;
nodes = (
"373 0 LINE SMOOTH",
"539 0 OFFCURVE",
"642 80 OFFCURVE",
"642 211 CURVE SMOOTH",
"642 293 OFFCURVE",
"595 359 OFFCURVE",
"521 387 CURVE",
"575 415 OFFCURVE",
"612 460 OFFCURVE",
"612 522 CURVE SMOOTH",
"612 640 OFFCURVE",
"518 700 OFFCURVE",
"370 700 CURVE SMOOTH",
"78 700 LINE",
"78 0 LINE"
);
},
{
closed = 1;
nodes = (
"280 287 LINE",
"356 287 LINE SMOOTH",
"404 287 OFFCURVE",
"431 260 OFFCURVE",
"431 216 CURVE SMOOTH",
"431 170 OFFCURVE",
"402 145 OFFCURVE",
"346 145 CURVE SMOOTH",
"280 145 LINE"
);
},
{
closed = 1;
nodes = (
"280 555 LINE",
"341 555 LINE SMOOTH",
"390 555 OFFCURVE",
"417 531 OFFCURVE",
"417 489 CURVE SMOOTH",
"417 446 OFFCURVE",
"390 421 OFFCURVE",
"344 421 CURVE SMOOTH",
"280 421 LINE"
);
}
);
width = 672;
},
{
layerId = "38FA562F-EF2C-4367-983C-F15B205514DC";
paths = (
{
closed = 1;
nodes = (
"325 0 LINE SMOOTH",
"460 0 OFFCURVE",
"545 72 OFFCURVE",
"545 188 CURVE SMOOTH",
"545 285 OFFCURVE",
"493 353 OFFCURVE",
"409 369 CURVE",
"480 388 OFFCURVE",
"523 448 OFFCURVE",
"523 524 CURVE SMOOTH",
"523 635 OFFCURVE",
"435 700 OFFCURVE",
"309 700 CURVE SMOOTH",
"100 700 LINE",
"100 0 LINE"
);
},
{
closed = 1;
nodes = (
"158 335 LINE",
"322 335 LINE SMOOTH",
"432 335 OFFCURVE",
"487 286 OFFCURVE",
"487 193 CURVE SMOOTH",
"487 98 OFFCURVE",
"430 54 OFFCURVE",
"311 54 CURVE SMOOTH",
"158 54 LINE"
);
},
{
closed = 1;
nodes = (
"158 646 LINE",
"296 646 LINE SMOOTH",
"404 646 OFFCURVE",
"465 603 OFFCURVE",
"465 523 CURVE SMOOTH",
"465 439 OFFCURVE",
"398 389 OFFCURVE",
"287 389 CURVE SMOOTH",
"158 389 LINE"
);
}
);
width = 605;
},
{
layerId = "805D0193-4943-450F-A7B0-5A59B60D8C7D";
paths = (
{
closed = 1;
nodes = (
"373 0 LINE SMOOTH",
"539 0 OFFCURVE",
"642 80 OFFCURVE",
"642 211 CURVE SMOOTH",
"642 293 OFFCURVE",
"595 359 OFFCURVE",
"521 387 CURVE",
"575 415 OFFCURVE",
"612 460 OFFCURVE",
"612 522 CURVE SMOOTH",
"612 640 OFFCURVE",
"518 700 OFFCURVE",
"370 700 CURVE SMOOTH",
"78 700 LINE",
"78 0 LINE"
);
},
{
closed = 1;
nodes = (
"280 287 LINE",
"356 287 LINE SMOOTH",
"404 287 OFFCURVE",
"431 260 OFFCURVE",
"431 216 CURVE SMOOTH",
"431 170 OFFCURVE",
"402 145 OFFCURVE",
"346 145 CURVE SMOOTH",
"280 145 LINE"
);
},
{
closed = 1;
nodes = (
"280 555 LINE",
"341 555 LINE SMOOTH",
"390 555 OFFCURVE",
"417 531 OFFCURVE",
"417 489 CURVE SMOOTH",
"417 446 OFFCURVE",
"390 421 OFFCURVE",
"344 421 CURVE SMOOTH",
"280 421 LINE"
);
}
);
width = 672;
},
{
layerId = "01407E7F-30D0-482B-A25C-5A532F071765";
paths = (
{
closed = 1;
nodes = (
"325 0 LINE SMOOTH",
"460 0 OFFCURVE",
"545 72 OFFCURVE",
"545 188 CURVE SMOOTH",
"545 285 OFFCURVE",
"493 353 OFFCURVE",
"409 369 CURVE",
"480 388 OFFCURVE",
"523 448 OFFCURVE",
"523 524 CURVE SMOOTH",
"523 635 OFFCURVE",
"435 700 OFFCURVE",
"309 700 CURVE SMOOTH",
"100 700 LINE",
"100 0 LINE"
);
},
{
closed = 1;
nodes = (
"158 335 LINE",
"322 335 LINE SMOOTH",
"432 335 OFFCURVE",
"487 286 OFFCURVE",
"487 193 CURVE SMOOTH",
"487 98 OFFCURVE",
"430 54 OFFCURVE",
"311 54 CURVE SMOOTH",
"158 54 LINE"
);
},
{
closed = 1;
nodes = (
"158 646 LINE",
"296 646 LINE SMOOTH",
"404 646 OFFCURVE",
"465 603 OFFCURVE",
"465 523 CURVE SMOOTH",
"465 439 OFFCURVE",
"398 389 OFFCURVE",
"287 389 CURVE SMOOTH",
"158 389 LINE"
);
}
);
width = 605;
},
{
background = {
paths = (
{
closed = 1;
nodes = (
"251 0 LINE SMOOTH",
"386 0 OFFCURVE",
"486 72 OFFCURVE",
"511 188 CURVE SMOOTH",
"531 285 OFFCURVE",
"494 353 OFFCURVE",
"413 369 CURVE",
"488 388 OFFCURVE",
"544 448 OFFCURVE",
"560 524 CURVE SMOOTH",
"584 635 OFFCURVE",
"509 700 OFFCURVE",
"383 700 CURVE SMOOTH",
"174 700 LINE",
"26 0 LINE"
);
},
{
closed = 1;
nodes = (
"155 335 LINE",
"319 335 LINE SMOOTH",
"429 335 OFFCURVE",
"473 286 OFFCURVE",
"454 193 CURVE SMOOTH",
"433 98 OFFCURVE",
"367 54 OFFCURVE",
"248 54 CURVE SMOOTH",
"95 54 LINE"
);
},
{
closed = 1;
nodes = (
"221 646 LINE",
"359 646 LINE SMOOTH",
"467 646 OFFCURVE",
"519 603 OFFCURVE",
"502 523 CURVE SMOOTH",
"484 439 OFFCURVE",
"406 389 OFFCURVE",
"295 389 CURVE SMOOTH",
"166 389 LINE"
);
}
);
};
layerId = "7A9E6466-FE38-4215-AA78-C86323202F89";
paths = (
{
closed = 1;
nodes = (
"304 0 LINE SMOOTH",
"437 0 OFFCURVE",
"537 84 OFFCURVE",
"537 213 CURVE SMOOTH",
"537 290 OFFCURVE",
"503 344 OFFCURVE",
"436 364 CURVE",
"525 381 OFFCURVE",
"588 456 OFFCURVE",
"588 542 CURVE SMOOTH",
"588 640 OFFCURVE",
"508 700 OFFCURVE",
"380 700 CURVE SMOOTH",
"198 700 LINE",
"50 0 LINE"
);
},
{
closed = 1;
nodes = (
"179 335 LINE",
"317 335 LINE SMOOTH",
"428 335 OFFCURVE",
"480 294 OFFCURVE",
"480 215 CURVE SMOOTH",
"480 110 OFFCURVE",
"413 54 OFFCURVE",
"296 54 CURVE SMOOTH",
"119 54 LINE"
);
},
{
closed = 1;
nodes = (
"245 646 LINE",
"361 646 LINE SMOOTH",
"471 646 OFFCURVE",
"529 607 OFFCURVE",
"529 536 CURVE SMOOTH",
"529 447 OFFCURVE",
"449 389 OFFCURVE",
"344 389 CURVE SMOOTH",
"190 389 LINE"
);
}
);
width = 608;
},
{
associatedMasterId = "7A9E6466-FE38-4215-AA78-C86323202F89";
background = {
paths = (
{
closed = 1;
nodes = (
"251 0 LINE SMOOTH",
"386 0 OFFCURVE",
"486 72 OFFCURVE",
"511 188 CURVE SMOOTH",
"531 285 OFFCURVE",
"494 353 OFFCURVE",
"413 369 CURVE",
"488 388 OFFCURVE",
"544 448 OFFCURVE",
"560 524 CURVE SMOOTH",
"584 635 OFFCURVE",
"509 700 OFFCURVE",
"383 700 CURVE SMOOTH",
"174 700 LINE",
"26 0 LINE"
);
},
{
closed = 1;
nodes = (
"155 335 LINE",
"319 335 LINE SMOOTH",
"429 335 OFFCURVE",
"473 286 OFFCURVE",
"454 193 CURVE SMOOTH",
"433 98 OFFCURVE",
"367 54 OFFCURVE",
"248 54 CURVE SMOOTH",
"95 54 LINE"
);
},
{
closed = 1;
nodes = (
"221 646 LINE",
"359 646 LINE SMOOTH",
"467 646 OFFCURVE",
"519 603 OFFCURVE",
"502 523 CURVE SMOOTH",
"484 439 OFFCURVE",
"406 389 OFFCURVE",
"295 389 CURVE SMOOTH",
"166 389 LINE"
);
}
);
};
layerId = "0A21623B-0A52-480A-B12B-0950F0E9FB91";
name = "Oct 19 19, 20:13";
paths = (
{
closed = 1;
nodes = (
"251 0 LINE SMOOTH",
"386 0 OFFCURVE",
"486 72 OFFCURVE",
"511 188 CURVE SMOOTH",
"531 285 OFFCURVE",
"494 353 OFFCURVE",
"413 369 CURVE",
"488 388 OFFCURVE",
"544 448 OFFCURVE",
"560 524 CURVE SMOOTH",
"584 635 OFFCURVE",
"509 700 OFFCURVE",
"383 700 CURVE SMOOTH",
"174 700 LINE",
"26 0 LINE"
);
},
{
closed = 1;
nodes = (
"155 335 LINE",
"319 335 LINE SMOOTH",
"429 335 OFFCURVE",
"473 286 OFFCURVE",
"454 193 CURVE SMOOTH",
"433 98 OFFCURVE",
"367 54 OFFCURVE",
"248 54 CURVE SMOOTH",
"95 54 LINE"
);
},
{
closed = 1;
nodes = (
"221 646 LINE",
"359 646 LINE SMOOTH",
"467 646 OFFCURVE",
"519 603 OFFCURVE",
"502 523 CURVE SMOOTH",
"484 439 OFFCURVE",
"406 389 OFFCURVE",
"295 389 CURVE SMOOTH",
"166 389 LINE"
);
}
);
width = 605;
},
{
background = {
paths = (
{
closed = 1;
nodes = (
"299 0 LINE SMOOTH",
"465 0 OFFCURVE",
"585 80 OFFCURVE",
"612 211 CURVE SMOOTH",
"630 293 OFFCURVE",
"597 359 OFFCURVE",
"529 387 CURVE",
"589 415 OFFCURVE",
"635 460 OFFCURVE",
"649 522 CURVE SMOOTH",
"674 640 OFFCURVE",
"592 700 OFFCURVE",
"444 700 CURVE SMOOTH",
"152 700 LINE",
"4 0 LINE"
);
},
{
closed = 1;
nodes = (
"267 287 LINE",
"343 287 LINE SMOOTH",
"391 287 OFFCURVE",
"412 260 OFFCURVE",
"403 216 CURVE SMOOTH",
"393 170 OFFCURVE",
"358 145 OFFCURVE",
"302 145 CURVE SMOOTH",
"236 145 LINE"
);
},
{
closed = 1;
nodes = (
"324 555 LINE",
"385 555 LINE SMOOTH",
"434 555 OFFCURVE",
"455 531 OFFCURVE",
"447 489 CURVE SMOOTH",
"437 446 OFFCURVE",
"405 421 OFFCURVE",
"359 421 CURVE SMOOTH",
"295 421 LINE"
);
}
);
};
layerId = "06050411-8C1E-4EA2-9807-ADB6E7423C7E";
paths = (
{
closed = 1;
nodes = (
"350 0 LINE SMOOTH",
"506 0 OFFCURVE",
"634 84 OFFCURVE",
"634 226 CURVE SMOOTH",
"634 293 OFFCURVE",
"602 348 OFFCURVE",
"545 378 CURVE",
"620 407 OFFCURVE",
"673 460 OFFCURVE",
"673 537 CURVE SMOOTH",
"673 641 OFFCURVE",
"586 700 OFFCURVE",
"437 700 CURVE SMOOTH",
"172 700 LINE",
"24 0 LINE"
);
},
{
closed = 1;
nodes = (
"287 287 LINE",
"344 287 LINE SMOOTH",
"396 287 OFFCURVE",
"422 266 OFFCURVE",
"422 225 CURVE SMOOTH",
"422 178 OFFCURVE",
"390 145 OFFCURVE",
"338 145 CURVE SMOOTH",
"256 145 LINE"
);
},
{
closed = 1;
nodes = (
"344 555 LINE",
"392 555 LINE SMOOTH",
"445 555 OFFCURVE",
"471 536 OFFCURVE",
"471 497 CURVE SMOOTH",
"471 458 OFFCURVE",
"444 421 OFFCURVE",
"401 421 CURVE SMOOTH",
"315 421 LINE"
);
}
);
width = 676;
},
{
associatedMasterId = "06050411-8C1E-4EA2-9807-ADB6E7423C7E";
background = {
paths = (
{
closed = 1;
nodes = (
"299 0 LINE SMOOTH",
"465 0 OFFCURVE",
"585 80 OFFCURVE",
"612 211 CURVE SMOOTH",
"630 293 OFFCURVE",
"597 359 OFFCURVE",
"529 387 CURVE",
"589 415 OFFCURVE",
"635 460 OFFCURVE",
"649 522 CURVE SMOOTH",
"674 640 OFFCURVE",
"592 700 OFFCURVE",
"444 700 CURVE SMOOTH",
"152 700 LINE",
"4 0 LINE"
);
},
{
closed = 1;
nodes = (
"267 287 LINE",
"343 287 LINE SMOOTH",
"391 287 OFFCURVE",
"412 260 OFFCURVE",
"403 216 CURVE SMOOTH",
"393 170 OFFCURVE",
"358 145 OFFCURVE",
"302 145 CURVE SMOOTH",
"236 145 LINE"
);
},
{
closed = 1;
nodes = (
"324 555 LINE",
"385 555 LINE SMOOTH",
"434 555 OFFCURVE",
"455 531 OFFCURVE",
"447 489 CURVE SMOOTH",
"437 446 OFFCURVE",
"405 421 OFFCURVE",
"359 421 CURVE SMOOTH",
"295 421 LINE"
);
}
);
};
layerId = "6FEB626B-3FE1-40A5-BC77-CEB606E78BC3";
name = "Oct 19 19, 20:13";
paths = (
{
closed = 1;
nodes = (
"299 0 LINE SMOOTH",
"465 0 OFFCURVE",
"585 80 OFFCURVE",
"612 211 CURVE SMOOTH",
"630 293 OFFCURVE",
"597 359 OFFCURVE",
"529 387 CURVE",
"589 415 OFFCURVE",
"635 460 OFFCURVE",
"649 522 CURVE SMOOTH",
"674 640 OFFCURVE",
"592 700 OFFCURVE",
"444 700 CURVE SMOOTH",
"152 700 LINE",
"4 0 LINE"
);
},
{
closed = 1;
nodes = (
"267 287 LINE",
"343 287 LINE SMOOTH",
"391 287 OFFCURVE",
"412 260 OFFCURVE",
"403 216 CURVE SMOOTH",
"393 170 OFFCURVE",
"358 145 OFFCURVE",
"302 145 CURVE SMOOTH",
"236 145 LINE"
);
},
{
closed = 1;
nodes = (
"324 555 LINE",
"385 555 LINE SMOOTH",
"434 555 OFFCURVE",
"455 531 OFFCURVE",
"447 489 CURVE SMOOTH",
"437 446 OFFCURVE",
"405 421 OFFCURVE",
"359 421 CURVE SMOOTH",
"295 421 LINE"
);
}
);
width = 672;
},
{
background = {
paths = (
{
closed = 1;
nodes = (
"299 0 LINE SMOOTH",
"465 0 OFFCURVE",
"585 80 OFFCURVE",
"612 211 CURVE SMOOTH",
"630 293 OFFCURVE",
"597 359 OFFCURVE",
"529 387 CURVE",
"589 415 OFFCURVE",
"635 460 OFFCURVE",
"649 522 CURVE SMOOTH",
"674 640 OFFCURVE",
"592 700 OFFCURVE",
"444 700 CURVE SMOOTH",
"152 700 LINE",
"4 0 LINE"
);
},
{
closed = 1;
nodes = (
"267 287 LINE",
"343 287 LINE SMOOTH",
"391 287 OFFCURVE",
"412 260 OFFCURVE",
"403 216 CURVE SMOOTH",
"393 170 OFFCURVE",
"358 145 OFFCURVE",
"302 145 CURVE SMOOTH",
"236 145 LINE"
);
},
{
closed = 1;
nodes = (
"324 555 LINE",
"385 555 LINE SMOOTH",
"434 555 OFFCURVE",
"455 531 OFFCURVE",
"447 489 CURVE SMOOTH",
"437 446 OFFCURVE",
"405 421 OFFCURVE",
"359 421 CURVE SMOOTH",
"295 421 LINE"
);
}
);
};
layerId = "AA96BE86-BB68-49D4-94A1-31EA360FFFA2";
paths = (
{
closed = 1;
nodes = (
"350 0 LINE SMOOTH",
"506 0 OFFCURVE",
"634 84 OFFCURVE",
"634 226 CURVE SMOOTH",
"634 293 OFFCURVE",
"602 348 OFFCURVE",
"545 378 CURVE",
"620 407 OFFCURVE",
"673 460 OFFCURVE",
"673 537 CURVE SMOOTH",
"673 641 OFFCURVE",
"586 700 OFFCURVE",
"437 700 CURVE SMOOTH",
"172 700 LINE",
"24 0 LINE"
);
},
{
closed = 1;
nodes = (
"287 287 LINE",
"344 287 LINE SMOOTH",
"396 287 OFFCURVE",
"422 266 OFFCURVE",
"422 225 CURVE SMOOTH",
"422 178 OFFCURVE",
"390 145 OFFCURVE",
"338 145 CURVE SMOOTH",
"256 145 LINE"
);
},
{
closed = 1;
nodes = (
"344 555 LINE",
"392 555 LINE SMOOTH",
"445 555 OFFCURVE",
"471 536 OFFCURVE",
"471 497 CURVE SMOOTH",
"471 458 OFFCURVE",
"444 421 OFFCURVE",
"401 421 CURVE SMOOTH",
"315 421 LINE"
);
}
);
width = 676;
},
{
associatedMasterId = "AA96BE86-BB68-49D4-94A1-31EA360FFFA2";
background = {
paths = (
{
closed = 1;
nodes = (
"299 0 LINE SMOOTH",
"465 0 OFFCURVE",
"585 80 OFFCURVE",
"612 211 CURVE SMOOTH",
"630 293 OFFCURVE",
"597 359 OFFCURVE",
"529 387 CURVE",
"589 415 OFFCURVE",
"635 460 OFFCURVE",
"649 522 CURVE SMOOTH",
"674 640 OFFCURVE",
"592 700 OFFCURVE",
"444 700 CURVE SMOOTH",
"152 700 LINE",
"4 0 LINE"
);
},
{
closed = 1;
nodes = (
"267 287 LINE",
"343 287 LINE SMOOTH",
"391 287 OFFCURVE",
"412 260 OFFCURVE",
"403 216 CURVE SMOOTH",
"393 170 OFFCURVE",
"358 145 OFFCURVE",
"302 145 CURVE SMOOTH",
"236 145 LINE"
);
},
{
closed = 1;
nodes = (
"324 555 LINE",
"385 555 LINE SMOOTH",
"434 555 OFFCURVE",
"455 531 OFFCURVE",
"447 489 CURVE SMOOTH",
"437 446 OFFCURVE",
"405 421 OFFCURVE",
"359 421 CURVE SMOOTH",
"295 421 LINE"
);
}
);
};
layerId = "E553C294-2EA0-4E3B-8FF9-D343B384C928";
name = "Oct 19 19, 20:13";
paths = (
{
closed = 1;
nodes = (
"299 0 LINE SMOOTH",
"465 0 OFFCURVE",
"585 80 OFFCURVE",
"612 211 CURVE SMOOTH",
"630 293 OFFCURVE",
"597 359 OFFCURVE",
"529 387 CURVE",
"589 415 OFFCURVE",
"635 460 OFFCURVE",
"649 522 CURVE SMOOTH",
"674 640 OFFCURVE",
"592 700 OFFCURVE",
"444 700 CURVE SMOOTH",
"152 700 LINE",
"4 0 LINE"
);
},
{
closed = 1;
nodes = (
"267 287 LINE",
"343 287 LINE SMOOTH",
"391 287 OFFCURVE",
"412 260 OFFCURVE",
"403 216 CURVE SMOOTH",
"393 170 OFFCURVE",
"358 145 OFFCURVE",
"302 145 CURVE SMOOTH",
"236 145 LINE"
);
},
{
closed = 1;
nodes = (
"324 555 LINE",
"385 555 LINE SMOOTH",
"434 555 OFFCURVE",
"455 531 OFFCURVE",
"447 489 CURVE SMOOTH",
"437 446 OFFCURVE",
"405 421 OFFCURVE",
"359 421 CURVE SMOOTH",
"295 421 LINE"
);
}
);
width = 672;
},
{
background = {
paths = (
{
closed = 1;
nodes = (
"251 0 LINE SMOOTH",
"386 0 OFFCURVE",
"486 72 OFFCURVE",
"511 188 CURVE SMOOTH",
"531 285 OFFCURVE",
"494 353 OFFCURVE",
"413 369 CURVE",
"488 388 OFFCURVE",
"544 448 OFFCURVE",
"560 524 CURVE SMOOTH",
"584 635 OFFCURVE",
"509 700 OFFCURVE",
"383 700 CURVE SMOOTH",
"174 700 LINE",
"26 0 LINE"
);
},
{
closed = 1;
nodes = (
"155 335 LINE",
"319 335 LINE SMOOTH",
"429 335 OFFCURVE",
"473 286 OFFCURVE",
"454 193 CURVE SMOOTH",
"433 98 OFFCURVE",
"367 54 OFFCURVE",
"248 54 CURVE SMOOTH",
"95 54 LINE"
);
},
{
closed = 1;
nodes = (
"221 646 LINE",
"359 646 LINE SMOOTH",
"467 646 OFFCURVE",
"519 603 OFFCURVE",
"502 523 CURVE SMOOTH",
"484 439 OFFCURVE",
"406 389 OFFCURVE",
"295 389 CURVE SMOOTH",
"166 389 LINE"
);
}
);
};
layerId = "11F4F77C-5A4A-42C7-A4D7-8096DDA1923A";
paths = (
{
closed = 1;
nodes = (
"304 0 LINE SMOOTH",
"437 0 OFFCURVE",
"537 84 OFFCURVE",
"537 213 CURVE SMOOTH",
"537 290 OFFCURVE",
"503 344 OFFCURVE",
"436 364 CURVE",
"525 381 OFFCURVE",
"588 456 OFFCURVE",
"588 542 CURVE SMOOTH",
"588 640 OFFCURVE",
"508 700 OFFCURVE",
"380 700 CURVE SMOOTH",
"198 700 LINE",
"50 0 LINE"
);
},
{
closed = 1;
nodes = (
"179 335 LINE",
"317 335 LINE SMOOTH",
"428 335 OFFCURVE",
"480 294 OFFCURVE",
"480 215 CURVE SMOOTH",
"480 110 OFFCURVE",
"413 54 OFFCURVE",
"296 54 CURVE SMOOTH",
"119 54 LINE"
);
},
{
closed = 1;
nodes = (
"245 646 LINE",
"361 646 LINE SMOOTH",
"471 646 OFFCURVE",
"529 607 OFFCURVE",
"529 536 CURVE SMOOTH",
"529 447 OFFCURVE",
"449 389 OFFCURVE",
"344 389 CURVE SMOOTH",
"190 389 LINE"
);
}
);
width = 608;
},
{
associatedMasterId = "11F4F77C-5A4A-42C7-A4D7-8096DDA1923A";
background = {
paths = (
{
closed = 1;
nodes = (
"251 0 LINE SMOOTH",
"386 0 OFFCURVE",
"486 72 OFFCURVE",
"511 188 CURVE SMOOTH",
"531 285 OFFCURVE",
"494 353 OFFCURVE",
"413 369 CURVE",
"488 388 OFFCURVE",
"544 448 OFFCURVE",
"560 524 CURVE SMOOTH",
"584 635 OFFCURVE",
"509 700 OFFCURVE",
"383 700 CURVE SMOOTH",
"174 700 LINE",
"26 0 LINE"
);
},
{
closed = 1;
nodes = (
"155 335 LINE",
"319 335 LINE SMOOTH",
"429 335 OFFCURVE",
"473 286 OFFCURVE",
"454 193 CURVE SMOOTH",
"433 98 OFFCURVE",
"367 54 OFFCURVE",
"248 54 CURVE SMOOTH",
"95 54 LINE"
);
},
{
closed = 1;
nodes = (
"221 646 LINE",
"359 646 LINE SMOOTH",
"467 646 OFFCURVE",
"519 603 OFFCURVE",
"502 523 CURVE SMOOTH",
"484 439 OFFCURVE",
"406 389 OFFCURVE",
"295 389 CURVE SMOOTH",
"166 389 LINE"
);
}
);
};
layerId = "4DC38A6D-6587-4D8F-ACDF-E9905A81CB99";
name = "Oct 19 19, 20:13";
paths = (
{
closed = 1;
nodes = (
"251 0 LINE SMOOTH",
"386 0 OFFCURVE",
"486 72 OFFCURVE",
"511 188 CURVE SMOOTH",
"531 285 OFFCURVE",
"494 353 OFFCURVE",
"413 369 CURVE",
"488 388 OFFCURVE",
"544 448 OFFCURVE",
"560 524 CURVE SMOOTH",
"584 635 OFFCURVE",
"509 700 OFFCURVE",
"383 700 CURVE SMOOTH",
"174 700 LINE",
"26 0 LINE"
);
},
{
closed = 1;
nodes = (
"155 335 LINE",
"319 335 LINE SMOOTH",
"429 335 OFFCURVE",
"473 286 OFFCURVE",
"454 193 CURVE SMOOTH",
"433 98 OFFCURVE",
"367 54 OFFCURVE",
"248 54 CURVE SMOOTH",
"95 54 LINE"
);
},
{
closed = 1;
nodes = (
"221 646 LINE",
"359 646 LINE SMOOTH",
"467 646 OFFCURVE",
"519 603 OFFCURVE",
"502 523 CURVE SMOOTH",
"484 439 OFFCURVE",
"406 389 OFFCURVE",
"295 389 CURVE SMOOTH",
"166 389 LINE"
);
}
);
width = 605;
}
);
leftKerningGroup = H;
leftMetricsKey = I;
rightKerningGroup = B;
unicode = 0042;
},
{
color = 6;
glyphname = C;
lastChange = "2020-01-27 18:13:45 +0000";
layers = (
{
anchors = (
{
name = bottom;
position = "{391, 0}";
},
{
name = top;
position = "{391, 700}";
}
);
layerId = "E991CF0C-7E17-4C48-B08A-36C8E595ED17";
paths = (
{
closed = 1;
nodes = (
"539 -15 OFFCURVE",
"630 21 OFFCURVE",
"693 69 CURVE",
"601 238 LINE",
"547 199 OFFCURVE",
"486 182 OFFCURVE",
"429 182 CURVE SMOOTH",
"317 182 OFFCURVE",
"252 245 OFFCURVE",
"252 350 CURVE SMOOTH",
"252 453 OFFCURVE",
"314 518 OFFCURVE",
"427 518 CURVE SMOOTH",
"490 518 OFFCURVE",
"543 498 OFFCURVE",
"579 459 CURVE",
"678 625 LINE",
"610 682 OFFCURVE",
"538 715 OFFCURVE",
"414 715 CURVE SMOOTH",
"196 715 OFFCURVE",
"40 564 OFFCURVE",
"40 347 CURVE SMOOTH",
"40 124 OFFCURVE",
"193 -15 OFFCURVE",
"411 -15 CURVE SMOOTH"
);
}
);
width = 716;
},
{
anchors = (
{
name = bottom;
position = "{393, 0}";
},
{
name = top;
position = "{393, 700}";
}
);
layerId = "38FA562F-EF2C-4367-983C-F15B205514DC";
paths = (
{
closed = 1;
nodes = (
"508 -15 OFFCURVE",
"590 9 OFFCURVE",
"661 65 CURVE",
"633 115 LINE",
"573 62 OFFCURVE",
"503 41 OFFCURVE",
"425 41 CURVE SMOOTH",
"237 41 OFFCURVE",
"116 154 OFFCURVE",
"116 351 CURVE SMOOTH",
"116 541 OFFCURVE",
"236 660 OFFCURVE",
"418 660 CURVE SMOOTH",
"493 660 OFFCURVE",
"556 640 OFFCURVE",
"605 599 CURVE",
"639 646 LINE",
"586 690 OFFCURVE",
"509 715 OFFCURVE",
"413 715 CURVE SMOOTH",
"205 715 OFFCURVE",
"56 557 OFFCURVE",
"56 342 CURVE SMOOTH",
"56 128 OFFCURVE",
"196 -15 OFFCURVE",
"413 -15 CURVE SMOOTH"
);
}
);
width = 712;
},
{
anchors = (
{
name = bottom;
position = "{391, 0}";
},
{
name = top;
position = "{391, 700}";
}
);
layerId = "805D0193-4943-450F-A7B0-5A59B60D8C7D";
paths = (
{
closed = 1;
nodes = (
"497 -15 OFFCURVE",
"566 1 OFFCURVE",
"621 26 CURVE",
"621 238 LINE",
"561 199 OFFCURVE",
"493 182 OFFCURVE",
"429 182 CURVE SMOOTH",
"317 182 OFFCURVE",
"252 245 OFFCURVE",
"252 350 CURVE SMOOTH",
"252 453 OFFCURVE",
"314 518 OFFCURVE",
"427 518 CURVE SMOOTH",
"498 518 OFFCURVE",
"558 498 OFFCURVE",
"599 459 CURVE",
"599 678 LINE",
"550 702 OFFCURVE",
"492 715 OFFCURVE",
"414 715 CURVE SMOOTH",
"196 715 OFFCURVE",
"40 564 OFFCURVE",
"40 347 CURVE SMOOTH",
"40 124 OFFCURVE",
"193 -15 OFFCURVE",
"411 -15 CURVE SMOOTH"
);
}
);
width = 686;
},
{
anchors = (
{
name = bottom;
position = "{393, 0}";
},
{
name = top;
position = "{393, 700}";
}
);
layerId = "01407E7F-30D0-482B-A25C-5A532F071765";
paths = (
{
closed = 1;
nodes = (
"500 -15 OFFCURVE",
"576 5 OFFCURVE",
"643 52 CURVE",
"643 115 LINE",
"580 62 OFFCURVE",
"507 41 OFFCURVE",
"425 41 CURVE SMOOTH",
"237 41 OFFCURVE",
"116 154 OFFCURVE",
"116 351 CURVE SMOOTH",
"116 541 OFFCURVE",
"236 660 OFFCURVE",
"418 660 CURVE SMOOTH",
"501 660 OFFCURVE",
"570 640 OFFCURVE",
"625 599 CURVE",
"625 657 LINE",
"572 694 OFFCURVE",
"501 715 OFFCURVE",
"413 715 CURVE SMOOTH",
"205 715 OFFCURVE",
"56 557 OFFCURVE",
"56 342 CURVE SMOOTH",
"56 128 OFFCURVE",
"196 -15 OFFCURVE",
"413 -15 CURVE SMOOTH"
);
}
);
width = 702;
},
{
anchors = (
{
name = bottom;
position = "{365, 0}";
},
{
name = top;
position = "{477, 700}";
}
);
background = {
anchors = (
{
name = bottom;
position = "{319, 0}";
},
{
name = top;
position = "{467, 700}";
}
);
paths = (
{
closed = 1;
nodes = (
"430 -15 OFFCURVE",
"518 9 OFFCURVE",
"600 65 CURVE",
"583 115 LINE",
"512 62 OFFCURVE",
"437 41 OFFCURVE",
"359 41 CURVE SMOOTH",
"171 41 OFFCURVE",
"74 154 OFFCURVE",
"116 351 CURVE SMOOTH",
"157 541 OFFCURVE",
"302 660 OFFCURVE",
"484 660 CURVE SMOOTH",
"559 660 OFFCURVE",
"618 640 OFFCURVE",
"658 599 CURVE",
"702 646 LINE",
"657 690 OFFCURVE",
"586 715 OFFCURVE",
"491 715 CURVE SMOOTH",
"283 715 OFFCURVE",
"100 557 OFFCURVE",
"54 342 CURVE SMOOTH",
"9 128 OFFCURVE",
"118 -15 OFFCURVE",
"335 -15 CURVE SMOOTH"
);
}
);
};
layerId = "7A9E6466-FE38-4215-AA78-C86323202F89";
paths = (
{
closed = 1;
nodes = (
"491 -15 OFFCURVE",
"565 4 OFFCURVE",
"634 48 CURVE",
"616 101 LINE",
"556 59 OFFCURVE",
"492 41 OFFCURVE",
"424 41 CURVE SMOOTH",
"248 41 OFFCURVE",
"139 136 OFFCURVE",
"139 299 CURVE SMOOTH",
"139 500 OFFCURVE",
"269 660 OFFCURVE",
"473 660 CURVE SMOOTH",
"560 660 OFFCURVE",
"628 635 OFFCURVE",
"674 586 CURVE",
"716 631 LINE",
"665 684 OFFCURVE",
"585 715 OFFCURVE",
"477 715 CURVE SMOOTH",
"248 715 OFFCURVE",
"77 521 OFFCURVE",
"77 291 CURVE SMOOTH",
"77 107 OFFCURVE",
"202 -15 OFFCURVE",
"410 -15 CURVE SMOOTH"
);
}
);
width = 726;
},
{
anchors = (
{
name = bottom;
position = "{359, 0}";
},
{
name = top;
position = "{471, 700}";
}
);
background = {
anchors = (
{
name = bottom;
position = "{317, 0}";
},
{
name = top;
position = "{465, 700}";
}
);
paths = (
{
closed = 1;
nodes = (
"461 -15 OFFCURVE",
"560 21 OFFCURVE",
"633 69 CURVE",
"577 238 LINE",
"515 199 OFFCURVE",
"450 182 OFFCURVE",
"393 182 CURVE SMOOTH",
"281 182 OFFCURVE",
"230 245 OFFCURVE",
"252 350 CURVE SMOOTH",
"274 453 OFFCURVE",
"350 518 OFFCURVE",
"463 518 CURVE SMOOTH",
"526 518 OFFCURVE",
"574 498 OFFCURVE",
"602 459 CURVE",
"736 625 LINE",
"681 682 OFFCURVE",
"616 715 OFFCURVE",
"492 715 CURVE SMOOTH",
"274 715 OFFCURVE",
"85 564 OFFCURVE",
"39 347 CURVE SMOOTH",
"-8 124 OFFCURVE",
"115 -15 OFFCURVE",
"333 -15 CURVE SMOOTH"
);
}
);
};
layerId = "06050411-8C1E-4EA2-9807-ADB6E7423C7E";
paths = (
{
closed = 1;
nodes = (
"517 -15 OFFCURVE",
"600 12 OFFCURVE",
"663 51 CURVE",
"605 227 LINE",
"551 195 OFFCURVE",
"493 182 OFFCURVE",
"441 182 CURVE SMOOTH",
"333 182 OFFCURVE",
"273 235 OFFCURVE",
"273 322 CURVE SMOOTH",
"273 435 OFFCURVE",
"344 518 OFFCURVE",
"463 518 CURVE SMOOTH",
"533 518 OFFCURVE",
"587 495 OFFCURVE",
"619 451 CURVE",
"746 607 LINE",
"673 684 OFFCURVE",
"594 715 OFFCURVE",
"471 715 CURVE SMOOTH",
"236 715 OFFCURVE",
"58 531 OFFCURVE",
"58 295 CURVE SMOOTH",
"58 98 OFFCURVE",
"208 -15 OFFCURVE",
"411 -15 CURVE SMOOTH"
);
}
);
width = 730;
},
{
anchors = (
{
name = bottom;
position = "{359, 0}";
},
{
name = top;
position = "{471, 700}";
}
);
background = {
anchors = (
{
name = bottom;
position = "{317, 0}";
},
{
name = top;
position = "{465, 700}";
}
);
paths = (
{
closed = 1;
nodes = (
"461 -15 OFFCURVE",
"560 21 OFFCURVE",
"633 69 CURVE",
"577 238 LINE",
"515 199 OFFCURVE",
"450 182 OFFCURVE",
"393 182 CURVE SMOOTH",
"281 182 OFFCURVE",
"230 245 OFFCURVE",
"252 350 CURVE SMOOTH",
"274 453 OFFCURVE",
"350 518 OFFCURVE",
"463 518 CURVE SMOOTH",
"526 518 OFFCURVE",
"574 498 OFFCURVE",
"602 459 CURVE",
"736 625 LINE",
"681 682 OFFCURVE",
"616 715 OFFCURVE",
"492 715 CURVE SMOOTH",
"274 715 OFFCURVE",
"85 564 OFFCURVE",
"39 347 CURVE SMOOTH",
"-8 124 OFFCURVE",
"115 -15 OFFCURVE",
"333 -15 CURVE SMOOTH"
);
}
);
};
guideLines = (
{
angle = 78.0016;
position = "{619, 451}";
},
{
angle = 78.0016;
position = "{57, 224}";
},
{
angle = 78.0016;
position = "{57, 224}";
}
);
layerId = "AA96BE86-BB68-49D4-94A1-31EA360FFFA2";
paths = (
{
closed = 1;
nodes = (
"475 -15 OFFCURVE",
"531 -5 OFFCURVE",
"579 12 CURVE",
"625 227 LINE",
"564 195 OFFCURVE",
"499 182 OFFCURVE",
"441 182 CURVE SMOOTH",
"333 182 OFFCURVE",
"273 235 OFFCURVE",
"273 322 CURVE SMOOTH",
"273 435 OFFCURVE",
"344 518 OFFCURVE",
"463 518 CURVE SMOOTH",
"542 518 OFFCURVE",
"603 495 OFFCURVE",
"639 451 CURVE",
"684 660 LINE",
"626 699 OFFCURVE",
"560 715 OFFCURVE",
"471 715 CURVE SMOOTH",
"236 715 OFFCURVE",
"58 531 OFFCURVE",
"58 295 CURVE SMOOTH",
"58 98 OFFCURVE",
"208 -15 OFFCURVE",
"411 -15 CURVE SMOOTH"
);
}
);
width = 730;
},
{
anchors = (
{
name = bottom;
position = "{365, 0}";
},
{
name = top;
position = "{477, 700}";
}
);
background = {
anchors = (
{
name = bottom;
position = "{319, 0}";
},
{
name = top;
position = "{467, 700}";
}
);
paths = (
{
closed = 1;
nodes = (
"430 -15 OFFCURVE",
"518 9 OFFCURVE",
"600 65 CURVE",
"583 115 LINE",
"512 62 OFFCURVE",
"437 41 OFFCURVE",
"359 41 CURVE SMOOTH",
"171 41 OFFCURVE",
"74 154 OFFCURVE",
"116 351 CURVE SMOOTH",
"157 541 OFFCURVE",
"302 660 OFFCURVE",
"484 660 CURVE SMOOTH",
"559 660 OFFCURVE",
"618 640 OFFCURVE",
"658 599 CURVE",
"702 646 LINE",
"657 690 OFFCURVE",
"586 715 OFFCURVE",
"491 715 CURVE SMOOTH",
"283 715 OFFCURVE",
"100 557 OFFCURVE",
"54 342 CURVE SMOOTH",
"9 128 OFFCURVE",
"118 -15 OFFCURVE",
"335 -15 CURVE SMOOTH"
);
}
);
};
guideLines = (
{
angle = 78.0016;
position = "{616, 101}";
},
{
angle = 78.0016;
position = "{674, 586}";
}
);
layerId = "11F4F77C-5A4A-42C7-A4D7-8096DDA1923A";
paths = (
{
closed = 1;
nodes = (
"482 -15 OFFCURVE",
"549 0 OFFCURVE",
"612 35 CURVE",
"626 101 LINE",
"563 59 OFFCURVE",
"496 41 OFFCURVE",
"424 41 CURVE SMOOTH",
"248 41 OFFCURVE",
"139 136 OFFCURVE",
"139 299 CURVE SMOOTH",
"139 500 OFFCURVE",
"269 660 OFFCURVE",
"473 660 CURVE SMOOTH",
"564 660 OFFCURVE",
"636 635 OFFCURVE",
"684 586 CURVE",
"697 648 LINE",
"646 691 OFFCURVE",
"572 715 OFFCURVE",
"477 715 CURVE SMOOTH",
"248 715 OFFCURVE",
"77 521 OFFCURVE",
"77 291 CURVE SMOOTH",
"77 107 OFFCURVE",
"202 -15 OFFCURVE",
"410 -15 CURVE SMOOTH"
);
}
);
width = 726;
}
);
leftKerningGroup = O;
leftMetricsKey = O;
rightKerningGroup = C;
unicode = 0043;
},
{
color = 5;
glyphname = Cacute;
lastChange = "2020-01-27 11:56:19 +0000";
layers = (
{
components = (
{
name = C;
},
{
name = acutecomb.case;
transform = "{1, 0, 0, 1, 787, 0}";
}
);
layerId = "38FA562F-EF2C-4367-983C-F15B205514DC";
width = 712;
},
{
components = (
{
name = C;
},
{
name = acutecomb.case;
transform = "{1, 0, 0, 1, 807, 0}";
}
);
layerId = "E991CF0C-7E17-4C48-B08A-36C8E595ED17";
width = 716;
},
{
components = (
{
name = C;
},
{
name = acutecomb.case;
transform = "{1, 0, 0, 1, 807, 0}";
}
);
layerId = "805D0193-4943-450F-A7B0-5A59B60D8C7D";
width = 686;
},
{
components = (
{
name = C;
},
{
name = acutecomb.case;
transform = "{1, 0, 0, 1, 787, 0}";
}
);
layerId = "01407E7F-30D0-482B-A25C-5A532F071765";
width = 702;
},
{
background = {
anchors = (
{
name = bottom;
position = "{293, 0}";
},
{
name = top;
position = "{442, 700}";
}
);
paths = (
{
closed = 1;
nodes = (
"405 -15 OFFCURVE",
"492 9 OFFCURVE",
"575 65 CURVE",
"558 115 LINE",
"487 62 OFFCURVE",
"412 41 OFFCURVE",
"334 41 CURVE SMOOTH",
"146 41 OFFCURVE",
"49 154 OFFCURVE",
"91 351 CURVE SMOOTH",
"131 541 OFFCURVE",
"277 660 OFFCURVE",
"459 660 CURVE SMOOTH",
"534 660 OFFCURVE",
"592 640 OFFCURVE",
"633 599 CURVE",
"677 646 LINE",
"632 690 OFFCURVE",
"560 715 OFFCURVE",
"465 715 CURVE SMOOTH",
"257 715 OFFCURVE",
"75 557 OFFCURVE",
"29 342 CURVE SMOOTH",
"-16 128 OFFCURVE",
"93 -15 OFFCURVE",
"310 -15 CURVE SMOOTH"
);
},
{
closed = 1;
nodes = (
"485 796 LINE",
"618 952 LINE",
"558 952 LINE",
"431 796 LINE"
);
}
);
};
components = (
{
name = C;
},
{
name = acutecomb.case;
transform = "{1, 0, 0, 1, 869, 0}";
}
);
layerId = "7A9E6466-FE38-4215-AA78-C86323202F89";
width = 726;
},
{
background = {
anchors = (
{
name = bottom;
position = "{294, 0}";
},
{
name = top;
position = "{442, 700}";
}
);
paths = (
{
closed = 1;
nodes = (
"438 -15 OFFCURVE",
"537 21 OFFCURVE",
"610 69 CURVE",
"554 238 LINE",
"492 199 OFFCURVE",
"427 182 OFFCURVE",
"370 182 CURVE SMOOTH",
"258 182 OFFCURVE",
"207 245 OFFCURVE",
"229 350 CURVE SMOOTH",
"251 453 OFFCURVE",
"327 518 OFFCURVE",
"440 518 CURVE SMOOTH",
"503 518 OFFCURVE",
"552 498 OFFCURVE",
"579 459 CURVE",
"713 625 LINE",
"658 682 OFFCURVE",
"593 715 OFFCURVE",
"469 715 CURVE SMOOTH",
"251 715 OFFCURVE",
"63 564 OFFCURVE",
"16 347 CURVE SMOOTH",
"-31 124 OFFCURVE",
"92 -15 OFFCURVE",
"310 -15 CURVE SMOOTH"
);
},
{
closed = 1;
nodes = (
"537 754 LINE",
"695 931 LINE",
"488 931 LINE",
"349 754 LINE"
);
}
);
};
components = (
{
name = C;
},
{
name = acutecomb.case;
transform = "{1, 0, 0, 1, 886, 0}";
}
);
layerId = "06050411-8C1E-4EA2-9807-ADB6E7423C7E";
width = 730;
},
{
background = {
anchors = (
{
name = bottom;
position = "{294, 0}";
},
{
name = top;
position = "{442, 700}";
}
);
paths = (
{
closed = 1;
nodes = (
"438 -15 OFFCURVE",
"537 21 OFFCURVE",
"610 69 CURVE",
"554 238 LINE",
"492 199 OFFCURVE",
"427 182 OFFCURVE",
"370 182 CURVE SMOOTH",
"258 182 OFFCURVE",
"207 245 OFFCURVE",
"229 350 CURVE SMOOTH",
"251 453 OFFCURVE",
"327 518 OFFCURVE",
"440 518 CURVE SMOOTH",
"503 518 OFFCURVE",
"552 498 OFFCURVE",
"579 459 CURVE",
"713 625 LINE",
"658 682 OFFCURVE",
"593 715 OFFCURVE",
"469 715 CURVE SMOOTH",
"251 715 OFFCURVE",
"63 564 OFFCURVE",
"16 347 CURVE SMOOTH",
"-31 124 OFFCURVE",
"92 -15 OFFCURVE",
"310 -15 CURVE SMOOTH"
);
},
{
closed = 1;
nodes = (
"537 754 LINE",
"695 931 LINE",
"488 931 LINE",
"349 754 LINE"
);
}
);
};
components = (
{
name = C;
},
{
name = acutecomb.case;
transform = "{1, 0, 0, 1, 886, 0}";
}
);
layerId = "AA96BE86-BB68-49D4-94A1-31EA360FFFA2";
width = 730;
},
{
background = {
anchors = (
{
name = bottom;
position = "{293, 0}";
},
{
name = top;
position = "{442, 700}";
}
);
paths = (
{
closed = 1;
nodes = (
"405 -15 OFFCURVE",
"492 9 OFFCURVE",
"575 65 CURVE",
"558 115 LINE",
"487 62 OFFCURVE",
"412 41 OFFCURVE",
"334 41 CURVE SMOOTH",
"146 41 OFFCURVE",
"49 154 OFFCURVE",
"91 351 CURVE SMOOTH",
"131 541 OFFCURVE",
"277 660 OFFCURVE",
"459 660 CURVE SMOOTH",
"534 660 OFFCURVE",
"592 640 OFFCURVE",
"633 599 CURVE",
"677 646 LINE",
"632 690 OFFCURVE",
"560 715 OFFCURVE",
"465 715 CURVE SMOOTH",
"257 715 OFFCURVE",
"75 557 OFFCURVE",
"29 342 CURVE SMOOTH",
"-16 128 OFFCURVE",
"93 -15 OFFCURVE",
"310 -15 CURVE SMOOTH"
);
},
{
closed = 1;
nodes = (
"485 796 LINE",
"618 952 LINE",
"558 952 LINE",
"431 796 LINE"
);
}
);
};
components = (
{
name = C;
},
{
name = acutecomb.case;
transform = "{1, 0, 0, 1, 869, 0}";
}
);
layerId = "11F4F77C-5A4A-42C7-A4D7-8096DDA1923A";
width = 726;
}
);
leftKerningGroup = O;
rightKerningGroup = C;
unicode = 0106;
},
{
color = 5;
glyphname = Ccaron;
lastChange = "2020-01-27 11:56:19 +0000";
layers = (
{
components = (
{
name = C;
},
{
name = caroncomb.case;
transform = "{1, 0, 0, 1, 787, 0}";
}
);
layerId = "38FA562F-EF2C-4367-983C-F15B205514DC";
width = 712;
},
{
components = (
{
name = C;
},
{
name = caroncomb.case;
transform = "{1, 0, 0, 1, 808, 0}";
}
);
layerId = "E991CF0C-7E17-4C48-B08A-36C8E595ED17";
width = 716;
},
{
components = (
{
name = C;
},
{
name = caroncomb.case;
transform = "{1, 0, 0, 1, 808, 0}";
}
);
layerId = "805D0193-4943-450F-A7B0-5A59B60D8C7D";
width = 686;
},
{
components = (
{
name = C;
},
{
name = caroncomb.case;
transform = "{1, 0, 0, 1, 787, 0}";
}
);
layerId = "01407E7F-30D0-482B-A25C-5A532F071765";
width = 702;
},
{
background = {
anchors = (
{
name = bottom;
position = "{293, 0}";
},
{
name = top;
position = "{442, 700}";
}
);
paths = (
{
closed = 1;
nodes = (
"405 -15 OFFCURVE",
"492 9 OFFCURVE",
"575 65 CURVE",
"558 115 LINE",
"487 62 OFFCURVE",
"412 41 OFFCURVE",
"334 41 CURVE SMOOTH",
"146 41 OFFCURVE",
"49 154 OFFCURVE",
"91 351 CURVE SMOOTH",
"131 541 OFFCURVE",
"277 660 OFFCURVE",
"459 660 CURVE SMOOTH",
"534 660 OFFCURVE",
"592 640 OFFCURVE",
"633 599 CURVE",
"677 646 LINE",
"632 690 OFFCURVE",
"560 715 OFFCURVE",
"465 715 CURVE SMOOTH",
"257 715 OFFCURVE",
"75 557 OFFCURVE",
"29 342 CURVE SMOOTH",
"-16 128 OFFCURVE",
"93 -15 OFFCURVE",
"310 -15 CURVE SMOOTH"
);
},
{
closed = 1;
nodes = (
"490 796 LINE",
"657 952 LINE",
"596 952 LINE",
"472 838 LINE",
"465 838 LINE",
"394 952 LINE",
"334 952 LINE",
"428 796 LINE"
);
}
);
};
components = (
{
name = C;
},
{
name = caroncomb.case;
transform = "{1, 0, 0, 1, 868, 0}";
}
);
layerId = "7A9E6466-FE38-4215-AA78-C86323202F89";
width = 726;
},
{
background = {
anchors = (
{
name = bottom;
position = "{294, 0}";
},
{
name = top;
position = "{442, 700}";
}
);
paths = (
{
closed = 1;
nodes = (
"438 -15 OFFCURVE",
"537 21 OFFCURVE",
"610 69 CURVE",
"554 238 LINE",
"492 199 OFFCURVE",
"427 182 OFFCURVE",
"370 182 CURVE SMOOTH",
"258 182 OFFCURVE",
"207 245 OFFCURVE",
"229 350 CURVE SMOOTH",
"251 453 OFFCURVE",
"327 518 OFFCURVE",
"440 518 CURVE SMOOTH",
"503 518 OFFCURVE",
"552 498 OFFCURVE",
"579 459 CURVE",
"713 625 LINE",
"658 682 OFFCURVE",
"593 715 OFFCURVE",
"469 715 CURVE SMOOTH",
"251 715 OFFCURVE",
"63 564 OFFCURVE",
"16 347 CURVE SMOOTH",
"-31 124 OFFCURVE",
"92 -15 OFFCURVE",
"310 -15 CURVE SMOOTH"
);
},
{
closed = 1;
nodes = (
"543 754 LINE",
"740 931 LINE",
"553 931 LINE",
"483 868 LINE",
"478 868 LINE",
"439 931 LINE",
"244 931 LINE",
"365 754 LINE"
);
}
);
};
components = (
{
name = C;
},
{
name = caroncomb.case;
transform = "{1, 0, 0, 1, 886, 0}";
}
);
layerId = "06050411-8C1E-4EA2-9807-ADB6E7423C7E";
width = 730;
},
{
background = {
anchors = (
{
name = bottom;
position = "{294, 0}";
},
{
name = top;
position = "{442, 700}";
}
);
paths = (
{
closed = 1;
nodes = (
"438 -15 OFFCURVE",
"537 21 OFFCURVE",
"610 69 CURVE",
"554 238 LINE",
"492 199 OFFCURVE",
"427 182 OFFCURVE",
"370 182 CURVE SMOOTH",
"258 182 OFFCURVE",
"207 245 OFFCURVE",
"229 350 CURVE SMOOTH",
"251 453 OFFCURVE",
"327 518 OFFCURVE",
"440 518 CURVE SMOOTH",
"503 518 OFFCURVE",
"552 498 OFFCURVE",
"579 459 CURVE",
"713 625 LINE",
"658 682 OFFCURVE",
"593 715 OFFCURVE",
"469 715 CURVE SMOOTH",
"251 715 OFFCURVE",
"63 564 OFFCURVE",
"16 347 CURVE SMOOTH",
"-31 124 OFFCURVE",
"92 -15 OFFCURVE",
"310 -15 CURVE SMOOTH"
);
},
{
closed = 1;
nodes = (
"543 754 LINE",
"740 931 LINE",
"553 931 LINE",
"483 868 LINE",
"478 868 LINE",
"439 931 LINE",
"244 931 LINE",
"365 754 LINE"
);
}
);
};
components = (
{
name = C;
},
{
name = caroncomb.case;
transform = "{1, 0, 0, 1, 886, 0}";
}
);
layerId = "AA96BE86-BB68-49D4-94A1-31EA360FFFA2";
width = 730;
},
{
background = {
anchors = (
{
name = bottom;
position = "{293, 0}";
},
{
name = top;
position = "{442, 700}";
}
);
paths = (
{
closed = 1;
nodes = (
"405 -15 OFFCURVE",
"492 9 OFFCURVE",
"575 65 CURVE",
"558 115 LINE",
"487 62 OFFCURVE",
"412 41 OFFCURVE",
"334 41 CURVE SMOOTH",
"146 41 OFFCURVE",
"49 154 OFFCURVE",
"91 351 CURVE SMOOTH",
"131 541 OFFCURVE",
"277 660 OFFCURVE",
"459 660 CURVE SMOOTH",
"534 660 OFFCURVE",
"592 640 OFFCURVE",
"633 599 CURVE",
"677 646 LINE",
"632 690 OFFCURVE",
"560 715 OFFCURVE",
"465 715 CURVE SMOOTH",
"257 715 OFFCURVE",
"75 557 OFFCURVE",
"29 342 CURVE SMOOTH",
"-16 128 OFFCURVE",
"93 -15 OFFCURVE",
"310 -15 CURVE SMOOTH"
);
},
{
closed = 1;
nodes = (
"490 796 LINE",
"657 952 LINE",
"596 952 LINE",
"472 838 LINE",
"465 838 LINE",
"394 952 LINE",
"334 952 LINE",
"428 796 LINE"
);
}
);
};
components = (
{
name = C;
},
{
name = caroncomb.case;
transform = "{1, 0, 0, 1, 868, 0}";
}
);
layerId = "11F4F77C-5A4A-42C7-A4D7-8096DDA1923A";
width = 726;
}
);
leftKerningGroup = O;
rightKerningGroup = C;
unicode = 010C;
},
{
color = 5;
glyphname = Ccedilla;
lastChange = "2020-01-27 11:56:19 +0000";
layers = (
{
components = (
{
name = C;
},
{
name = cedillacomb;
transform = "{1, 0, 0, 1, 686, 0}";
}
);
layerId = "38FA562F-EF2C-4367-983C-F15B205514DC";
width = 712;
},
{
components = (
{
name = C;
},
{
name = cedillacomb;
transform = "{1, 0, 0, 1, 710, 0}";
}
);
layerId = "E991CF0C-7E17-4C48-B08A-36C8E595ED17";
width = 716;
},
{
components = (
{
name = C;
},
{
name = cedillacomb;
transform = "{1, 0, 0, 1, 710, 0}";
}
);
layerId = "805D0193-4943-450F-A7B0-5A59B60D8C7D";
width = 686;
},
{
components = (
{
name = C;
},
{
name = cedillacomb;
transform = "{1, 0, 0, 1, 686, 0}";
}
);
layerId = "01407E7F-30D0-482B-A25C-5A532F071765";
width = 702;
},
{
background = {
anchors = (
{
name = bottom;
position = "{341, 0}";
},
{
name = top;
position = "{490, 700}";
}
);
paths = (
{
closed = 1;
nodes = (
"453 -15 OFFCURVE",
"540 9 OFFCURVE",
"623 65 CURVE",
"605 115 LINE",
"534 62 OFFCURVE",
"460 41 OFFCURVE",
"382 41 CURVE SMOOTH",
"194 41 OFFCURVE",
"97 154 OFFCURVE",
"139 351 CURVE SMOOTH",
"179 541 OFFCURVE",
"324 660 OFFCURVE",
"506 660 CURVE SMOOTH",
"581 660 OFFCURVE",
"640 640 OFFCURVE",
"680 599 CURVE",
"724 646 LINE",
"680 690 OFFCURVE",
"608 715 OFFCURVE",
"513 715 CURVE SMOOTH",
"305 715 OFFCURVE",
"122 557 OFFCURVE",
"77 342 CURVE SMOOTH",
"31 128 OFFCURVE",
"141 -15 OFFCURVE",
"358 -15 CURVE SMOOTH"
);
},
{
closed = 1;
nodes = (
"332 -225 OFFCURVE",
"407 -201 OFFCURVE",
"422 -133 CURVE SMOOTH",
"433 -80 OFFCURVE",
"392 -51 OFFCURVE",
"330 -47 CURVE",
"364 20 LINE",
"323 20 LINE",
"279 -63 LINE",
"289 -93 LINE",
"333 -87 OFFCURVE",
"375 -100 OFFCURVE",
"367 -135 CURVE SMOOTH",
"360 -168 OFFCURVE",
"323 -180 OFFCURVE",
"293 -180 CURVE SMOOTH",
"261 -180 OFFCURVE",
"226 -168 OFFCURVE",
"217 -154 CURVE",
"189 -197 LINE",
"213 -215 OFFCURVE",
"245 -225 OFFCURVE",
"285 -225 CURVE SMOOTH"
);
}
);
};
components = (
{
name = C;
},
{
name = cedillacomb;
transform = "{1, 0, 0, 1, 636, 0}";
}
);
layerId = "7A9E6466-FE38-4215-AA78-C86323202F89";
width = 726;
},
{
background = {
anchors = (
{
name = bottom;
position = "{339, 0}";
},
{
name = top;
position = "{488, 700}";
}
);
paths = (
{
closed = 1;
nodes = (
"484 -15 OFFCURVE",
"582 21 OFFCURVE",
"656 69 CURVE",
"600 238 LINE",
"537 199 OFFCURVE",
"473 182 OFFCURVE",
"416 182 CURVE SMOOTH",
"304 182 OFFCURVE",
"252 245 OFFCURVE",
"274 350 CURVE SMOOTH",
"296 453 OFFCURVE",
"372 518 OFFCURVE",
"485 518 CURVE SMOOTH",
"548 518 OFFCURVE",
"597 498 OFFCURVE",
"624 459 CURVE",
"759 625 LINE",
"703 682 OFFCURVE",
"638 715 OFFCURVE",
"514 715 CURVE SMOOTH",
"296 715 OFFCURVE",
"108 564 OFFCURVE",
"62 347 CURVE SMOOTH",
"14 124 OFFCURVE",
"138 -15 OFFCURVE",
"356 -15 CURVE SMOOTH"
);
},
{
closed = 1;
nodes = (
"353 -225 OFFCURVE",
"441 -188 OFFCURVE",
"455 -124 CURVE SMOOTH",
"465 -74 OFFCURVE",
"430 -39 OFFCURVE",
"355 -31 CURVE",
"383 20 LINE",
"298 20 LINE",
"256 -47 LINE",
"275 -104 LINE",
"319 -98 OFFCURVE",
"359 -107 OFFCURVE",
"355 -125 CURVE SMOOTH",
"352 -140 OFFCURVE",
"322 -147 OFFCURVE",
"291 -147 CURVE SMOOTH",
"263 -147 OFFCURVE",
"219 -138 OFFCURVE",
"201 -118 CURVE",
"157 -190 LINE",
"186 -211 OFFCURVE",
"228 -225 OFFCURVE",
"279 -225 CURVE SMOOTH"
);
}
);
};
components = (
{
name = C;
},
{
name = cedillacomb;
transform = "{1, 0, 0, 1, 656, 0}";
}
);
layerId = "06050411-8C1E-4EA2-9807-ADB6E7423C7E";
width = 730;
},
{
background = {
anchors = (
{
name = bottom;
position = "{339, 0}";
},
{
name = top;
position = "{488, 700}";
}
);
paths = (
{
closed = 1;
nodes = (
"484 -15 OFFCURVE",
"582 21 OFFCURVE",
"656 69 CURVE",
"600 238 LINE",
"537 199 OFFCURVE",
"473 182 OFFCURVE",
"416 182 CURVE SMOOTH",
"304 182 OFFCURVE",
"252 245 OFFCURVE",
"274 350 CURVE SMOOTH",
"296 453 OFFCURVE",
"372 518 OFFCURVE",
"485 518 CURVE SMOOTH",
"548 518 OFFCURVE",
"597 498 OFFCURVE",
"624 459 CURVE",
"759 625 LINE",
"703 682 OFFCURVE",
"638 715 OFFCURVE",
"514 715 CURVE SMOOTH",
"296 715 OFFCURVE",
"108 564 OFFCURVE",
"62 347 CURVE SMOOTH",
"14 124 OFFCURVE",
"138 -15 OFFCURVE",
"356 -15 CURVE SMOOTH"
);
},
{
closed = 1;
nodes = (
"353 -225 OFFCURVE",
"441 -188 OFFCURVE",
"455 -124 CURVE SMOOTH",
"465 -74 OFFCURVE",
"430 -39 OFFCURVE",
"355 -31 CURVE",
"383 20 LINE",
"298 20 LINE",
"256 -47 LINE",
"275 -104 LINE",
"319 -98 OFFCURVE",
"359 -107 OFFCURVE",
"355 -125 CURVE SMOOTH",
"352 -140 OFFCURVE",
"322 -147 OFFCURVE",
"291 -147 CURVE SMOOTH",
"263 -147 OFFCURVE",
"219 -138 OFFCURVE",
"201 -118 CURVE",
"157 -190 LINE",
"186 -211 OFFCURVE",
"228 -225 OFFCURVE",
"279 -225 CURVE SMOOTH"
);
}
);
};
components = (
{
name = C;
},
{
name = cedillacomb;
transform = "{1, 0, 0, 1, 656, 0}";
}
);
layerId = "AA96BE86-BB68-49D4-94A1-31EA360FFFA2";
width = 730;
},
{
background = {
anchors = (
{
name = bottom;
position = "{341, 0}";
},
{
name = top;
position = "{490, 700}";
}
);
paths = (
{
closed = 1;
nodes = (
"453 -15 OFFCURVE",
"540 9 OFFCURVE",
"623 65 CURVE",
"605 115 LINE",
"534 62 OFFCURVE",
"460 41 OFFCURVE",
"382 41 CURVE SMOOTH",
"194 41 OFFCURVE",
"97 154 OFFCURVE",
"139 351 CURVE SMOOTH",
"179 541 OFFCURVE",
"324 660 OFFCURVE",
"506 660 CURVE SMOOTH",
"581 660 OFFCURVE",
"640 640 OFFCURVE",
"680 599 CURVE",
"724 646 LINE",
"680 690 OFFCURVE",
"608 715 OFFCURVE",
"513 715 CURVE SMOOTH",
"305 715 OFFCURVE",
"122 557 OFFCURVE",
"77 342 CURVE SMOOTH",
"31 128 OFFCURVE",
"141 -15 OFFCURVE",
"358 -15 CURVE SMOOTH"
);
},
{
closed = 1;
nodes = (
"332 -225 OFFCURVE",
"407 -201 OFFCURVE",
"422 -133 CURVE SMOOTH",
"433 -80 OFFCURVE",
"392 -51 OFFCURVE",
"330 -47 CURVE",
"364 20 LINE",
"323 20 LINE",
"279 -63 LINE",
"289 -93 LINE",
"333 -87 OFFCURVE",
"375 -100 OFFCURVE",
"367 -135 CURVE SMOOTH",
"360 -168 OFFCURVE",
"323 -180 OFFCURVE",
"293 -180 CURVE SMOOTH",
"261 -180 OFFCURVE",
"226 -168 OFFCURVE",
"217 -154 CURVE",
"189 -197 LINE",
"213 -215 OFFCURVE",
"245 -225 OFFCURVE",
"285 -225 CURVE SMOOTH"
);
}
);
};
components = (
{
name = C;
},
{
name = cedillacomb;
transform = "{1, 0, 0, 1, 636, 0}";
}
);
layerId = "11F4F77C-5A4A-42C7-A4D7-8096DDA1923A";
width = 726;
}
);
leftKerningGroup = O;
rightKerningGroup = C;
unicode = 00C7;
},
{
color = 5;
glyphname = Ccircumflex;
lastChange = "2020-01-27 11:56:19 +0000";
layers = (
{
components = (
{
name = C;
},
{
name = circumflexcomb.case;
transform = "{1, 0, 0, 1, 787, 0}";
}
);
layerId = "38FA562F-EF2C-4367-983C-F15B205514DC";
width = 712;
},
{
components = (
{
name = C;
},
{
name = circumflexcomb.case;
transform = "{1, 0, 0, 1, 808, 0}";
}
);
layerId = "E991CF0C-7E17-4C48-B08A-36C8E595ED17";
width = 716;
},
{
components = (
{
name = C;
},
{
name = circumflexcomb.case;
transform = "{1, 0, 0, 1, 808, 0}";
}
);
layerId = "805D0193-4943-450F-A7B0-5A59B60D8C7D";
width = 686;
},
{
components = (
{
name = C;
},
{
name = circumflexcomb.case;
transform = "{1, 0, 0, 1, 787, 0}";
}
);
layerId = "01407E7F-30D0-482B-A25C-5A532F071765";
width = 702;
},
{
background = {
anchors = (
{
name = bottom;
position = "{293, 0}";
},
{
name = top;
position = "{490, 924}";
},
{
name = top_right;
position = "{627, 824}";
}
);
paths = (
{
closed = 1;
nodes = (
"405 -15 OFFCURVE",
"492 9 OFFCURVE",
"575 65 CURVE",
"558 115 LINE",
"487 62 OFFCURVE",
"412 41 OFFCURVE",
"334 41 CURVE SMOOTH",
"146 41 OFFCURVE",
"49 154 OFFCURVE",
"91 351 CURVE SMOOTH",
"131 541 OFFCURVE",
"277 660 OFFCURVE",
"459 660 CURVE SMOOTH",
"534 660 OFFCURVE",
"592 640 OFFCURVE",
"633 599 CURVE",
"677 646 LINE",
"632 690 OFFCURVE",
"560 715 OFFCURVE",
"465 715 CURVE SMOOTH",
"257 715 OFFCURVE",
"75 557 OFFCURVE",
"29 342 CURVE SMOOTH",
"-16 128 OFFCURVE",
"93 -15 OFFCURVE",
"310 -15 CURVE SMOOTH"
);
},
{
closed = 1;
nodes = (
"362 796 LINE",
"487 910 LINE",
"493 910 LINE",
"564 796 LINE",
"624 796 LINE",
"531 952 LINE",
"469 952 LINE",
"301 796 LINE"
);
}
);
};
components = (
{
name = C;
},
{
name = circumflexcomb.case;
transform = "{1, 0, 0, 1, 869, 0}";
}
);
layerId = "7A9E6466-FE38-4215-AA78-C86323202F89";
width = 726;
},
{
background = {
anchors = (
{
name = bottom;
position = "{294, 0}";
},
{
name = top;
position = "{486, 903}";
},
{
name = top_right;
position = "{726, 866}";
}
);
paths = (
{
closed = 1;
nodes = (
"438 -15 OFFCURVE",
"537 21 OFFCURVE",
"610 69 CURVE",
"554 238 LINE",
"492 199 OFFCURVE",
"427 182 OFFCURVE",
"370 182 CURVE SMOOTH",
"258 182 OFFCURVE",
"207 245 OFFCURVE",
"229 350 CURVE SMOOTH",
"251 453 OFFCURVE",
"327 518 OFFCURVE",
"440 518 CURVE SMOOTH",
"503 518 OFFCURVE",
"552 498 OFFCURVE",
"579 459 CURVE",
"713 625 LINE",
"658 682 OFFCURVE",
"593 715 OFFCURVE",
"469 715 CURVE SMOOTH",
"251 715 OFFCURVE",
"63 564 OFFCURVE",
"16 347 CURVE SMOOTH",
"-31 124 OFFCURVE",
"92 -15 OFFCURVE",
"310 -15 CURVE SMOOTH"
);
},
{
closed = 1;
nodes = (
"393 754 LINE",
"462 817 LINE",
"467 817 LINE",
"507 754 LINE",
"702 754 LINE",
"581 931 LINE",
"403 931 LINE",
"206 754 LINE"
);
}
);
};
components = (
{
name = C;
},
{
name = circumflexcomb.case;
transform = "{1, 0, 0, 1, 887, 0}";
}
);
layerId = "06050411-8C1E-4EA2-9807-ADB6E7423C7E";
width = 730;
},
{
background = {
anchors = (
{
name = bottom;
position = "{294, 0}";
},
{
name = top;
position = "{486, 903}";
},
{
name = top_right;
position = "{726, 866}";
}
);
paths = (
{
closed = 1;
nodes = (
"438 -15 OFFCURVE",
"537 21 OFFCURVE",
"610 69 CURVE",
"554 238 LINE",
"492 199 OFFCURVE",
"427 182 OFFCURVE",
"370 182 CURVE SMOOTH",
"258 182 OFFCURVE",
"207 245 OFFCURVE",
"229 350 CURVE SMOOTH",
"251 453 OFFCURVE",
"327 518 OFFCURVE",
"440 518 CURVE SMOOTH",
"503 518 OFFCURVE",
"552 498 OFFCURVE",
"579 459 CURVE",
"713 625 LINE",
"658 682 OFFCURVE",
"593 715 OFFCURVE",
"469 715 CURVE SMOOTH",
"251 715 OFFCURVE",
"63 564 OFFCURVE",
"16 347 CURVE SMOOTH",
"-31 124 OFFCURVE",
"92 -15 OFFCURVE",
"310 -15 CURVE SMOOTH"
);
},
{
closed = 1;
nodes = (
"393 754 LINE",
"462 817 LINE",
"467 817 LINE",
"507 754 LINE",
"702 754 LINE",
"581 931 LINE",
"403 931 LINE",
"206 754 LINE"
);
}
);
};
components = (
{
name = C;
},
{
name = circumflexcomb.case;
transform = "{1, 0, 0, 1, 887, 0}";
}
);
layerId = "AA96BE86-BB68-49D4-94A1-31EA360FFFA2";
width = 730;
},
{
background = {
anchors = (
{
name = bottom;
position = "{293, 0}";
},
{
name = top;
position = "{490, 924}";
},
{
name = top_right;
position = "{627, 824}";
}
);
paths = (
{
closed = 1;
nodes = (
"405 -15 OFFCURVE",
"492 9 OFFCURVE",
"575 65 CURVE",
"558 115 LINE",
"487 62 OFFCURVE",
"412 41 OFFCURVE",
"334 41 CURVE SMOOTH",
"146 41 OFFCURVE",
"49 154 OFFCURVE",
"91 351 CURVE SMOOTH",
"131 541 OFFCURVE",
"277 660 OFFCURVE",
"459 660 CURVE SMOOTH",
"534 660 OFFCURVE",
"592 640 OFFCURVE",
"633 599 CURVE",
"677 646 LINE",
"632 690 OFFCURVE",
"560 715 OFFCURVE",
"465 715 CURVE SMOOTH",
"257 715 OFFCURVE",
"75 557 OFFCURVE",
"29 342 CURVE SMOOTH",
"-16 128 OFFCURVE",
"93 -15 OFFCURVE",
"310 -15 CURVE SMOOTH"
);
},
{
closed = 1;
nodes = (
"362 796 LINE",
"487 910 LINE",
"493 910 LINE",
"564 796 LINE",
"624 796 LINE",
"531 952 LINE",
"469 952 LINE",
"301 796 LINE"
);
}
);
};
components = (
{
name = C;
},
{
name = circumflexcomb.case;
transform = "{1, 0, 0, 1, 869, 0}";
}
);
layerId = "11F4F77C-5A4A-42C7-A4D7-8096DDA1923A";
width = 726;
}
);
leftKerningGroup = O;
rightKerningGroup = C;
unicode = 0108;
},
{
color = 5;
glyphname = Cdotaccent;
lastChange = "2020-01-27 11:56:19 +0000";
layers = (
{
components = (
{
name = C;
},
{
name = dotaccentcomb.case;
transform = "{1, 0, 0, 1, 787, 0}";
}
);
layerId = "38FA562F-EF2C-4367-983C-F15B205514DC";
width = 712;
},
{
components = (
{
name = C;
},
{
name = dotaccentcomb.case;
transform = "{1, 0, 0, 1, 808, 0}";
}
);
layerId = "E991CF0C-7E17-4C48-B08A-36C8E595ED17";
width = 716;
},
{
components = (
{
name = C;
},
{
name = dotaccentcomb.case;
transform = "{1, 0, 0, 1, 808, 0}";
}
);
layerId = "805D0193-4943-450F-A7B0-5A59B60D8C7D";
width = 686;
},
{
components = (
{
name = C;
},
{
name = dotaccentcomb.case;
transform = "{1, 0, 0, 1, 787, 0}";
}
);
layerId = "01407E7F-30D0-482B-A25C-5A532F071765";
width = 702;
},
{
background = {
anchors = (
{
name = bottom;
position = "{301, 0}";
},
{
name = top;
position = "{482, 852}";
}
);
paths = (
{
closed = 1;
nodes = (
"412 -15 OFFCURVE",
"499 9 OFFCURVE",
"582 65 CURVE",
"565 115 LINE",
"494 62 OFFCURVE",
"419 41 OFFCURVE",
"341 41 CURVE SMOOTH",
"153 41 OFFCURVE",
"56 154 OFFCURVE",
"98 351 CURVE SMOOTH",
"139 541 OFFCURVE",
"284 660 OFFCURVE",
"466 660 CURVE SMOOTH",
"541 660 OFFCURVE",
"600 640 OFFCURVE",
"640 599 CURVE",
"684 646 LINE",
"639 690 OFFCURVE",
"568 715 OFFCURVE",
"473 715 CURVE SMOOTH",
"265 715 OFFCURVE",
"82 557 OFFCURVE",
"36 342 CURVE SMOOTH",
"-9 128 OFFCURVE",
"100 -15 OFFCURVE",
"317 -15 CURVE SMOOTH"
);
},
{
closed = 1;
nodes = (
"495 793 OFFCURVE",
"522 814 OFFCURVE",
"527 839 CURVE SMOOTH",
"532 864 OFFCURVE",
"515 885 OFFCURVE",
"489 885 CURVE SMOOTH",
"463 885 OFFCURVE",
"436 864 OFFCURVE",
"431 839 CURVE SMOOTH",
"426 814 OFFCURVE",
"443 793 OFFCURVE",
"469 793 CURVE SMOOTH"
);
}
);
};
components = (
{
name = C;
},
{
name = dotaccentcomb.case;
transform = "{1, 0, 0, 1, 773, 0}";
}
);
layerId = "7A9E6466-FE38-4215-AA78-C86323202F89";
width = 726;
},
{
background = {
anchors = (
{
name = bottom;
position = "{290, 0}";
},
{
name = top;
position = "{484, 915}";
}
);
paths = (
{
closed = 1;
nodes = (
"434 -15 OFFCURVE",
"533 21 OFFCURVE",
"606 69 CURVE",
"550 238 LINE",
"488 199 OFFCURVE",
"423 182 OFFCURVE",
"366 182 CURVE SMOOTH",
"254 182 OFFCURVE",
"203 245 OFFCURVE",
"225 350 CURVE SMOOTH",
"247 453 OFFCURVE",
"323 518 OFFCURVE",
"436 518 CURVE SMOOTH",
"499 518 OFFCURVE",
"547 498 OFFCURVE",
"575 459 CURVE",
"709 625 LINE",
"653 682 OFFCURVE",
"588 715 OFFCURVE",
"464 715 CURVE SMOOTH",
"246 715 OFFCURVE",
"58 564 OFFCURVE",
"12 347 CURVE SMOOTH",
"-35 124 OFFCURVE",
"88 -15 OFFCURVE",
"306 -15 CURVE SMOOTH"
);
},
{
closed = 1;
nodes = (
"515 755 OFFCURVE",
"578 795 OFFCURVE",
"593 863 CURVE SMOOTH",
"607 931 OFFCURVE",
"560 970 OFFCURVE",
"496 970 CURVE SMOOTH",
"432 970 OFFCURVE",
"367 931 OFFCURVE",
"353 863 CURVE SMOOTH",
"338 795 OFFCURVE",
"385 755 OFFCURVE",
"450 755 CURVE SMOOTH"
);
}
);
};
components = (
{
name = C;
},
{
name = dotaccentcomb.case;
transform = "{1, 0, 0, 1, 795, 0}";
}
);
layerId = "06050411-8C1E-4EA2-9807-ADB6E7423C7E";
width = 730;
},
{
background = {
anchors = (
{
name = bottom;
position = "{290, 0}";
},
{
name = top;
position = "{484, 915}";
}
);
paths = (
{
closed = 1;
nodes = (
"434 -15 OFFCURVE",
"533 21 OFFCURVE",
"606 69 CURVE",
"550 238 LINE",
"488 199 OFFCURVE",
"423 182 OFFCURVE",
"366 182 CURVE SMOOTH",
"254 182 OFFCURVE",
"203 245 OFFCURVE",
"225 350 CURVE SMOOTH",
"247 453 OFFCURVE",
"323 518 OFFCURVE",
"436 518 CURVE SMOOTH",
"499 518 OFFCURVE",
"547 498 OFFCURVE",
"575 459 CURVE",
"709 625 LINE",
"653 682 OFFCURVE",
"588 715 OFFCURVE",
"464 715 CURVE SMOOTH",
"246 715 OFFCURVE",
"58 564 OFFCURVE",
"12 347 CURVE SMOOTH",
"-35 124 OFFCURVE",
"88 -15 OFFCURVE",
"306 -15 CURVE SMOOTH"
);
},
{
closed = 1;
nodes = (
"515 755 OFFCURVE",
"578 795 OFFCURVE",
"593 863 CURVE SMOOTH",
"607 931 OFFCURVE",
"560 970 OFFCURVE",
"496 970 CURVE SMOOTH",
"432 970 OFFCURVE",
"367 931 OFFCURVE",
"353 863 CURVE SMOOTH",
"338 795 OFFCURVE",
"385 755 OFFCURVE",
"450 755 CURVE SMOOTH"
);
}
);
};
components = (
{
name = C;
},
{
name = dotaccentcomb.case;
transform = "{1, 0, 0, 1, 795, 0}";
}
);
layerId = "AA96BE86-BB68-49D4-94A1-31EA360FFFA2";
width = 730;
},
{
background = {
anchors = (
{
name = bottom;
position = "{301, 0}";
},
{
name = top;
position = "{482, 852}";
}
);
paths = (
{
closed = 1;
nodes = (
"412 -15 OFFCURVE",
"499 9 OFFCURVE",
"582 65 CURVE",
"565 115 LINE",
"494 62 OFFCURVE",
"419 41 OFFCURVE",
"341 41 CURVE SMOOTH",
"153 41 OFFCURVE",
"56 154 OFFCURVE",
"98 351 CURVE SMOOTH",
"139 541 OFFCURVE",
"284 660 OFFCURVE",
"466 660 CURVE SMOOTH",
"541 660 OFFCURVE",
"600 640 OFFCURVE",
"640 599 CURVE",
"684 646 LINE",
"639 690 OFFCURVE",
"568 715 OFFCURVE",
"473 715 CURVE SMOOTH",
"265 715 OFFCURVE",
"82 557 OFFCURVE",
"36 342 CURVE SMOOTH",
"-9 128 OFFCURVE",
"100 -15 OFFCURVE",
"317 -15 CURVE SMOOTH"
);
},
{
closed = 1;
nodes = (
"495 793 OFFCURVE",
"522 814 OFFCURVE",
"527 839 CURVE SMOOTH",
"532 864 OFFCURVE",
"515 885 OFFCURVE",
"489 885 CURVE SMOOTH",
"463 885 OFFCURVE",
"436 864 OFFCURVE",
"431 839 CURVE SMOOTH",
"426 814 OFFCURVE",
"443 793 OFFCURVE",
"469 793 CURVE SMOOTH"
);
}
);
};
components = (
{
name = C;
},
{
name = dotaccentcomb.case;
transform = "{1, 0, 0, 1, 773, 0}";
}
);
layerId = "11F4F77C-5A4A-42C7-A4D7-8096DDA1923A";
width = 726;
}
);
leftKerningGroup = O;
rightKerningGroup = C;
unicode = 010A;
},
